<svg width="47" height="16" viewBox="0 0 47 16" fill="none" xmlns="http://www.w3.org/2000/svg"><path d="M4.368 13.13c-.728 0-1.378-.182-1.95-.546-.572-.373-1.023-.91-1.352-1.612-.33-.71-.494-1.551-.494-2.522 0-.97.165-1.807.494-2.509.33-.71.78-1.248 1.352-1.612.572-.373 1.222-.559 1.95-.559s1.378.186 1.95.559c.58.364 1.036.901 1.365 1.612.33.702.494 1.538.494 2.509 0 .97-.165 1.811-.494 2.522-.33.702-.784 1.24-1.365 1.612-.572.364-1.222.546-1.95.546zm0-1.469c.65 0 1.161-.269 1.534-.806.381-.537.572-1.339.572-2.405 0-1.066-.19-1.868-.572-2.405-.373-.537-.884-.806-1.534-.806-.641 0-1.153.269-1.534.806-.373.537-.559 1.339-.559 2.405 0 1.066.186 1.868.559 2.405.381.537.893.806 1.534.806zm8.687-2.951h3.575v1.352h-3.575V8.71zm12.248 4.42c-.728 0-1.378-.182-1.95-.546-.572-.373-1.023-.91-1.352-1.612-.33-.71-.494-1.551-.494-2.522 0-.97.164-1.807.494-2.509.329-.71.78-1.248 1.352-1.612.572-.373 1.222-.559 1.95-.559s1.378.186 1.95.559c.58.364 1.035.901 1.365 1.612.329.702.494 1.538.494 2.509 0 .97-.165 1.811-.494 2.522-.33.702-.785 1.24-1.365 1.612-.572.364-1.222.546-1.95.546zm0-1.469c.65 0 1.16-.269 1.534-.806.38-.537.572-1.339.572-2.405 0-1.066-.191-1.868-.572-2.405-.373-.537-.884-.806-1.534-.806-.642 0-1.153.269-1.534.806-.373.537-.56 1.339-.56 2.405 0 1.066.187 1.868.56 2.405.38.537.892.806 1.534.806zm8.686-2.951h3.575v1.352H33.99V8.71zM45.587 3.9V13h-1.69V5.317h-1.924V3.9h3.614z" fill="#474747"/></svg>