<svg width="66" height="16" viewBox="0 0 66 16" fill="none" xmlns="http://www.w3.org/2000/svg"><path d="M3.718 3.9V13h-1.69V5.317H.104V3.9h3.614zm6.72 9.1l-1.782-2.405L6.862 13H5.068l2.704-3.523-2.587-3.419h1.807l1.703 2.275 1.703-2.275h1.755l-2.6 3.393L12.27 13h-1.833zm20.08-9.1L27.5 13h-1.794l-2.249-6.734L21.17 13h-1.807l-3.016-9.1h1.755l2.262 6.916L22.717 3.9h1.56l2.301 6.955L28.905 3.9h1.612zm7.225 5.668c0 .113-.008.273-.026.481H32.27c.096.511.343.919.741 1.222.408.295.91.442 1.508.442.763 0 1.391-.251 1.885-.754l.871 1.001a2.935 2.935 0 01-1.183.845 4.308 4.308 0 01-1.612.286c-.762 0-1.434-.152-2.015-.455a3.334 3.334 0 01-1.352-1.261c-.312-.546-.468-1.161-.468-1.846 0-.676.152-1.283.455-1.82.312-.546.741-.97 1.287-1.274.546-.303 1.162-.455 1.846-.455.676 0 1.279.152 1.807.455a3.07 3.07 0 011.248 1.261c.304.537.455 1.161.455 1.872zm-3.51-2.288c-.52 0-.962.156-1.326.468-.355.303-.572.71-.65 1.222h3.94c-.07-.503-.282-.91-.638-1.222-.355-.312-.797-.468-1.326-.468zM45.83 9.568c0 .113-.008.273-.026.481h-5.447c.096.511.343.919.741 1.222.408.295.91.442 1.508.442.763 0 1.391-.251 1.885-.754l.871 1.001a2.935 2.935 0 01-1.183.845 4.308 4.308 0 01-1.612.286c-.762 0-1.434-.152-2.015-.455a3.334 3.334 0 01-1.352-1.261c-.312-.546-.468-1.161-.468-1.846 0-.676.152-1.283.455-1.82.312-.546.741-.97 1.287-1.274.546-.303 1.162-.455 1.846-.455.676 0 1.279.152 1.807.455a3.07 3.07 0 011.248 1.261c.304.537.455 1.161.455 1.872zM42.32 7.28c-.52 0-.962.156-1.326.468-.355.303-.572.71-.65 1.222h3.94c-.07-.503-.282-.91-.638-1.222-.355-.312-.797-.468-1.326-.468zm7.905 2.743l-1.209 1.144V13h-1.625V3.354h1.625v5.824l3.367-3.12h1.95L51.434 8.97 54.606 13H52.63l-2.405-2.977zm5.43-6.669h1.626V13h-1.625V3.354zm10.259 2.704l-3.25 7.501c-.304.754-.672 1.283-1.105 1.586-.434.312-.958.468-1.573.468-.347 0-.69-.056-1.027-.169a2.27 2.27 0 01-.832-.468l.65-1.196c.156.147.338.264.546.351.216.087.433.13.65.13.286 0 .52-.074.702-.221.19-.147.364-.394.52-.741l.117-.273-3.03-6.968h1.69l2.185 5.135 2.197-5.135h1.56z" fill="#474747"/></svg>