<svg width="57" height="36" viewBox="0 0 57 36" fill="none" xmlns="http://www.w3.org/2000/svg"><path d="M7.218 12.57V14H.51v-1.131l3.614-3.432c.407-.39.68-.728.819-1.014.147-.295.22-.585.22-.871 0-.425-.142-.75-.428-.975-.286-.225-.706-.338-1.261-.338-.927 0-1.638.316-2.132.949l-1.183-.91c.355-.477.832-.845 1.43-1.105.607-.269 1.283-.403 2.028-.403.988 0 1.777.234 2.366.702.59.468.884 1.105.884 1.911 0 .494-.104.958-.312 1.391-.208.433-.607.927-1.196 1.482L2.928 12.57h4.29zM21.172 4.9V14h-1.69v-3.9h-4.706V14h-1.69V4.9h1.69v3.757h4.706V4.9h1.69zm5.727 9.191c-.701 0-1.334-.152-1.898-.455a3.376 3.376 0 01-1.326-1.261c-.312-.546-.468-1.161-.468-1.846s.156-1.296.468-1.833c.321-.537.763-.958 1.326-1.261.564-.303 1.197-.455 1.898-.455.711 0 1.348.152 1.912.455a3.286 3.286 0 011.313 1.261c.32.537.48 1.148.48 1.833s-.16 1.3-.48 1.846c-.313.537-.75.958-1.313 1.261-.564.303-1.2.455-1.912.455zm0-1.391c.598 0 1.092-.2 1.482-.598.39-.399.585-.923.585-1.573 0-.65-.195-1.174-.585-1.573-.39-.399-.884-.598-1.482-.598s-1.091.2-1.482.598c-.38.399-.572.923-.572 1.573 0 .65.191 1.174.573 1.573.39.399.884.598 1.482.598zm12.305-5.642V14h-1.547v-.884c-.26.312-.585.555-.975.728-.39.165-.81.247-1.26.247-.928 0-1.66-.256-2.198-.767-.528-.52-.793-1.287-.793-2.301V7.058h1.625v3.744c0 .624.139 1.092.416 1.404.286.303.69.455 1.21.455.58 0 1.04-.178 1.377-.533.347-.364.52-.884.52-1.56v-3.51h1.625zm4 1.014c.468-.728 1.291-1.092 2.47-1.092v1.547a2.063 2.063 0 00-.377-.039c-.633 0-1.127.186-1.482.559-.355.364-.533.893-.533 1.586V14h-1.625V7.058h1.547v1.014zm6.344 6.019a6.217 6.217 0 01-1.651-.221c-.537-.147-.966-.334-1.287-.559l.624-1.235a4.16 4.16 0 001.118.507c.442.121.875.182 1.3.182.97 0 1.456-.256 1.456-.767 0-.243-.126-.412-.377-.507-.243-.095-.637-.186-1.183-.273a9.896 9.896 0 01-1.404-.299 2.224 2.224 0 01-.936-.585c-.26-.286-.39-.68-.39-1.183 0-.659.273-1.183.819-1.573.555-.399 1.3-.598 2.236-.598.477 0 .953.056 1.43.169.477.104.867.247 1.17.429l-.624 1.235c-.59-.347-1.252-.52-1.99-.52-.476 0-.84.074-1.091.221-.243.139-.364.325-.364.559 0 .26.13.446.39.559.269.104.68.204 1.235.299.555.087 1.01.186 1.365.299.355.113.659.303.91.572.26.269.39.65.39 1.144 0 .65-.282 1.17-.845 1.56-.563.39-1.33.585-2.301.585zM12.238 22.9h3.978c.97 0 1.833.19 2.587.572a4.13 4.13 0 011.755 1.599c.416.685.624 1.478.624 2.379s-.208 1.699-.624 2.392a4.242 4.242 0 01-1.755 1.599c-.754.373-1.616.559-2.587.559h-3.978v-9.1zm3.9 7.67c.667 0 1.252-.126 1.755-.377.511-.26.901-.624 1.17-1.092.277-.477.416-1.027.416-1.651 0-.624-.139-1.17-.416-1.638a2.646 2.646 0 00-1.17-1.092c-.503-.26-1.088-.39-1.755-.39h-2.21v6.24h2.21zm9.661-5.59c1.023 0 1.803.247 2.34.741.546.485.82 1.222.82 2.21V32h-1.535v-.845c-.2.303-.485.537-.858.702-.364.156-.806.234-1.326.234s-.975-.087-1.365-.26a2.22 2.22 0 01-.91-.741 1.94 1.94 0 01-.312-1.079c0-.624.23-1.122.69-1.495.467-.381 1.2-.572 2.196-.572h1.794v-.104c0-.485-.147-.858-.442-1.118-.286-.26-.715-.39-1.287-.39-.39 0-.775.06-1.157.182-.372.121-.689.29-.949.507l-.637-1.183c.364-.277.802-.49 1.313-.637a5.844 5.844 0 011.625-.221zm-.22 5.928c.407 0 .766-.091 1.078-.273.32-.19.546-.46.676-.806v-.806h-1.677c-.936 0-1.404.308-1.404.923 0 .295.117.529.351.702.234.173.56.26.975.26zm5.79-5.85h1.625V32h-1.625v-6.942zm.819-1.144c-.295 0-.542-.091-.741-.273a.934.934 0 01-.3-.702c0-.277.1-.507.3-.689.2-.19.446-.286.74-.286.295 0 .542.091.742.273a.84.84 0 01.299.663.99.99 0 01-.3.728c-.19.19-.437.286-.74.286zm3.264-1.56h1.625V32h-1.625v-9.646zm10.582 2.704l-3.25 7.501c-.303.754-.671 1.283-1.105 1.586-.433.312-.957.468-1.573.468-.346 0-.689-.056-1.027-.169a2.27 2.27 0 01-.832-.468l.65-1.196c.156.147.338.264.546.351.217.087.434.13.65.13.286 0 .52-.074.702-.221.191-.147.364-.394.52-.741l.117-.273-3.029-6.968h1.69l2.184 5.135 2.197-5.135h1.56z" fill="#474747"/></svg>