<svg width="41" height="16" viewBox="0 0 41 16" fill="none" xmlns="http://www.w3.org/2000/svg"><path d="M7.163 11.57V13H.455v-1.131l3.614-3.432c.407-.39.68-.728.819-1.014.147-.295.221-.585.221-.871 0-.425-.143-.75-.429-.975-.286-.225-.706-.338-1.261-.338-.927 0-1.638.316-2.132.949l-1.183-.91c.355-.477.832-.845 1.43-1.105.607-.269 1.283-.403 2.028-.403.988 0 1.777.234 2.366.702.59.468.884 1.105.884 1.911 0 .494-.104.958-.312 1.391-.208.433-.607.927-1.196 1.482L2.873 11.57h4.29zm4.121-7.67V13h-1.69V5.317H7.67V3.9h3.614zm11.95 6.994h-4.55L17.787 13h-1.742l4.095-9.1h1.664l4.108 9.1h-1.768l-.91-2.106zm-.559-1.326L20.96 5.59l-1.703 3.978h3.42zm8.087-3.588c.676 0 1.278.147 1.807.442.537.295.957.71 1.26 1.248.304.537.456 1.157.456 1.859s-.152 1.326-.455 1.872a3.177 3.177 0 01-1.261 1.248c-.529.295-1.131.442-1.807.442-.936 0-1.677-.312-2.223-.936v3.367h-1.625V6.058h1.547v.91c.268-.33.598-.576.988-.741a3.406 3.406 0 011.313-.247zm-.182 5.72c.598 0 1.087-.2 1.469-.598.39-.399.585-.923.585-1.573 0-.65-.195-1.174-.585-1.573-.382-.399-.871-.598-1.47-.598-.39 0-.74.091-1.052.273a1.881 1.881 0 00-.741.754c-.182.33-.273.71-.273 1.144 0 .433.09.815.273 1.144.182.33.429.585.74.767.313.173.664.26 1.054.26zm6.793-4.628c.468-.728 1.291-1.092 2.47-1.092v1.547a2.064 2.064 0 00-.377-.039c-.633 0-1.127.186-1.482.559-.356.364-.533.893-.533 1.586V13h-1.625V6.058h1.547v1.014z" fill="#474747"/></svg>