<svg width="54" height="36" viewBox="0 0 54 36" fill="none" xmlns="http://www.w3.org/2000/svg"><path d="M4.636 8.657c.84.104 1.482.39 1.924.858.442.468.663 1.053.663 1.755 0 .529-.134 1.01-.403 1.443-.269.433-.676.78-1.222 1.04-.537.251-1.196.377-1.976.377-.65 0-1.278-.091-1.885-.273a4.915 4.915 0 01-1.534-.78l.728-1.313c.33.277.728.498 1.196.663.477.156.966.234 1.469.234.598 0 1.066-.121 1.404-.364.347-.251.52-.59.52-1.014 0-.425-.165-.754-.494-.988-.32-.243-.815-.364-1.482-.364h-.832V8.774l2.067-2.457H.645V4.9h6.201v1.131l-2.21 2.626zm7.813 5.473c-.728 0-1.378-.182-1.95-.546-.572-.373-1.022-.91-1.352-1.612-.329-.71-.494-1.551-.494-2.522 0-.97.165-1.807.494-2.509.33-.71.78-1.248 1.352-1.612.572-.373 1.222-.559 1.95-.559s1.378.186 1.95.559c.581.364 1.036.901 1.365 1.612.33.702.494 1.538.494 2.509 0 .97-.164 1.811-.494 2.522-.329.702-.784 1.24-1.365 1.612-.572.364-1.222.546-1.95.546zm0-1.469c.65 0 1.162-.269 1.534-.806.382-.537.572-1.339.572-2.405 0-1.066-.19-1.868-.572-2.405-.372-.537-.884-.806-1.534-.806-.64 0-1.152.269-1.534.806-.372.537-.559 1.339-.559 2.405 0 1.066.187 1.868.56 2.405.38.537.892.806 1.533.806zM30.652 14l-.013-6.032-2.99 4.992h-.754l-2.99-4.914V14h-1.612V4.9h1.391l3.614 6.032 3.55-6.032h1.39l.013 9.1h-1.599zm4.226-6.942h1.625V14h-1.625V7.058zm.82-1.144c-.295 0-.542-.091-.742-.273a.934.934 0 01-.299-.702c0-.277.1-.507.3-.689.199-.19.446-.286.74-.286.295 0 .542.091.741.273a.84.84 0 01.3.663.99.99 0 01-.3.728c-.19.19-.437.286-.74.286zM42.9 6.98c.876 0 1.578.256 2.106.767.529.511.793 1.27.793 2.275V14h-1.625v-3.77c0-.607-.143-1.062-.429-1.365-.286-.312-.693-.468-1.222-.468-.598 0-1.07.182-1.417.546-.346.355-.52.871-.52 1.547V14h-1.625V7.058h1.547v.897a2.54 2.54 0 011.014-.728A3.65 3.65 0 0142.9 6.98zm7.43 7.111a6.217 6.217 0 01-1.65-.221c-.538-.147-.967-.334-1.288-.559l.624-1.235a4.16 4.16 0 001.119.507 4.9 4.9 0 001.3.182c.97 0 1.456-.256 1.456-.767 0-.243-.126-.412-.377-.507-.243-.095-.638-.186-1.184-.273a9.896 9.896 0 01-1.404-.299 2.224 2.224 0 01-.936-.585c-.26-.286-.39-.68-.39-1.183 0-.659.273-1.183.82-1.573.554-.399 1.3-.598 2.236-.598.476 0 .953.056 1.43.169.476.104.866.247 1.17.429l-.624 1.235c-.59-.347-1.253-.52-1.99-.52-.476 0-.84.074-1.092.221-.242.139-.363.325-.363.559 0 .26.13.446.39.559.268.104.68.204 1.235.299.554.087 1.01.186 1.364.299.356.113.66.303.91.572.26.269.39.65.39 1.144 0 .65-.281 1.17-.844 1.56-.564.39-1.33.585-2.301.585zM10.739 22.9h3.978c.97 0 1.833.19 2.587.572a4.13 4.13 0 011.755 1.599c.416.685.624 1.478.624 2.379s-.208 1.699-.624 2.392a4.242 4.242 0 01-1.755 1.599c-.754.373-1.616.559-2.587.559h-3.978v-9.1zm3.9 7.67c.667 0 1.252-.126 1.755-.377.511-.26.901-.624 1.17-1.092.277-.477.416-1.027.416-1.651 0-.624-.139-1.17-.416-1.638a2.646 2.646 0 00-1.17-1.092c-.503-.26-1.088-.39-1.755-.39h-2.21v6.24h2.21zm9.661-5.59c1.023 0 1.803.247 2.34.741.546.485.82 1.222.82 2.21V32h-1.535v-.845c-.2.303-.485.537-.858.702-.364.156-.806.234-1.326.234s-.975-.087-1.365-.26a2.22 2.22 0 01-.91-.741 1.94 1.94 0 01-.312-1.079c0-.624.23-1.122.69-1.495.467-.381 1.2-.572 2.196-.572h1.794v-.104c0-.485-.147-.858-.442-1.118-.286-.26-.715-.39-1.287-.39-.39 0-.775.06-1.157.182-.372.121-.689.29-.949.507l-.637-1.183c.364-.277.802-.49 1.313-.637a5.844 5.844 0 011.625-.221zm-.22 5.928c.407 0 .766-.091 1.078-.273.32-.19.546-.46.676-.806v-.806h-1.677c-.936 0-1.404.308-1.404.923 0 .295.117.529.351.702.234.173.56.26.975.26zm5.79-5.85h1.625V32h-1.625v-6.942zm.819-1.144c-.295 0-.542-.091-.741-.273a.934.934 0 01-.3-.702c0-.277.1-.507.3-.689.2-.19.446-.286.74-.286.295 0 .542.091.742.273a.84.84 0 01.299.663.99.99 0 01-.3.728c-.19.19-.437.286-.74.286zm3.264-1.56h1.625V32h-1.625v-9.646zm10.582 2.704l-3.25 7.501c-.303.754-.671 1.283-1.105 1.586-.433.312-.957.468-1.573.468-.346 0-.689-.056-1.027-.169a2.27 2.27 0 01-.832-.468l.65-1.196c.156.147.338.264.546.351.217.087.434.13.65.13.286 0 .52-.074.702-.221.191-.147.364-.394.52-.741l.117-.273-3.029-6.968h1.69l2.184 5.135 2.197-5.135h1.56z" fill="#474747"/></svg>