<svg width="59" height="15" viewBox="0 0 59 15" fill="none" xmlns="http://www.w3.org/2000/svg"><path d="M7.576 10.056h-4.2L2.548 12H.94l3.78-8.4h1.536l3.792 8.4H8.416l-.84-1.944zM7.06 8.832L5.476 5.16 3.904 8.832H7.06zm7.464-3.312c.624 0 1.18.136 1.668.408.496.272.884.656 1.164 1.152.28.496.42 1.068.42 1.716 0 .648-.14 1.224-.42 1.728-.28.496-.668.88-1.164 1.152-.488.272-1.044.408-1.668.408-.44 0-.844-.076-1.212-.228a2.33 2.33 0 01-.912-.684V12h-1.428V3.096h1.5v3.276c.256-.28.556-.492.9-.636a3.014 3.014 0 011.152-.216zm-.168 5.28c.552 0 1.004-.184 1.356-.552.36-.368.54-.852.54-1.452s-.18-1.084-.54-1.452c-.352-.368-.804-.552-1.356-.552-.36 0-.684.084-.972.252-.288.16-.516.392-.684.696a2.148 2.148 0 00-.252 1.056c0 .4.084.752.252 1.056.168.304.396.54.684.708.288.16.612.24.972.24zm7.723 1.284c-.648 0-1.232-.14-1.752-.42a3.117 3.117 0 01-1.224-1.164 3.373 3.373 0 01-.432-1.704c0-.632.144-1.196.432-1.692a3.117 3.117 0 011.224-1.164c.52-.28 1.104-.42 1.752-.42.656 0 1.244.14 1.764.42.52.28.924.668 1.212 1.164.296.496.444 1.06.444 1.692 0 .632-.148 1.2-.444 1.704a3.033 3.033 0 01-1.212 1.164c-.52.28-1.108.42-1.764.42zm0-1.284c.552 0 1.008-.184 1.368-.552.36-.368.54-.852.54-1.452s-.18-1.084-.54-1.452c-.36-.368-.816-.552-1.368-.552-.552 0-1.008.184-1.368.552-.352.368-.528.852-.528 1.452s.176 1.084.528 1.452c.36.368.816.552 1.368.552zm11.058-5.208V12H31.71v-.816c-.24.288-.54.512-.9.672-.36.152-.748.228-1.164.228-.856 0-1.532-.236-2.028-.708-.488-.48-.732-1.188-.732-2.124v-3.66h1.5v3.456c0 .576.128 1.008.384 1.296.264.28.636.42 1.116.42.536 0 .96-.164 1.272-.492.32-.336.48-.816.48-1.44v-3.24h1.5zm5.816 6.06a1.762 1.762 0 01-.648.324 2.828 2.828 0 01-.792.108c-.704 0-1.248-.184-1.632-.552-.384-.368-.576-.904-.576-1.608V6.84H34.25v-1.2h1.056V4.176h1.5V5.64h1.716v1.2h-1.716v3.048c0 .312.076.552.228.72.152.16.372.24.66.24.336 0 .616-.088.84-.264l.42 1.068zm8.306.468c-1.16 0-2.063-.324-2.712-.972-.647-.656-.971-1.592-.971-2.808V3.6h1.56v4.68c0 1.648.711 2.472 2.136 2.472 1.416 0 2.123-.824 2.123-2.472V3.6h1.536v4.74c0 1.216-.323 2.152-.971 2.808-.64.648-1.54.972-2.7.972zm7.693-.036c-.52 0-1.028-.068-1.524-.204-.496-.136-.892-.308-1.188-.516l.576-1.14a3.84 3.84 0 001.032.468c.408.112.808.168 1.2.168.896 0 1.344-.236 1.344-.708 0-.224-.116-.38-.348-.468-.224-.088-.588-.172-1.092-.252a9.135 9.135 0 01-1.296-.276 2.052 2.052 0 01-.864-.54c-.24-.264-.36-.628-.36-1.092 0-.608.252-1.092.756-1.452.512-.368 1.2-.552 2.064-.552.44 0 .88.052 1.32.156.44.096.8.228 1.08.396l-.576 1.14a3.553 3.553 0 00-1.836-.48c-.44 0-.776.068-1.008.204-.224.128-.336.3-.336.516 0 .24.12.412.36.516.248.096.628.188 1.14.276.512.08.932.172 1.26.276.328.104.608.28.84.528.24.248.36.6.36 1.056 0 .6-.26 1.08-.78 1.44-.52.36-1.228.54-2.124.54z" fill="#fff"/></svg>