<svg width="78" height="20" viewBox="0 0 78 20" fill="none" xmlns="http://www.w3.org/2000/svg"><path d="M9.768 13.408h-5.6L3.064 16H.92L5.96 4.8h2.048L13.064 16h-2.176l-1.12-2.592zm-.688-1.632L6.968 6.88l-2.096 4.896H9.08zm9.058 4.336c-.885 0-1.68-.187-2.384-.56A4.129 4.129 0 0114.106 14c-.394-.672-.592-1.43-.592-2.272 0-.843.198-1.595.592-2.256a4.155 4.155 0 011.632-1.552c.704-.373 1.504-.56 2.4-.56.843 0 1.579.17 2.208.512.64.341 1.12.832 1.44 1.472l-1.536.896a2.362 2.362 0 00-.928-.88 2.418 2.418 0 00-1.2-.304c-.746 0-1.365.245-1.856.736-.49.48-.736 1.125-.736 1.936 0 .81.24 1.461.72 1.952.49.48 1.115.72 1.872.72.438 0 .838-.096 1.2-.288.374-.203.683-.501.928-.896l1.536.896A3.499 3.499 0 0120.33 15.6c-.63.341-1.36.512-2.192.512zm10.622-.576a2.35 2.35 0 01-.864.432 3.77 3.77 0 01-1.056.144c-.938 0-1.663-.245-2.175-.736-.512-.49-.768-1.205-.768-2.144V9.12h-1.409v-1.6h1.409V5.568h2V7.52h2.288v1.6h-2.288v4.064c0 .416.1.736.304.96.202.213.495.32.88.32.448 0 .82-.117 1.12-.352l.56 1.424zm1.646-8.08h2V16h-2V7.456zm1.008-1.408c-.363 0-.667-.112-.912-.336a1.149 1.149 0 01-.368-.864c0-.341.122-.624.368-.848.245-.235.55-.352.912-.352s.666.112.912.336c.245.213.368.485.368.816 0 .352-.123.65-.368.896-.235.235-.539.352-.912.352zM43.03 7.456L39.367 16h-2.064l-3.664-8.544h2.08l2.656 6.336 2.736-6.336h1.92zm1.25 0h2V16h-2V7.456zm1.008-1.408c-.363 0-.667-.112-.912-.336a1.149 1.149 0 01-.368-.864c0-.341.122-.624.368-.848.245-.235.55-.352.912-.352s.666.112.912.336c.245.213.368.485.368.816 0 .352-.123.65-.368.896-.235.235-.539.352-.912.352zm8.753 9.488a2.35 2.35 0 01-.864.432 3.77 3.77 0 01-1.056.144c-.939 0-1.664-.245-2.176-.736-.512-.49-.768-1.205-.768-2.144V9.12H47.77v-1.6h1.408V5.568h2V7.52h2.288v1.6h-2.288v4.064c0 .416.101.736.304.96.202.213.496.32.88.32.448 0 .821-.117 1.12-.352l.56 1.424zm1.645-8.08h2V16h-2V7.456zm1.008-1.408c-.363 0-.667-.112-.912-.336a1.15 1.15 0 01-.368-.864A1.1 1.1 0 0155.783 4c.245-.235.55-.352.912-.352.363 0 .667.112.912.336.245.213.368.485.368.816 0 .352-.123.65-.368.896-.235.235-.539.352-.912.352zm11.649 5.728c0 .139-.01.336-.032.592h-6.704c.117.63.421 1.13.912 1.504.501.363 1.12.544 1.856.544.939 0 1.712-.31 2.32-.928l1.072 1.232c-.384.459-.87.805-1.456 1.04-.587.235-1.248.352-1.984.352-.939 0-1.765-.187-2.48-.56A4.104 4.104 0 0160.184 14c-.384-.672-.576-1.43-.576-2.272 0-.832.187-1.579.56-2.24a4.07 4.07 0 011.584-1.568c.672-.373 1.43-.56 2.272-.56.832 0 1.573.187 2.224.56.661.363 1.173.88 1.536 1.552.373.661.56 1.43.56 2.304zm-4.32-2.816c-.64 0-1.184.192-1.632.576-.437.373-.704.875-.8 1.504h4.848c-.085-.619-.347-1.12-.784-1.504-.437-.384-.981-.576-1.632-.576zm8.881 7.152c-.693 0-1.37-.09-2.032-.272-.661-.181-1.19-.41-1.584-.688l.768-1.52a5.12 5.12 0 001.376.624 6.03 6.03 0 001.6.224c1.195 0 1.792-.315 1.792-.944 0-.299-.154-.507-.464-.624-.299-.117-.784-.23-1.456-.336-.704-.107-1.28-.23-1.728-.368a2.737 2.737 0 01-1.152-.72c-.32-.352-.48-.837-.48-1.456 0-.81.336-1.456 1.008-1.936.683-.49 1.6-.736 2.752-.736.587 0 1.173.07 1.76.208.587.128 1.067.304 1.44.528l-.768 1.52c-.725-.427-1.541-.64-2.448-.64-.587 0-1.035.09-1.344.272-.298.17-.448.4-.448.688 0 .32.16.55.48.688.33.128.837.25 1.52.368.683.107 1.243.23 1.68.368.438.139.81.373 1.12.704.32.33.48.8.48 1.408 0 .8-.347 1.44-1.04 1.92-.693.48-1.637.72-2.832.72z" fill="#575757"/></svg>