<svg width="93" height="16" viewBox="0 0 93 16" fill="none" xmlns="http://www.w3.org/2000/svg"><path d="M7.67 8.268c.503.165.901.442 1.196.832.295.381.442.858.442 1.43 0 .789-.303 1.4-.91 1.833-.607.425-1.49.637-2.652.637H1.222V3.9h4.264c1.075 0 1.902.212 2.483.637.58.416.871.992.871 1.729 0 .45-.104.85-.312 1.196a2.136 2.136 0 01-.858.806zM2.912 5.226v2.509h2.392c.59 0 1.04-.104 1.352-.312.32-.217.481-.529.481-.936 0-.416-.16-.728-.481-.936-.312-.217-.763-.325-1.352-.325H2.912zm2.73 6.448c1.309 0 1.963-.438 1.963-1.313s-.654-1.313-1.963-1.313h-2.73v2.626h2.73zm5.639-8.32h1.625V13H11.28V3.354zm7.202 9.737c-.701 0-1.334-.152-1.898-.455a3.376 3.376 0 01-1.326-1.261c-.312-.546-.468-1.161-.468-1.846s.156-1.296.468-1.833c.321-.537.763-.958 1.326-1.261.564-.303 1.197-.455 1.898-.455.711 0 1.348.152 1.912.455a3.286 3.286 0 011.313 1.261c.32.537.48 1.148.48 1.833s-.16 1.3-.48 1.846c-.313.537-.75.958-1.313 1.261-.564.303-1.2.455-1.912.455zm0-1.391c.598 0 1.093-.2 1.482-.598.39-.399.585-.923.585-1.573 0-.65-.195-1.174-.585-1.573-.39-.399-.884-.598-1.482-.598s-1.091.2-1.482.598c-.38.399-.572.923-.572 1.573 0 .65.191 1.174.573 1.573.39.399.884.598 1.482.598zm8.704 1.391c-.702 0-1.334-.152-1.898-.455a3.376 3.376 0 01-1.326-1.261c-.312-.546-.468-1.161-.468-1.846s.156-1.296.468-1.833c.321-.537.763-.958 1.326-1.261.564-.303 1.196-.455 1.898-.455.711 0 1.348.152 1.911.455a3.286 3.286 0 011.313 1.261c.321.537.481 1.148.481 1.833s-.16 1.3-.48 1.846c-.313.537-.75.958-1.314 1.261-.563.303-1.2.455-1.91.455zm0-1.391c.598 0 1.092-.2 1.482-.598.39-.399.585-.923.585-1.573 0-.65-.195-1.174-.585-1.573-.39-.399-.884-.598-1.482-.598s-1.092.2-1.482.598c-.381.399-.572.923-.572 1.573 0 .65.191 1.174.572 1.573.39.399.884.598 1.482.598zM39.57 3.354V13h-1.56v-.897c-.268.33-.602.576-1 .741a3.31 3.31 0 01-1.3.247c-.668 0-1.27-.147-1.808-.442a3.2 3.2 0 01-1.248-1.248c-.303-.546-.455-1.17-.455-1.872 0-.702.152-1.322.455-1.859a3.2 3.2 0 011.248-1.248 3.695 3.695 0 011.807-.442c.46 0 .88.078 1.261.234.382.156.707.39.975.702V3.354h1.625zM35.904 11.7c.39 0 .741-.087 1.053-.26.312-.182.56-.438.741-.767.182-.33.273-.71.273-1.144 0-.433-.09-.815-.273-1.144a1.881 1.881 0 00-.74-.754 2.05 2.05 0 00-1.054-.273c-.39 0-.74.091-1.053.273a1.881 1.881 0 00-.74.754c-.183.33-.274.71-.274 1.144 0 .433.091.815.273 1.144.182.33.43.585.741.767.312.173.663.26 1.053.26zM52.05 13l-1.86-2.665a3.456 3.456 0 01-.35.013h-2.054V13h-1.69V3.9h3.744c.788 0 1.473.13 2.054.39.59.26 1.04.633 1.352 1.118.312.485.468 1.062.468 1.729 0 .685-.17 1.274-.507 1.768-.33.494-.806.862-1.43 1.105L53.869 13h-1.82zm-.04-5.863c0-.58-.19-1.027-.571-1.339-.382-.312-.94-.468-1.677-.468h-1.976v3.627h1.976c.736 0 1.295-.156 1.677-.468.381-.32.572-.771.572-1.352zM62.3 9.568c0 .113-.009.273-.026.481h-5.447c.095.511.342.919.74 1.222.408.295.91.442 1.509.442.762 0 1.39-.251 1.885-.754l.87 1.001a2.934 2.934 0 01-1.182.845 4.308 4.308 0 01-1.612.286c-.763 0-1.435-.152-2.015-.455a3.335 3.335 0 01-1.352-1.261c-.312-.546-.468-1.161-.468-1.846 0-.676.151-1.283.455-1.82.312-.546.74-.97 1.287-1.274.546-.303 1.161-.455 1.846-.455.676 0 1.278.152 1.807.455.537.295.953.715 1.248 1.261.303.537.455 1.161.455 1.872zm-3.51-2.288c-.52 0-.962.156-1.326.468-.356.303-.572.71-.65 1.222h3.939c-.07-.503-.282-.91-.637-1.222-.356-.312-.798-.468-1.326-.468zm9.244-1.3c.676 0 1.278.147 1.807.442.537.295.957.71 1.26 1.248.304.537.456 1.157.456 1.859s-.152 1.326-.455 1.872a3.177 3.177 0 01-1.261 1.248c-.53.295-1.131.442-1.807.442-.936 0-1.677-.312-2.223-.936v3.367h-1.625V6.058h1.547v.91c.268-.33.598-.576.988-.741a3.406 3.406 0 011.313-.247zm-.182 5.72c.598 0 1.087-.2 1.469-.598.39-.399.585-.923.585-1.573 0-.65-.195-1.174-.585-1.573-.382-.399-.871-.598-1.47-.598-.39 0-.74.091-1.052.273a1.881 1.881 0 00-.741.754c-.182.33-.273.71-.273 1.144 0 .433.09.815.273 1.144.182.33.429.585.74.767.313.173.664.26 1.054.26zm8.69 1.391c-.701 0-1.334-.152-1.897-.455a3.376 3.376 0 01-1.326-1.261c-.312-.546-.468-1.161-.468-1.846s.156-1.296.468-1.833c.32-.537.762-.958 1.326-1.261.563-.303 1.196-.455 1.898-.455.71 0 1.347.152 1.91.455a3.286 3.286 0 011.314 1.261c.32.537.48 1.148.48 1.833s-.16 1.3-.48 1.846c-.312.537-.75.958-1.313 1.261-.564.303-1.2.455-1.911.455zm0-1.391c.599 0 1.093-.2 1.483-.598.39-.399.585-.923.585-1.573 0-.65-.195-1.174-.585-1.573-.39-.399-.884-.598-1.482-.598s-1.092.2-1.482.598c-.382.399-.572.923-.572 1.573 0 .65.19 1.174.572 1.573.39.399.884.598 1.482.598zm7.132-4.628c.468-.728 1.29-1.092 2.47-1.092v1.547a2.064 2.064 0 00-.377-.039c-.633 0-1.127.186-1.482.559-.356.364-.533.893-.533 1.586V13h-1.625V6.058h1.547v1.014zm8.6 5.551a1.91 1.91 0 01-.702.351 3.064 3.064 0 01-.858.117c-.763 0-1.352-.2-1.768-.598-.416-.399-.624-.98-.624-1.742V7.41h-1.144v-1.3h1.144V4.524h1.625V6.11h1.859v1.3h-1.859v3.302c0 .338.082.598.247.78.165.173.403.26.715.26.364 0 .667-.095.91-.286l.455 1.157z" fill="#474747"/></svg>