<svg width="75" height="16" viewBox="0 0 75 16" fill="none" xmlns="http://www.w3.org/2000/svg"><path d="M7.67 8.268c.503.165.901.442 1.196.832.295.381.442.858.442 1.43 0 .789-.303 1.4-.91 1.833-.607.425-1.49.637-2.652.637H1.222V3.9h4.264c1.075 0 1.902.212 2.483.637.58.416.871.992.871 1.729 0 .45-.104.85-.312 1.196a2.136 2.136 0 01-.858.806zM2.912 5.226v2.509h2.392c.59 0 1.04-.104 1.352-.312.32-.217.481-.529.481-.936 0-.416-.16-.728-.481-.936-.312-.217-.763-.325-1.352-.325H2.912zm2.73 6.448c1.309 0 1.963-.438 1.963-1.313s-.654-1.313-1.963-1.313h-2.73v2.626h2.73zm7.186-4.602c.468-.728 1.291-1.092 2.47-1.092v1.547a2.062 2.062 0 00-.377-.039c-.633 0-1.127.186-1.482.559-.356.364-.533.893-.533 1.586V13H11.28V6.058h1.547v1.014zM17 6.058h1.625V13h-1.625V6.058zm.82-1.144c-.296 0-.543-.091-.742-.273a.933.933 0 01-.299-.702c0-.277.1-.507.3-.689.199-.19.446-.286.74-.286.295 0 .542.091.741.273a.84.84 0 01.3.663.99.99 0 01-.3.728c-.19.19-.438.286-.74.286zm5.408 8.177a6.216 6.216 0 01-1.651-.221c-.537-.147-.966-.334-1.287-.559l.624-1.235c.312.208.685.377 1.118.507.442.121.875.182 1.3.182.97 0 1.456-.256 1.456-.767 0-.243-.126-.412-.377-.507-.243-.095-.637-.186-1.183-.273a9.896 9.896 0 01-1.404-.299 2.222 2.222 0 01-.936-.585c-.26-.286-.39-.68-.39-1.183 0-.659.273-1.183.819-1.573.555-.399 1.3-.598 2.236-.598.477 0 .953.056 1.43.169.477.104.867.247 1.17.429l-.624 1.235c-.59-.347-1.252-.52-1.989-.52-.477 0-.84.074-1.092.221-.243.139-.364.325-.364.559 0 .26.13.446.39.559.269.104.68.204 1.235.299.555.087 1.01.186 1.365.299.355.113.659.303.91.572.26.269.39.65.39 1.144 0 .65-.282 1.17-.845 1.56-.563.39-1.33.585-2.301.585zm7.704-3.068l-1.209 1.144V13H28.1V3.354h1.625v5.824l3.367-3.12h1.95L32.142 8.97 35.314 13h-1.976l-2.405-2.977zM54.062 3.9L51.046 13h-1.794l-2.25-6.734L44.716 13h-1.807l-3.016-9.1h1.755l2.262 6.916L46.262 3.9h1.56l2.3 6.955L52.45 3.9h1.612zm3.677 2.08c1.023 0 1.803.247 2.34.741.546.485.82 1.222.82 2.21V13h-1.535v-.845c-.2.303-.485.537-.858.702-.364.156-.806.234-1.326.234s-.975-.087-1.365-.26a2.22 2.22 0 01-.91-.741 1.94 1.94 0 01-.312-1.079c0-.624.23-1.122.69-1.495.467-.381 1.2-.572 2.196-.572h1.794V8.84c0-.485-.147-.858-.442-1.118-.286-.26-.715-.39-1.287-.39-.39 0-.776.06-1.157.182-.373.121-.689.29-.949.507l-.637-1.183c.364-.277.802-.49 1.313-.637a5.842 5.842 0 011.625-.221zm-.22 5.928c.406 0 .766-.091 1.078-.273.32-.19.546-.46.676-.806v-.806h-1.677c-.936 0-1.404.308-1.404.923 0 .295.117.529.351.702.234.173.56.26.975.26zm5.79-8.554h1.625V13h-1.625V3.354zm6.916 6.669l-1.209 1.144V13h-1.625V3.354h1.625v5.824l3.367-3.12h1.95L71.434 8.97 74.606 13H72.63l-2.405-2.977z" fill="#474747"/></svg>