<svg width="43" height="20" viewBox="0 0 43 20" fill="none" xmlns="http://www.w3.org/2000/svg"><path d="M5.852 15.14c-.99 0-1.885-.215-2.688-.644a4.914 4.914 0 01-1.876-1.806C.84 11.925.616 11.061.616 10.1c0-.961.229-1.825.686-2.59a4.812 4.812 0 011.876-1.792c.803-.439 1.699-.658 2.688-.658.803 0 1.535.14 2.198.42.663.28 1.223.686 1.68 1.218L8.568 7.804c-.71-.765-1.582-1.148-2.618-1.148-.672 0-1.274.15-1.806.448-.532.29-.947.695-1.246 1.218-.299.523-.448 1.115-.448 1.778s.15 1.255.448 1.778c.299.523.714.933 1.246 1.232.532.29 1.134.434 1.806.434 1.036 0 1.909-.387 2.618-1.162l1.176 1.12A4.46 4.46 0 018.05 14.72c-.663.28-1.395.42-2.198.42zm5.468-7.616h1.75V15h-1.75V7.524zm.882-1.232c-.318 0-.584-.098-.798-.294a1.005 1.005 0 01-.322-.756c0-.299.107-.546.322-.742a1.11 1.11 0 01.798-.308c.317 0 .583.098.798.294a.904.904 0 01.322.714c0 .308-.107.57-.322.784-.206.205-.472.308-.798.308zm10.585 1.232v6.342c0 2.632-1.344 3.948-4.032 3.948-.719 0-1.4-.093-2.044-.28-.644-.177-1.176-.439-1.596-.784l.784-1.316c.326.27.737.485 1.232.644a4.798 4.798 0 001.526.252c.821 0 1.423-.187 1.806-.56.382-.373.574-.943.574-1.708v-.392a2.877 2.877 0 01-1.092.742c-.43.168-.9.252-1.414.252-.71 0-1.354-.15-1.932-.448a3.531 3.531 0 01-1.358-1.288c-.327-.55-.49-1.18-.49-1.89s.163-1.335.49-1.876a3.43 3.43 0 011.358-1.274 4.149 4.149 0 011.932-.448 3.89 3.89 0 011.47.266c.448.177.821.448 1.12.812v-.994h1.666zm-3.99 5.656c.662 0 1.204-.196 1.624-.588.43-.401.644-.92.644-1.554 0-.625-.215-1.134-.644-1.526-.42-.392-.962-.588-1.624-.588-.672 0-1.223.196-1.652.588-.42.392-.63.9-.63 1.526 0 .635.21 1.153.63 1.554.43.392.98.588 1.652.588zm10.532-5.74c.943 0 1.7.275 2.268.826.57.55.855 1.367.855 2.45V15h-1.75v-4.06c0-.653-.155-1.143-.463-1.47-.308-.336-.746-.504-1.316-.504-.643 0-1.152.196-1.525.588-.374.383-.56.938-.56 1.666V15h-1.75V7.524h1.665v.966c.29-.345.654-.607 1.093-.784a3.93 3.93 0 011.483-.266zm8.198 0c1.102 0 1.942.266 2.52.798.588.523.882 1.316.882 2.38V15h-1.652v-.91a2.073 2.073 0 01-.924.756c-.392.168-.868.252-1.428.252-.56 0-1.05-.093-1.47-.28a2.392 2.392 0 01-.98-.798 2.09 2.09 0 01-.336-1.162c0-.672.248-1.209.742-1.61.504-.41 1.293-.616 2.366-.616h1.932v-.112c0-.523-.158-.924-.476-1.204-.308-.28-.77-.42-1.386-.42-.42 0-.835.065-1.246.196-.4.13-.742.313-1.022.546l-.686-1.274a4.248 4.248 0 011.414-.686 6.292 6.292 0 011.75-.238zm-.238 6.384c.44 0 .826-.098 1.162-.294.346-.205.588-.495.728-.868v-.868h-1.806c-1.008 0-1.512.331-1.512.994 0 .317.126.57.378.756.252.187.602.28 1.05.28z" fill="#575757"/></svg>