<svg width="143" height="32" viewBox="0 0 143 32" fill="none" xmlns="http://www.w3.org/2000/svg"><path d="M1.222 3.9H5.2c.97 0 1.833.19 2.587.572a4.13 4.13 0 011.755 1.599c.416.685.624 1.478.624 2.379s-.208 1.699-.624 2.392a4.242 4.242 0 01-1.755 1.599C7.033 12.814 6.171 13 5.2 13H1.222V3.9zm3.9 7.67c.667 0 1.252-.126 1.755-.377.511-.26.901-.624 1.17-1.092.277-.477.416-1.027.416-1.651 0-.624-.139-1.17-.416-1.638a2.646 2.646 0 00-1.17-1.092c-.503-.26-1.088-.39-1.755-.39h-2.21v6.24h2.21zm7.01-5.512h1.624V13h-1.625V6.058zm.818-1.144c-.294 0-.541-.091-.74-.273a.934.934 0 01-.3-.702c0-.277.1-.507.3-.689.199-.19.446-.286.74-.286.295 0 .542.091.741.273a.84.84 0 01.3.663.99.99 0 01-.3.728c-.19.19-.437.286-.74.286zm5.916 1.066c1.023 0 1.803.247 2.34.741.546.485.819 1.222.819 2.21V13h-1.534v-.845c-.2.303-.485.537-.858.702-.364.156-.806.234-1.326.234s-.975-.087-1.365-.26a2.22 2.22 0 01-.91-.741 1.94 1.94 0 01-.312-1.079c0-.624.23-1.122.689-1.495.468-.381 1.2-.572 2.197-.572H20.4V8.84c0-.485-.147-.858-.442-1.118-.286-.26-.715-.39-1.287-.39-.39 0-.776.06-1.157.182-.373.121-.689.29-.949.507l-.637-1.183c.364-.277.802-.49 1.313-.637a5.843 5.843 0 011.625-.221zm-.221 5.928c.407 0 .767-.091 1.079-.273.32-.19.546-.46.676-.806v-.806h-1.677c-.936 0-1.404.308-1.404.923 0 .295.117.529.351.702.234.173.559.26.975.26zm9.639-5.928c.675 0 1.278.147 1.806.442.538.295.958.71 1.262 1.248.303.537.454 1.157.454 1.859s-.151 1.326-.454 1.872a3.176 3.176 0 01-1.262 1.248c-.528.295-1.13.442-1.806.442-.477 0-.915-.082-1.313-.247a2.525 2.525 0 01-.988-.741V13h-1.547V3.354h1.625v3.549c.277-.303.602-.533.974-.689a3.265 3.265 0 011.248-.234zm-.182 5.72c.598 0 1.087-.2 1.468-.598.39-.399.585-.923.585-1.573 0-.65-.195-1.174-.585-1.573-.38-.399-.87-.598-1.468-.598-.39 0-.742.091-1.053.273a1.881 1.881 0 00-.741.754c-.183.33-.273.71-.273 1.144 0 .433.09.815.273 1.144.181.33.428.585.74.767.313.173.664.26 1.054.26zm12.097-2.132c0 .113-.009.273-.026.481h-5.447c.095.511.342.919.74 1.222.408.295.91.442 1.509.442.762 0 1.39-.251 1.885-.754l.87 1.001a2.934 2.934 0 01-1.182.845 4.308 4.308 0 01-1.612.286c-.763 0-1.435-.152-2.015-.455a3.335 3.335 0 01-1.352-1.261c-.312-.546-.468-1.161-.468-1.846 0-.676.151-1.283.455-1.82.312-.546.74-.97 1.287-1.274.546-.303 1.161-.455 1.846-.455.676 0 1.278.152 1.807.455.537.295.953.715 1.248 1.261.303.537.455 1.161.455 1.872zm-3.51-2.288c-.52 0-.962.156-1.326.468-.356.303-.572.71-.65 1.222h3.939c-.07-.503-.282-.91-.637-1.222-.356-.312-.798-.468-1.326-.468zm9.569 5.343a1.91 1.91 0 01-.702.351 3.064 3.064 0 01-.858.117c-.763 0-1.352-.2-1.768-.598-.416-.399-.624-.98-.624-1.742V7.41h-1.144v-1.3h1.144V4.524h1.625V6.11h1.859v1.3h-1.86v3.302c0 .338.083.598.248.78.164.173.403.26.715.26.364 0 .667-.095.91-.286l.455 1.157zm7.959-3.055c0 .113-.009.273-.026.481h-5.447c.095.511.342.919.74 1.222.408.295.91.442 1.509.442.762 0 1.39-.251 1.885-.754l.87 1.001a2.934 2.934 0 01-1.182.845 4.308 4.308 0 01-1.612.286c-.763 0-1.434-.152-2.015-.455a3.335 3.335 0 01-1.352-1.261c-.312-.546-.468-1.161-.468-1.846 0-.676.151-1.283.455-1.82.312-.546.74-.97 1.287-1.274.546-.303 1.161-.455 1.846-.455.676 0 1.278.152 1.807.455a3.07 3.07 0 011.248 1.261c.303.537.455 1.161.455 1.872zm-3.51-2.288c-.52 0-.962.156-1.326.468-.355.303-.572.71-.65 1.222h3.939c-.07-.503-.282-.91-.637-1.222-.355-.312-.797-.468-1.326-.468zm7.54 5.811a6.217 6.217 0 01-1.65-.221c-.538-.147-.967-.334-1.287-.559l.624-1.235a4.16 4.16 0 001.118.507 4.9 4.9 0 001.3.182c.97 0 1.456-.256 1.456-.767 0-.243-.126-.412-.377-.507-.243-.095-.637-.186-1.183-.273a9.896 9.896 0 01-1.404-.299 2.224 2.224 0 01-.936-.585c-.26-.286-.39-.68-.39-1.183 0-.659.273-1.183.819-1.573.554-.399 1.3-.598 2.236-.598.476 0 .953.056 1.43.169.476.104.866.247 1.17.429l-.624 1.235c-.59-.347-1.253-.52-1.99-.52-.476 0-.84.074-1.091.221-.243.139-.364.325-.364.559 0 .26.13.446.39.559.268.104.68.204 1.235.299.554.087 1.01.186 1.365.299.355.113.658.303.91.572.26.269.39.65.39 1.144 0 .65-.282 1.17-.845 1.56-.564.39-1.33.585-2.301.585zM67.193 3.9h1.69v7.67h4.758V13h-6.448V3.9zm10.667 2.08c1.022 0 1.802.247 2.34.741.546.485.819 1.222.819 2.21V13h-1.534v-.845c-.2.303-.486.537-.858.702-.364.156-.806.234-1.326.234s-.975-.087-1.365-.26a2.22 2.22 0 01-.91-.741 1.94 1.94 0 01-.312-1.079c0-.624.23-1.122.689-1.495.468-.381 1.2-.572 2.197-.572h1.794V8.84c0-.485-.148-.858-.442-1.118-.286-.26-.715-.39-1.287-.39-.39 0-.776.06-1.157.182-.373.121-.69.29-.95.507l-.636-1.183c.364-.277.801-.49 1.313-.637a5.843 5.843 0 011.625-.221zm-.221 5.928c.407 0 .767-.091 1.079-.273.32-.19.546-.46.676-.806v-.806h-1.677c-.936 0-1.404.308-1.404.923 0 .295.117.529.35.702.235.173.56.26.976.26zm9.638-5.928c.676 0 1.278.147 1.807.442.537.295.958.71 1.261 1.248.303.537.455 1.157.455 1.859s-.152 1.326-.455 1.872a3.176 3.176 0 01-1.26 1.248c-.53.295-1.132.442-1.808.442-.477 0-.914-.082-1.313-.247a2.525 2.525 0 01-.988-.741V13h-1.547V3.354h1.625v3.549c.277-.303.602-.533.975-.689a3.265 3.265 0 011.248-.234zm-.182 5.72c.598 0 1.088-.2 1.47-.598.39-.399.584-.923.584-1.573 0-.65-.195-1.174-.585-1.573-.381-.399-.87-.598-1.469-.598-.39 0-.74.091-1.053.273a1.881 1.881 0 00-.74.754c-.183.33-.274.71-.274 1.144 0 .433.091.815.273 1.144.182.33.43.585.741.767.312.173.663.26 1.053.26zM7.176 29l-1.859-2.665a3.456 3.456 0 01-.351.013H2.912V29h-1.69v-9.1h3.744c.789 0 1.473.13 2.054.39.59.26 1.04.633 1.352 1.118.312.485.468 1.062.468 1.729 0 .685-.169 1.274-.507 1.768-.33.494-.806.862-1.43 1.105L8.996 29h-1.82zm-.039-5.863c0-.58-.19-1.027-.572-1.339-.381-.312-.94-.468-1.677-.468H2.912v3.627h1.976c.737 0 1.296-.156 1.677-.468.381-.32.572-.771.572-1.352zm10.289 2.431c0 .113-.009.273-.026.481h-5.447c.095.511.342.919.74 1.222.408.295.91.442 1.509.442.762 0 1.39-.251 1.885-.754l.87 1.001a2.934 2.934 0 01-1.182.845 4.308 4.308 0 01-1.612.286c-.763 0-1.434-.152-2.015-.455a3.335 3.335 0 01-1.352-1.261c-.312-.546-.468-1.161-.468-1.846 0-.676.152-1.283.455-1.82.312-.546.74-.97 1.287-1.274.546-.303 1.161-.455 1.846-.455.676 0 1.278.152 1.807.455a3.07 3.07 0 011.248 1.261c.303.537.455 1.161.455 1.872zm-3.51-2.288c-.52 0-.962.156-1.326.468-.355.303-.572.71-.65 1.222h3.939c-.07-.503-.282-.91-.637-1.222-.356-.312-.798-.468-1.326-.468zm9.244-1.3c.676 0 1.278.147 1.807.442.537.295.957.71 1.26 1.248.304.537.456 1.157.456 1.859s-.152 1.326-.455 1.872a3.176 3.176 0 01-1.261 1.248c-.529.295-1.131.442-1.807.442-.936 0-1.677-.312-2.223-.936v3.367h-1.625v-9.464h1.547v.91c.268-.33.598-.576.988-.741a3.406 3.406 0 011.313-.247zm-.182 5.72c.598 0 1.087-.2 1.469-.598.39-.399.585-.923.585-1.573 0-.65-.195-1.174-.585-1.573-.382-.399-.871-.598-1.47-.598-.39 0-.74.091-1.052.273a1.881 1.881 0 00-.741.754c-.182.33-.273.71-.273 1.144 0 .433.09.815.273 1.144.182.33.429.585.74.767.313.173.664.26 1.054.26zm8.69 1.391c-.701 0-1.334-.152-1.897-.455a3.377 3.377 0 01-1.326-1.261c-.312-.546-.468-1.161-.468-1.846s.156-1.296.468-1.833c.32-.537.762-.958 1.326-1.261.563-.303 1.196-.455 1.898-.455.71 0 1.348.152 1.91.455a3.286 3.286 0 011.314 1.261c.32.537.48 1.148.48 1.833s-.16 1.3-.48 1.846c-.312.537-.75.958-1.313 1.261-.563.303-1.2.455-1.911.455zm0-1.391c.599 0 1.093-.2 1.483-.598.39-.399.585-.923.585-1.573 0-.65-.195-1.174-.585-1.573-.39-.399-.884-.598-1.482-.598s-1.092.2-1.482.598c-.382.399-.572.923-.572 1.573 0 .65.19 1.174.572 1.573.39.399.884.598 1.482.598zm7.132-4.628c.468-.728 1.291-1.092 2.47-1.092v1.547a2.062 2.062 0 00-.377-.039c-.633 0-1.127.186-1.482.559-.356.364-.533.893-.533 1.586V29h-1.625v-6.942H38.8v1.014zm8.6 5.551c-.19.156-.425.273-.702.351a3.063 3.063 0 01-.858.117c-.763 0-1.352-.2-1.768-.598-.416-.399-.624-.98-.624-1.742V23.41h-1.144v-1.3h1.144v-1.586h1.625v1.586h1.86v1.3h-1.86v3.302c0 .338.083.598.247.78.165.173.403.26.715.26.364 0 .668-.095.91-.286l.455 1.157z" fill="#474747"/></svg>