<svg width="108" height="20" viewBox="0 0 108 20" fill="none" xmlns="http://www.w3.org/2000/svg"><path d="M1.316 5.2H5.6c1.045 0 1.974.205 2.786.616a4.448 4.448 0 011.89 1.722c.448.737.672 1.591.672 2.562 0 .97-.224 1.83-.672 2.576-.448.737-1.078 1.311-1.89 1.722-.812.401-1.74.602-2.786.602H1.316V5.2zm4.2 8.26c.719 0 1.349-.135 1.89-.406.55-.28.97-.672 1.26-1.176.299-.513.448-1.106.448-1.778 0-.672-.15-1.26-.448-1.764a2.85 2.85 0 00-1.26-1.176c-.541-.28-1.171-.42-1.89-.42h-2.38v6.72h2.38zm10.558 1.638c-.756 0-1.437-.163-2.044-.49a3.636 3.636 0 01-1.428-1.358c-.336-.588-.504-1.25-.504-1.988 0-.737.168-1.395.504-1.974A3.636 3.636 0 0114.03 7.93c.607-.327 1.288-.49 2.044-.49.766 0 1.452.163 2.058.49.607.327 1.078.78 1.414 1.358.346.579.518 1.237.518 1.974 0 .737-.172 1.4-.518 1.988a3.539 3.539 0 01-1.414 1.358c-.606.327-1.292.49-2.058.49zm0-1.498c.644 0 1.176-.215 1.596-.644.42-.43.63-.994.63-1.694s-.21-1.265-.63-1.694c-.42-.43-.952-.644-1.596-.644-.644 0-1.176.215-1.596.644-.41.43-.616.994-.616 1.694s.206 1.265.616 1.694c.42.43.952.644 1.596.644zm12.902-6.076V15H27.31v-.952c-.28.336-.63.597-1.05.784-.42.177-.873.266-1.358.266-.999 0-1.788-.275-2.366-.826-.57-.56-.854-1.386-.854-2.478v-4.27h1.75v4.032c0 .672.15 1.176.448 1.512.308.327.742.49 1.302.49.625 0 1.12-.191 1.484-.574.373-.392.56-.952.56-1.68v-3.78h1.75zm9.711 0v6.342c0 2.632-1.344 3.948-4.032 3.948-.718 0-1.4-.093-2.044-.28-.644-.177-1.176-.439-1.596-.784l.784-1.316c.327.27.737.485 1.232.644a4.798 4.798 0 001.526.252c.822 0 1.423-.187 1.806-.56.383-.373.574-.943.574-1.708v-.392a2.875 2.875 0 01-1.092.742c-.43.168-.9.252-1.414.252a4.15 4.15 0 01-1.932-.448 3.532 3.532 0 01-1.358-1.288c-.326-.55-.49-1.18-.49-1.89s.163-1.335.49-1.876A3.43 3.43 0 0132.5 7.888a4.15 4.15 0 011.932-.448 3.89 3.89 0 011.47.266c.448.177.821.448 1.12.812v-.994h1.666zm-3.99 5.656c.663 0 1.204-.196 1.624-.588.43-.401.644-.92.644-1.554 0-.625-.215-1.134-.644-1.526-.42-.392-.961-.588-1.624-.588-.672 0-1.223.196-1.652.588-.42.392-.63.9-.63 1.526 0 .635.21 1.153.63 1.554.43.392.98.588 1.652.588zm6.29-8.568h1.75V15h-1.75V4.612zm6.904 2.828c1.101 0 1.941.266 2.52.798.588.523.882 1.316.882 2.38V15H49.64v-.91a2.073 2.073 0 01-.924.756c-.392.168-.868.252-1.428.252-.56 0-1.05-.093-1.47-.28a2.392 2.392 0 01-.98-.798 2.09 2.09 0 01-.336-1.162c0-.672.247-1.209.742-1.61.504-.41 1.292-.616 2.366-.616h1.932v-.112c0-.523-.159-.924-.476-1.204-.308-.28-.77-.42-1.386-.42-.42 0-.836.065-1.246.196-.402.13-.742.313-1.022.546l-.686-1.274a4.248 4.248 0 011.414-.686 6.292 6.292 0 011.75-.238zm-.238 6.384c.438 0 .826-.098 1.162-.294.345-.205.588-.495.728-.868v-.868h-1.806c-1.008 0-1.512.331-1.512.994 0 .317.126.57.378.756.252.187.602.28 1.05.28zm8.196 1.274c-.607 0-1.2-.08-1.778-.238-.579-.159-1.041-.36-1.386-.602l.672-1.33a4.48 4.48 0 001.204.546c.476.13.942.196 1.4.196 1.045 0 1.568-.275 1.568-.826 0-.261-.136-.443-.406-.546-.262-.103-.686-.2-1.274-.294-.616-.093-1.12-.2-1.512-.322a2.394 2.394 0 01-1.008-.63c-.28-.308-.42-.733-.42-1.274 0-.71.294-1.274.882-1.694.597-.43 1.4-.644 2.408-.644.513 0 1.026.06 1.54.182.513.112.933.266 1.26.462l-.672 1.33c-.635-.373-1.349-.56-2.142-.56-.514 0-.906.08-1.176.238-.262.15-.392.35-.392.602 0 .28.14.48.42.602.289.112.732.22 1.33.322.597.093 1.087.2 1.47.322.382.121.709.327.98.616.28.29.42.7.42 1.232 0 .7-.304 1.26-.91 1.68-.607.42-1.433.63-2.478.63zM79.103 5.2L75.855 15h-1.932L71.5 7.748 69.037 15H67.09l-3.248-9.8h1.89l2.436 7.448L70.703 5.2h1.68l2.478 7.49 2.506-7.49h1.736zm4.114 9.898c-.756 0-1.437-.163-2.044-.49a3.636 3.636 0 01-1.428-1.358c-.336-.588-.504-1.25-.504-1.988 0-.737.168-1.395.504-1.974a3.636 3.636 0 011.428-1.358c.607-.327 1.288-.49 2.044-.49.765 0 1.451.163 2.058.49.607.327 1.078.78 1.414 1.358.345.579.518 1.237.518 1.974 0 .737-.173 1.4-.518 1.988a3.539 3.539 0 01-1.414 1.358c-.607.327-1.293.49-2.058.49zm0-1.498c.644 0 1.176-.215 1.596-.644.42-.43.63-.994.63-1.694s-.21-1.265-.63-1.694c-.42-.43-.952-.644-1.596-.644-.644 0-1.176.215-1.596.644-.41.43-.616.994-.616 1.694s.205 1.265.616 1.694c.42.43.952.644 1.596.644zm9.905-6.16c.943 0 1.7.275 2.268.826.57.55.854 1.367.854 2.45V15h-1.75v-4.06c0-.653-.154-1.143-.462-1.47-.308-.336-.746-.504-1.316-.504-.644 0-1.152.196-1.526.588-.373.383-.56.938-.56 1.666V15h-1.75V7.524h1.666v.966c.29-.345.654-.607 1.092-.784a3.93 3.93 0 011.484-.266zm12.831.084v6.342c0 2.632-1.344 3.948-4.032 3.948-.719 0-1.4-.093-2.044-.28-.644-.177-1.176-.439-1.596-.784l.784-1.316c.326.27.737.485 1.232.644a4.795 4.795 0 001.526.252c.821 0 1.423-.187 1.806-.56.382-.373.574-.943.574-1.708v-.392a2.882 2.882 0 01-1.092.742c-.43.168-.901.252-1.414.252-.71 0-1.354-.15-1.932-.448a3.531 3.531 0 01-1.358-1.288c-.327-.55-.49-1.18-.49-1.89s.163-1.335.49-1.876a3.43 3.43 0 011.358-1.274 4.147 4.147 0 011.932-.448c.541 0 1.031.089 1.47.266.448.177.821.448 1.12.812v-.994h1.666zm-3.99 5.656c.662 0 1.204-.196 1.624-.588.429-.401.644-.92.644-1.554 0-.625-.215-1.134-.644-1.526-.42-.392-.962-.588-1.624-.588-.672 0-1.223.196-1.652.588-.42.392-.63.9-.63 1.526 0 .635.21 1.153.63 1.554.429.392.98.588 1.652.588z" fill="#575757"/></svg>