<svg width="24" height="24" viewBox="0 0 24 24" fill="none" xmlns="http://www.w3.org/2000/svg"><circle cx="12" cy="12" r="12" fill="#DF4430"/><path fill-rule="evenodd" clip-rule="evenodd" d="M11.475 9.45c.075 0 .075 0 0 0 .075-.3.15-.45.15-.675v-.15c.075-.375.075-.675 0-.75V7.8l-.075-.075s0 .075-.075.075c-.15.45-.15.975 0 1.65zm-2.25 5.175c-.15.075-.3.15-.375.225-.525.45-.9.975-.975 1.2.45-.075.9-.525 1.35-1.425.075 0 .075 0 0 0 0 0 .075 0 0 0zm6.9-1.125c-.075-.075-.375-.3-1.425-.3h-.15v.075c.525.225 1.05.375 1.425.375H16.2v-.075s-.075 0-.075-.075zm1.125-8.25H6.75c-.825 0-1.5.675-1.5 1.5v10.5c0 .825.675 1.5 1.5 1.5h10.5c.825 0 1.5-.675 1.5-1.5V6.75c0-.825-.675-1.5-1.5-1.5zm-.825 8.85c-.15.075-.375.15-.675.15-.6 0-1.5-.15-2.25-.525-1.275.15-2.25.3-3 .6-.075 0-.075 0-.15.075-.9 1.575-1.65 2.325-2.25 2.325-.15 0-.225 0-.3-.075l-.375-.225v-.075c-.075-.15-.075-.225-.075-.375.075-.375.525-1.05 1.425-1.575.15-.075.375-.225.675-.375.225-.375.45-.825.75-1.35.375-.75.6-1.5.825-2.175-.3-.9-.45-1.425-.15-2.475.075-.3.3-.6.6-.6h.15c.15 0 .3.075.45.15.525.525.3 1.725 0 2.7v.075c.3.825.75 1.5 1.2 1.95.225.15.375.3.675.45.375 0 .675-.075.975-.075.9 0 1.5.15 1.725.525.075.15.075.3.075.45-.075.075-.15.3-.3.45zm-4.875-2.925c-.15.525-.45 1.125-.75 1.8-.15.3-.3.525-.45.825h.15c.975-.375 1.875-.6 2.475-.675-.15-.075-.225-.15-.3-.225-.375-.45-.825-1.05-1.125-1.725z" fill="#fff"/></svg>