<svg width="159" height="30" viewBox="0 0 159 30" fill="none" xmlns="http://www.w3.org/2000/svg"><g clip-path="url(#clip0)"><rect x=".5" y=".5" width="158" height="29" rx="2.5" fill="#fff" stroke="#3498DB"/><path d="M19.176 20l-1.859-2.665a3.456 3.456 0 01-.351.013h-2.054V20h-1.69v-9.1h3.744c.789 0 1.473.13 2.054.39.59.26 1.04.633 1.352 1.118.312.485.468 1.062.468 1.729 0 .685-.169 1.274-.507 1.768-.33.494-.806.862-1.43 1.105L20.996 20h-1.82zm-.039-5.863c0-.58-.19-1.027-.572-1.339-.381-.312-.94-.468-1.677-.468h-1.976v3.627h1.976c.737 0 1.296-.156 1.677-.468.381-.32.572-.771.572-1.352zm10.364 2.431c0 .113-.009.273-.026.481h-5.447c.095.511.342.919.74 1.222.408.295.91.442 1.509.442.762 0 1.39-.251 1.885-.754l.87 1.001a2.934 2.934 0 01-1.182.845 4.308 4.308 0 01-1.612.286c-.763 0-1.434-.152-2.015-.455a3.335 3.335 0 01-1.352-1.261c-.312-.546-.468-1.161-.468-1.846 0-.676.152-1.283.455-1.82.312-.546.74-.97 1.287-1.274.546-.303 1.161-.455 1.846-.455.676 0 1.278.152 1.807.455a3.07 3.07 0 011.248 1.261c.303.537.455 1.161.455 1.872zm-3.51-2.288c-.52 0-.962.156-1.326.468-.355.303-.572.71-.65 1.222h3.939c-.07-.503-.282-.91-.637-1.222-.355-.312-.797-.468-1.326-.468zm9.319-1.3c.676 0 1.278.147 1.807.442.537.295.957.71 1.26 1.248.304.537.456 1.157.456 1.859s-.152 1.326-.455 1.872a3.176 3.176 0 01-1.261 1.248c-.529.295-1.131.442-1.807.442-.936 0-1.677-.312-2.223-.936v3.367h-1.625v-9.464h1.547v.91c.268-.33.598-.576.988-.741a3.406 3.406 0 011.313-.247zm-.182 5.72c.598 0 1.087-.2 1.469-.598.39-.399.585-.923.585-1.573 0-.65-.195-1.174-.585-1.573-.382-.399-.871-.598-1.47-.598-.39 0-.74.091-1.052.273a1.881 1.881 0 00-.741.754c-.182.33-.273.71-.273 1.144 0 .433.09.815.273 1.144.182.33.429.585.74.767.313.173.664.26 1.054.26zm8.766 1.391c-.702 0-1.335-.152-1.898-.455a3.377 3.377 0 01-1.326-1.261c-.312-.546-.468-1.161-.468-1.846s.156-1.296.468-1.833c.32-.537.762-.958 1.326-1.261.563-.303 1.196-.455 1.898-.455.71 0 1.348.152 1.91.455a3.286 3.286 0 011.314 1.261c.32.537.48 1.148.48 1.833s-.16 1.3-.48 1.846c-.312.537-.75.958-1.313 1.261-.563.303-1.2.455-1.911.455zm0-1.391c.598 0 1.092-.2 1.482-.598.39-.399.585-.923.585-1.573 0-.65-.195-1.174-.585-1.573-.39-.399-.884-.598-1.482-.598s-1.092.2-1.482.598c-.381.399-.572.923-.572 1.573 0 .65.19 1.174.572 1.573.39.399.884.598 1.482.598zm7.206-4.628c.468-.728 1.291-1.092 2.47-1.092v1.547a2.062 2.062 0 00-.377-.039c-.633 0-1.127.186-1.482.559-.356.364-.533.893-.533 1.586V20h-1.625v-6.942H51.1v1.014zm8.675 5.551c-.19.156-.425.273-.702.351a3.063 3.063 0 01-.858.117c-.763 0-1.352-.2-1.768-.598-.416-.399-.624-.98-.624-1.742V14.41H54.68v-1.3h1.144v-1.586h1.625v1.586h1.86v1.3h-1.86v3.302c0 .338.083.598.247.78.165.173.403.26.715.26.364 0 .668-.095.91-.286l.455 1.157zm11.788-1.729h-4.55L66.116 20h-1.742l4.095-9.1h1.664L74.24 20h-1.768l-.91-2.106zm-.56-1.326l-1.715-3.978-1.703 3.978h3.419zm11.374-6.214V20h-1.56v-.897c-.268.33-.602.576-1 .741a3.31 3.31 0 01-1.3.247c-.668 0-1.27-.147-1.807-.442a3.2 3.2 0 01-1.248-1.248c-.304-.546-.456-1.17-.456-1.872 0-.702.152-1.322.456-1.859a3.2 3.2 0 011.248-1.248 3.695 3.695 0 011.806-.442c.46 0 .88.078 1.261.234.382.156.707.39.975.702v-3.562h1.626zM78.712 18.7c.39 0 .74-.087 1.052-.26.313-.182.56-.438.742-.767.181-.33.272-.71.272-1.144 0-.433-.09-.815-.273-1.144a1.881 1.881 0 00-.74-.754 2.05 2.05 0 00-1.053-.273c-.39 0-.742.091-1.053.273a1.881 1.881 0 00-.742.754c-.181.33-.273.71-.273 1.144 0 .433.091.815.273 1.144.183.33.43.585.742.767.311.173.662.26 1.052.26zm12.691-5.642L88.426 20H86.75l-2.977-6.942h1.69l2.158 5.148 2.223-5.148h1.56zm7.751 3.51c0 .113-.008.273-.025.481H93.68c.096.511.343.919.742 1.222.407.295.91.442 1.507.442.763 0 1.391-.251 1.885-.754l.871 1.001a2.934 2.934 0 01-1.183.845 4.308 4.308 0 01-1.612.286c-.762 0-1.434-.152-2.015-.455a3.335 3.335 0 01-1.352-1.261c-.311-.546-.468-1.161-.468-1.846 0-.676.152-1.283.456-1.82.311-.546.74-.97 1.287-1.274.545-.303 1.16-.455 1.845-.455.676 0 1.279.152 1.807.455a3.07 3.07 0 011.249 1.261c.303.537.454 1.161.454 1.872zm-3.51-2.288c-.52 0-.962.156-1.326.468-.355.303-.572.71-.65 1.222h3.94c-.07-.503-.282-.91-.638-1.222-.355-.312-.797-.468-1.326-.468zm7.018-.208c.468-.728 1.292-1.092 2.47-1.092v1.547a2.054 2.054 0 00-.377-.039c-.632 0-1.126.186-1.482.559-.355.364-.533.893-.533 1.586V20h-1.625v-6.942h1.547v1.014zm6.419 6.019a6.222 6.222 0 01-1.651-.221c-.537-.147-.966-.334-1.287-.559l.624-1.235c.312.208.685.377 1.118.507.442.121.876.182 1.3.182.971 0 1.456-.256 1.456-.767 0-.243-.125-.412-.377-.507-.242-.095-.637-.186-1.183-.273a9.896 9.896 0 01-1.404-.299 2.228 2.228 0 01-.936-.585c-.26-.286-.39-.68-.39-1.183 0-.659.273-1.183.819-1.573.555-.399 1.3-.598 2.236-.598.477 0 .954.056 1.43.169.477.104.867.247 1.17.429l-.624 1.235c-.589-.347-1.252-.52-1.989-.52-.476 0-.84.074-1.092.221-.242.139-.364.325-.364.559 0 .26.13.446.39.559.269.104.681.204 1.235.299.555.087 1.01.186 1.365.299.356.113.659.303.91.572.26.269.39.65.39 1.144 0 .65-.281 1.17-.845 1.56-.563.39-1.33.585-2.301.585zm11.472-3.523c0 .113-.009.273-.026.481h-5.447c.095.511.342.919.741 1.222.407.295.91.442 1.508.442.762 0 1.391-.251 1.885-.754l.871 1.001a2.94 2.94 0 01-1.183.845 4.31 4.31 0 01-1.612.286c-.763 0-1.435-.152-2.015-.455a3.328 3.328 0 01-1.352-1.261c-.312-.546-.468-1.161-.468-1.846 0-.676.151-1.283.455-1.82.312-.546.741-.97 1.287-1.274.546-.303 1.161-.455 1.846-.455.676 0 1.278.152 1.807.455.537.295.953.715 1.248 1.261.303.537.455 1.161.455 1.872zm-3.51-2.288c-.52 0-.962.156-1.326.468-.356.303-.572.71-.65 1.222h3.939c-.07-.503-.282-.91-.637-1.222-.356-.312-.798-.468-1.326-.468zm16.444 4.303V20h-6.825v-9.1h6.643v1.417h-4.953v2.366h4.394v1.391h-4.394v2.509h5.135zm4.949-7.007c-.684 0-1.027.373-1.027 1.118v.416h1.911v1.3h-1.859V20h-1.625v-5.59h-1.144v-1.3h1.144v-.442c0-.745.217-1.33.65-1.755.434-.433 1.045-.65 1.833-.65.624 0 1.114.126 1.469.377l-.455 1.222a1.551 1.551 0 00-.897-.286zm5.199 0c-.684 0-1.027.373-1.027 1.118v.416h1.911v1.3h-1.859V20h-1.625v-5.59h-1.144v-1.3h1.144v-.442c0-.745.217-1.33.65-1.755.434-.433 1.045-.65 1.833-.65.624 0 1.114.126 1.469.377l-.455 1.222a1.551 1.551 0 00-.897-.286zm8.803 4.992c0 .113-.009.273-.026.481h-5.447c.095.511.342.919.741 1.222.407.295.91.442 1.508.442.762 0 1.391-.251 1.885-.754l.871 1.001a2.94 2.94 0 01-1.183.845 4.31 4.31 0 01-1.612.286c-.763 0-1.435-.152-2.015-.455a3.328 3.328 0 01-1.352-1.261c-.312-.546-.468-1.161-.468-1.846 0-.676.151-1.283.455-1.82.312-.546.741-.97 1.287-1.274.546-.303 1.161-.455 1.846-.455.676 0 1.278.152 1.807.455.537.295.953.715 1.248 1.261.303.537.455 1.161.455 1.872zm-3.51-2.288c-.52 0-.962.156-1.326.468-.356.303-.572.71-.65 1.222h3.939c-.07-.503-.282-.91-.637-1.222-.356-.312-.798-.468-1.326-.468zm8.655 5.811c-.719 0-1.365-.152-1.937-.455a3.357 3.357 0 01-1.339-1.261 3.583 3.583 0 01-.481-1.846c0-.685.161-1.296.481-1.833a3.381 3.381 0 011.326-1.261c.572-.303 1.222-.455 1.95-.455.685 0 1.283.139 1.794.416.52.277.91.676 1.17 1.196l-1.248.728a1.912 1.912 0 00-.754-.715 1.96 1.96 0 00-.975-.247c-.606 0-1.109.2-1.508.598-.398.39-.598.914-.598 1.573 0 .659.195 1.187.585 1.586.399.39.906.585 1.521.585.356 0 .681-.078.975-.234.304-.165.555-.407.754-.728l1.248.728c-.268.52-.663.923-1.183 1.209-.511.277-1.105.416-1.781.416zm9.031-.468a1.915 1.915 0 01-.702.351 3.067 3.067 0 01-.858.117c-.763 0-1.352-.2-1.768-.598-.416-.399-.624-.98-.624-1.742V14.41h-1.144v-1.3h1.144v-1.586h1.625v1.586h1.859v1.3h-1.859v3.302c0 .338.082.598.247.78.165.173.403.26.715.26.364 0 .667-.095.91-.286l.455 1.157z" fill="#3498DB"/></g><defs><clipPath id="clip0"><path fill="#fff" d="M0 0h159v30H0z"/></clipPath></defs></svg>