<svg width="57" height="22" viewBox="0 0 57 22" fill="none" xmlns="http://www.w3.org/2000/svg"><path d="M12.888 4.4V17h-2.34v-5.4H4.032V17h-2.34V4.4h2.34v5.202h6.516V4.4h2.34zm7.48 12.726c-.972 0-1.848-.21-2.628-.63a4.676 4.676 0 01-1.836-1.746c-.432-.756-.648-1.608-.648-2.556s.216-1.794.648-2.538A4.676 4.676 0 0117.74 7.91c.78-.42 1.656-.63 2.628-.63.984 0 1.866.21 2.646.63a4.55 4.55 0 011.818 1.746c.444.744.666 1.59.666 2.538 0 .948-.222 1.8-.666 2.556a4.55 4.55 0 01-1.818 1.746c-.78.42-1.662.63-2.646.63zm0-1.926c.828 0 1.512-.276 2.052-.828.54-.552.81-1.278.81-2.178 0-.9-.27-1.626-.81-2.178s-1.224-.828-2.052-.828c-.828 0-1.512.276-2.052.828-.528.552-.792 1.278-.792 2.178 0 .9.264 1.626.792 2.178.54.552 1.224.828 2.052.828zm19.414-7.92c1.212 0 2.172.354 2.88 1.062.708.696 1.062 1.746 1.062 3.15V17h-2.25v-5.22c0-.84-.186-1.47-.558-1.89-.372-.432-.906-.648-1.602-.648-.756 0-1.362.252-1.818.756-.456.492-.684 1.2-.684 2.124V17h-2.25v-5.22c0-.84-.186-1.47-.558-1.89-.372-.432-.906-.648-1.602-.648-.768 0-1.38.246-1.836.738-.444.492-.666 1.206-.666 2.142V17h-2.25V7.388h2.142v1.224c.36-.432.81-.762 1.35-.99a4.583 4.583 0 011.8-.342c.72 0 1.356.138 1.908.414.564.264 1.008.66 1.332 1.188a3.928 3.928 0 011.53-1.17 4.88 4.88 0 012.07-.432zm15.94 4.968c0 .156-.011.378-.035.666h-7.542c.132.708.474 1.272 1.026 1.692.564.408 1.26.612 2.088.612 1.056 0 1.926-.348 2.61-1.044l1.206 1.386a4.063 4.063 0 01-1.638 1.17c-.66.264-1.404.396-2.232.396-1.056 0-1.986-.21-2.79-.63a4.617 4.617 0 01-1.872-1.746c-.432-.756-.648-1.608-.648-2.556 0-.936.21-1.776.63-2.52a4.578 4.578 0 011.782-1.764c.756-.42 1.608-.63 2.556-.63.936 0 1.77.21 2.502.63a4.25 4.25 0 011.728 1.746c.42.744.63 1.608.63 2.592zm-4.86-3.168c-.72 0-1.331.216-1.835.648-.492.42-.792.984-.9 1.692h5.454c-.096-.696-.39-1.26-.882-1.692-.492-.432-1.104-.648-1.836-.648z" fill="#3498DB"/></svg>