<svg width="164" height="16" viewBox="0 0 164 16" fill="none" xmlns="http://www.w3.org/2000/svg"><path d="M1.222 3.9h1.69v7.67H7.67V13H1.222V3.9zm11.008 9.191c-.702 0-1.335-.152-1.898-.455a3.377 3.377 0 01-1.326-1.261c-.312-.546-.468-1.161-.468-1.846s.156-1.296.468-1.833c.32-.537.762-.958 1.326-1.261.563-.303 1.196-.455 1.898-.455.71 0 1.347.152 1.91.455a3.286 3.286 0 011.314 1.261c.32.537.48 1.148.48 1.833s-.16 1.3-.48 1.846c-.312.537-.75.958-1.313 1.261-.564.303-1.2.455-1.911.455zm0-1.391c.598 0 1.092-.2 1.482-.598.39-.399.585-.923.585-1.573 0-.65-.195-1.174-.585-1.573-.39-.399-.884-.598-1.482-.598s-1.092.2-1.482.598c-.382.399-.572.923-.572 1.573 0 .65.19 1.174.572 1.573.39.399.884.598 1.482.598zm7.13-4.628c.469-.728 1.292-1.092 2.47-1.092v1.547a2.064 2.064 0 00-.376-.039c-.633 0-1.127.186-1.482.559-.356.364-.533.893-.533 1.586V13h-1.625V6.058h1.547v1.014zm10.637 2.496c0 .113-.009.273-.026.481h-5.447c.095.511.342.919.74 1.222.408.295.91.442 1.509.442.762 0 1.39-.251 1.885-.754l.87 1.001a2.934 2.934 0 01-1.182.845 4.308 4.308 0 01-1.612.286c-.763 0-1.435-.152-2.015-.455a3.335 3.335 0 01-1.352-1.261c-.312-.546-.468-1.161-.468-1.846 0-.676.151-1.283.455-1.82.312-.546.74-.97 1.287-1.274.546-.303 1.161-.455 1.846-.455.676 0 1.278.152 1.807.455a3.07 3.07 0 011.248 1.261c.303.537.455 1.161.455 1.872zm-3.51-2.288c-.52 0-.962.156-1.326.468-.356.303-.572.71-.65 1.222h3.939c-.07-.503-.282-.91-.637-1.222-.356-.312-.798-.468-1.326-.468zm14.158-1.3c.875 0 1.568.256 2.08.767.51.503.767 1.261.767 2.275V13h-1.625V9.23c0-.607-.135-1.062-.403-1.365-.27-.312-.655-.468-1.157-.468-.546 0-.984.182-1.313.546-.33.355-.494.867-.494 1.534V13h-1.625V9.23c0-.607-.135-1.062-.403-1.365-.27-.312-.655-.468-1.157-.468-.555 0-.997.178-1.326.533-.321.355-.481.871-.481 1.547V13h-1.625V6.058h1.547v.884c.26-.312.585-.55.975-.715a3.31 3.31 0 011.3-.247c.52 0 .979.1 1.378.299.407.19.728.477.962.858a2.837 2.837 0 011.105-.845c.45-.208.949-.312 1.495-.312zm9.166.078h1.625V13H49.81V6.058zm.819-1.144c-.295 0-.542-.091-.741-.273a.934.934 0 01-.3-.702c0-.277.1-.507.3-.689.2-.19.446-.286.74-.286.296 0 .543.091.742.273a.84.84 0 01.299.663.99.99 0 01-.3.728c-.19.19-.437.286-.74.286zm7.112 1.066c.676 0 1.278.147 1.807.442.537.295.957.71 1.26 1.248.304.537.456 1.157.456 1.859s-.152 1.326-.455 1.872a3.176 3.176 0 01-1.261 1.248c-.529.295-1.131.442-1.807.442-.936 0-1.677-.312-2.223-.936v3.367h-1.625V6.058h1.547v.91c.268-.33.598-.576.988-.741a3.407 3.407 0 011.313-.247zm-.182 5.72c.598 0 1.087-.2 1.469-.598.39-.399.585-.923.585-1.573 0-.65-.195-1.174-.585-1.573-.382-.399-.871-.598-1.47-.598-.39 0-.74.091-1.052.273a1.881 1.881 0 00-.741.754c-.182.33-.273.71-.273 1.144 0 .433.09.815.273 1.144.182.33.429.585.74.767.313.173.664.26 1.054.26zm7.716 1.391a6.217 6.217 0 01-1.651-.221c-.538-.147-.967-.334-1.287-.559l.624-1.235a4.16 4.16 0 001.118.507 4.9 4.9 0 001.3.182c.97 0 1.456-.256 1.456-.767 0-.243-.126-.412-.377-.507-.243-.095-.637-.186-1.183-.273a9.896 9.896 0 01-1.404-.299 2.224 2.224 0 01-.936-.585c-.26-.286-.39-.68-.39-1.183 0-.659.273-1.183.819-1.573.554-.399 1.3-.598 2.236-.598.477 0 .953.056 1.43.169.476.104.866.247 1.17.429l-.624 1.235c-.59-.347-1.252-.52-1.99-.52-.476 0-.84.074-1.091.221-.243.139-.364.325-.364.559 0 .26.13.446.39.559.268.104.68.204 1.235.299.554.087 1.01.186 1.365.299.355.113.659.303.91.572.26.269.39.65.39 1.144 0 .65-.282 1.17-.845 1.56-.564.39-1.33.585-2.301.585zm11.591-7.033V13H75.32v-.884c-.26.312-.585.555-.975.728-.39.165-.81.247-1.26.247-.928 0-1.66-.256-2.198-.767-.528-.52-.793-1.287-.793-2.301V6.058h1.625v3.744c0 .624.139 1.092.416 1.404.286.303.69.455 1.21.455.58 0 1.04-.178 1.377-.533.347-.364.52-.884.52-1.56v-3.51h1.625zm11.215-.078c.875 0 1.569.256 2.08.767.511.503.767 1.261.767 2.275V13h-1.625V9.23c0-.607-.134-1.062-.403-1.365-.269-.312-.654-.468-1.157-.468-.546 0-.984.182-1.313.546-.33.355-.494.867-.494 1.534V13h-1.625V9.23c0-.607-.134-1.062-.403-1.365-.269-.312-.654-.468-1.157-.468-.555 0-.997.178-1.326.533-.32.355-.481.871-.481 1.547V13H79.32V6.058h1.547v.884c.26-.312.585-.55.975-.715a3.31 3.31 0 011.3-.247c.52 0 .98.1 1.378.299.407.19.728.477.962.858a2.837 2.837 0 011.105-.845c.45-.208.949-.312 1.495-.312zm15.965-2.626V13h-1.56v-.897c-.268.33-.602.576-1.001.741-.39.165-.823.247-1.3.247-.667 0-1.27-.147-1.807-.442a3.2 3.2 0 01-1.248-1.248c-.303-.546-.455-1.17-.455-1.872 0-.702.152-1.322.455-1.859a3.2 3.2 0 011.248-1.248 3.695 3.695 0 011.807-.442c.46 0 .88.078 1.261.234.382.156.707.39.975.702V3.354h1.625zm-3.666 8.346c.39 0 .741-.087 1.053-.26.312-.182.559-.438.741-.767.182-.33.273-.71.273-1.144 0-.433-.091-.815-.273-1.144a1.881 1.881 0 00-.741-.754 2.05 2.05 0 00-1.053-.273c-.39 0-.74.091-1.053.273a1.881 1.881 0 00-.74.754c-.183.33-.274.71-.274 1.144 0 .433.091.815.273 1.144.182.33.43.585.741.767.312.173.663.26 1.053.26zm9.237 1.391c-.702 0-1.335-.152-1.898-.455a3.381 3.381 0 01-1.326-1.261c-.312-.546-.468-1.161-.468-1.846s.156-1.296.468-1.833a3.381 3.381 0 011.326-1.261c.563-.303 1.196-.455 1.898-.455.711 0 1.348.152 1.911.455a3.288 3.288 0 011.313 1.261c.321.537.481 1.148.481 1.833s-.16 1.3-.481 1.846c-.312.537-.75.958-1.313 1.261-.563.303-1.2.455-1.911.455zm0-1.391c.598 0 1.092-.2 1.482-.598.39-.399.585-.923.585-1.573 0-.65-.195-1.174-.585-1.573-.39-.399-.884-.598-1.482-.598s-1.092.2-1.482.598c-.381.399-.572.923-.572 1.573 0 .65.191 1.174.572 1.573.39.399.884.598 1.482.598zm5.584-8.346h1.625V13h-1.625V3.354zm7.203 9.737c-.702 0-1.335-.152-1.898-.455a3.368 3.368 0 01-1.326-1.261c-.312-.546-.468-1.161-.468-1.846s.156-1.296.468-1.833c.32-.537.762-.958 1.326-1.261.563-.303 1.196-.455 1.898-.455.71 0 1.347.152 1.911.455a3.288 3.288 0 011.313 1.261c.32.537.481 1.148.481 1.833s-.161 1.3-.481 1.846c-.312.537-.75.958-1.313 1.261-.564.303-1.201.455-1.911.455zm0-1.391c.598 0 1.092-.2 1.482-.598.39-.399.585-.923.585-1.573 0-.65-.195-1.174-.585-1.573-.39-.399-.884-.598-1.482-.598s-1.092.2-1.482.598c-.382.399-.572.923-.572 1.573 0 .65.19 1.174.572 1.573.39.399.884.598 1.482.598zm7.131-4.628c.468-.728 1.291-1.092 2.47-1.092v1.547a2.072 2.072 0 00-.377-.039c-.633 0-1.127.186-1.482.559-.356.364-.533.893-.533 1.586V13h-1.625V6.058h1.547v1.014zm10.299 6.019a6.222 6.222 0 01-1.651-.221c-.537-.147-.966-.334-1.287-.559l.624-1.235c.312.208.685.377 1.118.507.442.121.876.182 1.3.182.971 0 1.456-.256 1.456-.767 0-.243-.125-.412-.377-.507-.242-.095-.637-.186-1.183-.273a9.896 9.896 0 01-1.404-.299 2.227 2.227 0 01-.936-.585c-.26-.286-.39-.68-.39-1.183 0-.659.273-1.183.819-1.573.555-.399 1.3-.598 2.236-.598.477 0 .954.056 1.43.169.477.104.867.247 1.17.429l-.624 1.235c-.589-.347-1.252-.52-1.989-.52-.476 0-.84.074-1.092.221-.242.139-.364.325-.364.559 0 .26.13.446.39.559.269.104.681.204 1.235.299.555.087 1.01.186 1.365.299.356.113.659.303.91.572.26.269.39.65.39 1.144 0 .65-.281 1.17-.845 1.56-.563.39-1.33.585-2.301.585zm4.871-7.033h1.625V13h-1.625V6.058zm.819-1.144c-.295 0-.542-.091-.741-.273a.935.935 0 01-.299-.702c0-.277.1-.507.299-.689a1.03 1.03 0 01.741-.286c.295 0 .542.091.741.273a.84.84 0 01.299.663c0 .286-.1.529-.299.728-.191.19-.438.286-.741.286zm7.437 7.709a1.915 1.915 0 01-.702.351 3.067 3.067 0 01-.858.117c-.763 0-1.352-.2-1.768-.598-.416-.399-.624-.98-.624-1.742V7.41h-1.144v-1.3h1.144V4.524h1.625V6.11h1.859v1.3h-1.859v3.302c0 .338.082.598.247.78.164.173.403.26.715.26.364 0 .667-.095.91-.286l.455 1.157zm2.308.468c-.294 0-.546-.1-.754-.299a1.058 1.058 0 01-.312-.78c0-.32.1-.58.299-.78.208-.2.464-.299.767-.299.304 0 .555.1.754.299.208.2.312.46.312.78 0 .312-.104.572-.312.78a1.05 1.05 0 01-.754.299zm3.237 0c-.294 0-.546-.1-.754-.299a1.058 1.058 0 01-.312-.78c0-.32.1-.58.299-.78.208-.2.464-.299.767-.299.304 0 .555.1.754.299.208.2.312.46.312.78 0 .312-.104.572-.312.78a1.05 1.05 0 01-.754.299zm3.25 0c-.294 0-.546-.1-.754-.299a1.058 1.058 0 01-.312-.78c0-.32.1-.58.299-.78.208-.2.464-.299.767-.299.304 0 .555.1.754.299.208.2.312.46.312.78 0 .312-.104.572-.312.78a1.05 1.05 0 01-.754.299z" fill="#474747"/></svg>