<svg width="101" height="20" viewBox="0 0 101 20" fill="none" xmlns="http://www.w3.org/2000/svg"><path d="M11.792 16l-.016-7.424-3.68 6.144h-.928l-3.68-6.048V16H1.504V4.8h1.712l4.448 7.424L12.032 4.8h1.712L13.76 16h-1.968zm12.833-4.224c0 .139-.01.336-.032.592H17.89c.118.63.422 1.13.912 1.504.502.363 1.12.544 1.856.544.939 0 1.712-.31 2.32-.928l1.072 1.232c-.384.459-.87.805-1.456 1.04s-1.248.352-1.984.352c-.938 0-1.765-.187-2.48-.56A4.103 4.103 0 0116.465 14c-.384-.672-.576-1.43-.576-2.272 0-.832.187-1.579.56-2.24a4.07 4.07 0 011.584-1.568c.672-.373 1.43-.56 2.272-.56.832 0 1.574.187 2.224.56.662.363 1.174.88 1.536 1.552.374.661.56 1.43.56 2.304zm-4.32-2.816c-.64 0-1.184.192-1.632.576-.437.373-.704.875-.8 1.504h4.848c-.085-.619-.346-1.12-.784-1.504-.437-.384-.981-.576-1.632-.576zm14.61-4.832V16h-1.92v-1.104c-.331.405-.742.71-1.233.912a4.074 4.074 0 01-1.6.304c-.821 0-1.562-.181-2.224-.544a3.938 3.938 0 01-1.536-1.536c-.373-.672-.56-1.44-.56-2.304 0-.864.187-1.627.56-2.288a3.938 3.938 0 011.536-1.536c.662-.363 1.403-.544 2.224-.544.566 0 1.083.096 1.552.288.47.192.87.48 1.2.864V4.128h2zM30.401 14.4c.48 0 .912-.107 1.296-.32.384-.224.688-.539.912-.944.224-.405.336-.875.336-1.408 0-.533-.112-1.003-.336-1.408a2.315 2.315 0 00-.912-.928 2.524 2.524 0 00-1.296-.336c-.48 0-.912.112-1.296.336a2.315 2.315 0 00-.912.928c-.224.405-.336.875-.336 1.408 0 .533.112 1.003.336 1.408.224.405.528.72.912.944.384.213.816.32 1.296.32zm7.129-6.944h2V16h-2V7.456zm1.008-1.408c-.363 0-.667-.112-.912-.336a1.149 1.149 0 01-.368-.864c0-.341.122-.624.368-.848.245-.235.55-.352.912-.352s.666.112.912.336c.245.213.368.485.368.816 0 .352-.123.65-.368.896-.235.235-.539.352-.912.352zm7.537 10.064c-.886 0-1.68-.187-2.384-.56A4.129 4.129 0 0142.044 14c-.395-.672-.592-1.43-.592-2.272 0-.843.197-1.595.592-2.256a4.155 4.155 0 011.632-1.552c.704-.373 1.504-.56 2.4-.56.842 0 1.578.17 2.208.512.64.341 1.12.832 1.44 1.472l-1.536.896a2.362 2.362 0 00-.928-.88 2.418 2.418 0 00-1.2-.304c-.747 0-1.366.245-1.856.736-.49.48-.736 1.125-.736 1.936 0 .81.24 1.461.72 1.952.49.48 1.114.72 1.872.72.437 0 .837-.096 1.2-.288.373-.203.682-.501.928-.896l1.536.896a3.499 3.499 0 01-1.456 1.488c-.63.341-1.36.512-2.192.512zm8.64-8.752c1.26 0 2.22.304 2.88.912.673.597 1.009 1.504 1.009 2.72V16h-1.888v-1.04c-.246.373-.598.661-1.056.864-.448.192-.992.288-1.632.288-.64 0-1.2-.107-1.68-.32-.48-.224-.854-.528-1.12-.912a2.388 2.388 0 01-.384-1.328c0-.768.282-1.381.848-1.84.576-.47 1.477-.704 2.704-.704h2.208v-.128c0-.597-.182-1.056-.544-1.376-.352-.32-.88-.48-1.584-.48-.48 0-.955.075-1.424.224a3.49 3.49 0 00-1.168.624L51.1 8.416c.448-.341.986-.603 1.616-.784a7.19 7.19 0 012-.272zm-.271 7.296c.501 0 .944-.112 1.328-.336a1.9 1.9 0 00.832-.992v-.992H54.54c-1.152 0-1.728.379-1.728 1.136 0 .363.144.65.432.864.288.213.688.32 1.2.32zm11.862.88a2.35 2.35 0 01-.864.432 3.77 3.77 0 01-1.056.144c-.938 0-1.664-.245-2.176-.736-.512-.49-.768-1.205-.768-2.144V9.12h-1.408v-1.6h1.408V5.568h2V7.52h2.288v1.6h-2.288v4.064c0 .416.102.736.304.96.203.213.496.32.88.32.448 0 .822-.117 1.12-.352l.56 1.424zm1.646-8.08h2V16h-2V7.456zm1.008-1.408c-.363 0-.667-.112-.912-.336a1.15 1.15 0 01-.368-.864A1.1 1.1 0 0168.049 4c.245-.235.549-.352.912-.352.362 0 .666.112.912.336.245.213.368.485.368.816 0 .352-.123.65-.368.896-.235.235-.539.352-.912.352zm7.457 10.064c-.864 0-1.643-.187-2.336-.56A4.157 4.157 0 0172.45 14c-.384-.672-.576-1.43-.576-2.272 0-.843.192-1.595.576-2.256a4.157 4.157 0 011.632-1.552c.693-.373 1.472-.56 2.336-.56.874 0 1.658.187 2.352.56.693.373 1.232.89 1.616 1.552.394.661.592 1.413.592 2.256 0 .843-.198 1.6-.592 2.272a4.044 4.044 0 01-1.616 1.552c-.694.373-1.478.56-2.352.56zm0-1.712c.736 0 1.344-.245 1.824-.736.48-.49.72-1.136.72-1.936s-.24-1.445-.72-1.936c-.48-.49-1.088-.736-1.824-.736s-1.344.245-1.824.736c-.47.49-.704 1.136-.704 1.936s.234 1.445.704 1.936c.48.49 1.088.736 1.824.736zm11.32-7.04c1.078 0 1.942.315 2.592.944.65.63.976 1.563.976 2.8V16h-2v-4.64c0-.747-.176-1.307-.528-1.68-.352-.384-.853-.576-1.504-.576-.736 0-1.317.224-1.744.672-.427.437-.64 1.072-.64 1.904V16h-2V7.456h1.904V8.56c.33-.395.747-.693 1.248-.896.501-.203 1.067-.304 1.696-.304zm8.745 8.752a7.65 7.65 0 01-2.032-.272c-.661-.181-1.19-.41-1.584-.688l.768-1.52c.384.256.843.464 1.376.624a6.03 6.03 0 001.6.224c1.195 0 1.792-.315 1.792-.944 0-.299-.154-.507-.464-.624-.298-.117-.784-.23-1.456-.336-.704-.107-1.28-.23-1.728-.368a2.736 2.736 0 01-1.152-.72c-.32-.352-.48-.837-.48-1.456 0-.81.336-1.456 1.008-1.936.683-.49 1.6-.736 2.752-.736.587 0 1.174.07 1.76.208.587.128 1.067.304 1.44.528l-.768 1.52c-.725-.427-1.541-.64-2.448-.64-.586 0-1.034.09-1.344.272-.298.17-.448.4-.448.688 0 .32.16.55.48.688.33.128.838.25 1.52.368.683.107 1.243.23 1.68.368.438.139.81.373 1.12.704.32.33.48.8.48 1.408 0 .8-.346 1.44-1.04 1.92-.693.48-1.637.72-2.832.72z" fill="#575757"/></svg>