<svg width="22" height="27" viewBox="0 0 22 27" fill="none" xmlns="http://www.w3.org/2000/svg"><path d="M18.647 17.51h-.5v.206l.146.147.354-.354zM21 19.867h.5v-.207l-.146-.146-.354.353zm0 1.18v.5h.5v-.5H21zm-20 0H.5v.5H1v-.5zm0-1.18l-.354-.353-.146.146v.207H1zm2.353-2.359l.354.354.146-.147v-.207h-.5zM9.235 3.594l.118.486.382-.092v-.394h-.5zm3.53 0h-.5v.394l.382.092.118-.486zm.588 19.632h.5v-.5h-.5v.5zm-4.706 0v-.5h-.5v.5h.5zm10.5-5.717v-6.485h-1v6.485h1zm2.207 2.006l-2.353-2.359-.708.707 2.353 2.358.708-.706zm.146 1.532v-1.18h-1v1.18h1zm-20.5.5h20v-1H1v1zm-.5-1.68v1.18h1v-1.18h-1zm2.499-2.71L.646 19.514l.708.706 2.353-2.358-.708-.707zm-.146-6.133v6.485h1v-6.485h-1zm6.265-7.916c-3.627.878-6.265 4.02-6.265 7.916h1c0-3.416 2.303-6.17 5.5-6.944l-.235-.972zm-.383-.34v.826h1V2.77h-1zM11 .5C9.782.5 8.735 1.55 8.735 2.769h1C9.735 2.1 10.336 1.5 11 1.5v-1zm2.265 2.269C13.265 1.55 12.218.5 11 .5v1c.664 0 1.265.6 1.265 1.269h1zm0 .825V2.77h-1v.825h1zm5.882 7.43c0-3.896-2.638-7.038-6.265-7.916l-.235.972c3.197.774 5.5 3.528 5.5 6.944h1zM11 26.084a2.863 2.863 0 002.853-2.858h-1A1.863 1.863 0 0111 25.085v1zm-2.853-2.858A2.863 2.863 0 0011 26.085v-1a1.863 1.863 0 01-1.853-1.859h-1zm5.206-.5H8.647v1h4.706v-1z" fill="#797979"/></svg>