<svg width="178" height="308" viewBox="0 0 178 308" fill="none" xmlns="http://www.w3.org/2000/svg"><path d="M9.308 17.9V27H7.917l-5.018-6.162V27H1.222v-9.1h1.391l5.018 6.162V17.9h1.677zm5.727 9.191c-.702 0-1.334-.152-1.898-.455a3.377 3.377 0 01-1.326-1.261c-.312-.546-.468-1.161-.468-1.846s.156-1.296.468-1.833c.321-.537.763-.958 1.326-1.261.564-.303 1.196-.455 1.898-.455.711 0 1.348.152 1.911.455a3.286 3.286 0 011.313 1.261c.321.537.481 1.148.481 1.833s-.16 1.3-.48 1.846c-.313.537-.75.958-1.314 1.261-.563.303-1.2.455-1.91.455zm0-1.391c.598 0 1.092-.2 1.482-.598.39-.399.585-.923.585-1.573 0-.65-.195-1.174-.585-1.573-.39-.399-.884-.598-1.482-.598s-1.092.2-1.482.598c-.38.399-.572.923-.572 1.573 0 .65.191 1.174.572 1.573.39.399.884.598 1.482.598zm11.894-5.642L23.952 27h-1.677l-2.977-6.942h1.69l2.158 5.148 2.223-5.148h1.56zm4.27 7.033c-.702 0-1.335-.152-1.898-.455a3.377 3.377 0 01-1.326-1.261c-.312-.546-.468-1.161-.468-1.846s.156-1.296.468-1.833c.32-.537.763-.958 1.326-1.261.563-.303 1.196-.455 1.898-.455.71 0 1.348.152 1.911.455a3.286 3.286 0 011.313 1.261c.32.537.481 1.148.481 1.833s-.16 1.3-.48 1.846c-.313.537-.75.958-1.314 1.261-.563.303-1.2.455-1.91.455zm0-1.391c.598 0 1.092-.2 1.482-.598.39-.399.585-.923.585-1.573 0-.65-.195-1.174-.585-1.573-.39-.399-.884-.598-1.482-.598s-1.092.2-1.482.598c-.381.399-.572.923-.572 1.573 0 .65.19 1.174.572 1.573.39.399.884.598 1.482.598zm5.74-7.8h1.69v7.67h4.758V27h-6.448v-9.1zm11.008 9.191c-.702 0-1.335-.152-1.898-.455a3.377 3.377 0 01-1.326-1.261c-.312-.546-.468-1.161-.468-1.846s.156-1.296.468-1.833c.32-.537.762-.958 1.326-1.261.563-.303 1.196-.455 1.898-.455.71 0 1.347.152 1.91.455a3.286 3.286 0 011.314 1.261c.32.537.48 1.148.48 1.833s-.16 1.3-.48 1.846c-.312.537-.75.958-1.313 1.261-.564.303-1.2.455-1.911.455zm0-1.391c.598 0 1.092-.2 1.482-.598.39-.399.585-.923.585-1.573 0-.65-.195-1.174-.585-1.573-.39-.399-.884-.598-1.482-.598s-1.092.2-1.482.598c-.382.399-.572.923-.572 1.573 0 .65.19 1.174.572 1.573.39.399.884.598 1.482.598zm12.474-5.642v5.889c0 2.444-1.248 3.666-3.744 3.666-.668 0-1.3-.087-1.898-.26-.598-.165-1.092-.407-1.482-.728l.728-1.222c.303.251.684.45 1.144.598.468.156.94.234 1.417.234.762 0 1.321-.173 1.677-.52.355-.347.533-.875.533-1.586v-.364a2.671 2.671 0 01-1.014.689 3.573 3.573 0 01-1.313.234 3.854 3.854 0 01-1.794-.416 3.28 3.28 0 01-1.261-1.196c-.304-.511-.455-1.096-.455-1.755 0-.659.151-1.24.455-1.742a3.185 3.185 0 011.26-1.183 3.854 3.854 0 011.795-.416c.502 0 .957.082 1.365.247.416.165.762.416 1.04.754v-.923h1.547zm-3.705 5.252c.615 0 1.118-.182 1.508-.546.398-.373.598-.854.598-1.443 0-.58-.2-1.053-.598-1.417-.39-.364-.893-.546-1.508-.546-.624 0-1.136.182-1.534.546-.39.364-.585.836-.585 1.417 0 .59.195 1.07.585 1.443.398.364.91.546 1.534.546zM75.315 27l-.013-6.032-2.99 4.992h-.754l-2.99-4.914V27h-1.612v-9.1h1.39l3.615 6.032L75.51 17.9h1.39l.014 9.1h-1.6zm4.226-6.942h1.625V27H79.54v-6.942zm.819-1.144c-.295 0-.542-.091-.741-.273a.934.934 0 01-.3-.702c0-.277.1-.507.3-.689.2-.19.446-.286.74-.286.296 0 .543.091.742.273a.84.84 0 01.299.663.99.99 0 01-.3.728c-.19.19-.437.286-.74.286zM88.044 27l-1.781-2.405L84.469 27h-1.794l2.704-3.523-2.587-3.419h1.807l1.703 2.275 1.703-2.275h1.755l-2.6 3.393L89.877 27h-1.833zm13.645-9.1v1.131L98.153 27h-1.808l3.42-7.67h-3.576v1.547h-1.572V17.9h7.072zm4.912 9.23c-.728 0-1.378-.182-1.95-.546-.572-.373-1.023-.91-1.352-1.612-.33-.71-.494-1.551-.494-2.522 0-.97.164-1.807.494-2.509.329-.71.78-1.248 1.352-1.612.572-.373 1.222-.559 1.95-.559s1.378.186 1.95.559c.58.364 1.035.901 1.365 1.612.329.702.494 1.538.494 2.509 0 .97-.165 1.811-.494 2.522-.33.702-.785 1.24-1.365 1.612-.572.364-1.222.546-1.95.546zm0-1.469c.65 0 1.161-.269 1.534-.806.381-.537.572-1.339.572-2.405 0-1.066-.191-1.868-.572-2.405-.373-.537-.884-.806-1.534-.806-.642 0-1.153.269-1.534.806-.373.537-.559 1.339-.559 2.405 0 1.066.186 1.868.559 2.405.381.537.892.806 1.534.806zm8.35-9.607h1.456l-4.29 12.246h-1.456l4.29-12.246zm5.695 5.603c.841.104 1.482.39 1.924.858.442.468.663 1.053.663 1.755a2.68 2.68 0 01-.403 1.443c-.268.433-.676.78-1.222 1.04-.537.251-1.196.377-1.976.377-.65 0-1.278-.091-1.885-.273a4.918 4.918 0 01-1.534-.78l.728-1.313c.33.277.728.498 1.196.663.477.156.967.234 1.469.234.598 0 1.066-.121 1.404-.364.347-.251.52-.59.52-1.014 0-.425-.164-.754-.494-.988-.32-.243-.814-.364-1.482-.364h-.832v-1.157l2.067-2.457h-4.134V17.9h6.201v1.131l-2.21 2.626zm7.814 5.473c-.728 0-1.378-.182-1.95-.546-.572-.373-1.023-.91-1.352-1.612-.33-.71-.494-1.551-.494-2.522 0-.97.164-1.807.494-2.509.329-.71.78-1.248 1.352-1.612.572-.373 1.222-.559 1.95-.559s1.378.186 1.95.559c.58.364 1.035.901 1.365 1.612.329.702.494 1.538.494 2.509 0 .97-.165 1.811-.494 2.522-.33.702-.785 1.24-1.365 1.612-.572.364-1.222.546-1.95.546zm0-1.469c.65 0 1.161-.269 1.534-.806.381-.537.572-1.339.572-2.405 0-1.066-.191-1.868-.572-2.405-.373-.537-.884-.806-1.534-.806-.642 0-1.153.269-1.534.806-.373.537-.559 1.339-.559 2.405 0 1.066.186 1.868.559 2.405.381.537.892.806 1.534.806zm13.067-4.004c.841.104 1.482.39 1.924.858.442.468.663 1.053.663 1.755a2.68 2.68 0 01-.403 1.443c-.268.433-.676.78-1.222 1.04-.537.251-1.196.377-1.976.377-.65 0-1.278-.091-1.885-.273a4.918 4.918 0 01-1.534-.78l.728-1.313c.33.277.728.498 1.196.663.477.156.967.234 1.469.234.598 0 1.066-.121 1.404-.364.347-.251.52-.59.52-1.014 0-.425-.164-.754-.494-.988-.32-.243-.814-.364-1.482-.364h-.832v-1.157l2.067-2.457h-4.134V17.9h6.201v1.131l-2.21 2.626zm7.814 5.473c-.728 0-1.378-.182-1.95-.546-.572-.373-1.023-.91-1.352-1.612-.329-.71-.494-1.551-.494-2.522 0-.97.165-1.807.494-2.509.329-.71.78-1.248 1.352-1.612.572-.373 1.222-.559 1.95-.559s1.378.186 1.95.559c.581.364 1.036.901 1.365 1.612.329.702.494 1.538.494 2.509 0 .97-.165 1.811-.494 2.522-.329.702-.784 1.24-1.365 1.612-.572.364-1.222.546-1.95.546zm0-1.469c.65 0 1.161-.269 1.534-.806.381-.537.572-1.339.572-2.405 0-1.066-.191-1.868-.572-2.405-.373-.537-.884-.806-1.534-.806-.641 0-1.153.269-1.534.806-.373.537-.559 1.339-.559 2.405 0 1.066.186 1.868.559 2.405.381.537.893.806 1.534.806zm14.532-5.681c.875 0 1.569.256 2.08.767.511.503.767 1.261.767 2.275V27h-1.625v-3.77c0-.607-.134-1.062-.403-1.365-.269-.312-.654-.468-1.157-.468-.546 0-.984.182-1.313.546-.329.355-.494.867-.494 1.534V27h-1.625v-3.77c0-.607-.134-1.062-.403-1.365-.269-.312-.654-.468-1.157-.468-.555 0-.997.178-1.326.533-.321.355-.481.871-.481 1.547V27h-1.625v-6.942h1.547v.884c.26-.312.585-.55.975-.715.39-.165.823-.247 1.3-.247.52 0 .979.1 1.378.299a2.2 2.2 0 01.962.858 2.834 2.834 0 011.105-.845 3.526 3.526 0 011.495-.312zm12.202.078v5.889c0 2.444-1.248 3.666-3.744 3.666-.667 0-1.3-.087-1.898-.26-.598-.165-1.092-.407-1.482-.728l.728-1.222c.303.251.685.45 1.144.598.468.156.94.234 1.417.234.763 0 1.322-.173 1.677-.52.355-.347.533-.875.533-1.586v-.364a2.667 2.667 0 01-1.014.689 3.573 3.573 0 01-1.313.234 3.851 3.851 0 01-1.794-.416 3.277 3.277 0 01-1.261-1.196c-.303-.511-.455-1.096-.455-1.755 0-.659.152-1.24.455-1.742a3.183 3.183 0 011.261-1.183 3.851 3.851 0 011.794-.416c.503 0 .958.082 1.365.247a2.52 2.52 0 011.04.754v-.923h1.547zm-3.705 5.252c.615 0 1.118-.182 1.508-.546.399-.373.598-.854.598-1.443 0-.58-.199-1.053-.598-1.417-.39-.364-.893-.546-1.508-.546-.624 0-1.135.182-1.534.546-.39.364-.585.836-.585 1.417 0 .59.195 1.07.585 1.443.399.364.91.546 1.534.546zM4.043 71.13c-.702 0-1.382-.1-2.041-.299-.65-.2-1.166-.464-1.547-.793l.585-1.313c.373.295.828.537 1.365.728a5.153 5.153 0 001.638.273c.676 0 1.179-.108 1.508-.325.338-.217.507-.503.507-.858a.803.803 0 00-.286-.637 1.847 1.847 0 00-.702-.403 15.795 15.795 0 00-1.17-.325 14.02 14.02 0 01-1.69-.494 2.861 2.861 0 01-1.105-.767c-.303-.355-.455-.832-.455-1.43 0-.503.134-.958.403-1.365.277-.416.689-.745 1.235-.988.555-.243 1.23-.364 2.028-.364.555 0 1.1.07 1.638.208a4.528 4.528 0 011.391.598l-.533 1.313a5.257 5.257 0 00-1.248-.533 4.67 4.67 0 00-1.261-.182c-.667 0-1.166.113-1.495.338-.32.225-.481.524-.481.897 0 .26.091.472.273.637.19.165.429.295.715.39.286.095.676.204 1.17.325.676.156 1.23.32 1.664.494.433.165.802.42 1.105.767.312.347.468.815.468 1.404 0 .503-.139.958-.416 1.365-.269.407-.68.732-1.235.975s-1.23.364-2.028.364zm11.897-7.072l-3.25 7.501c-.303.754-.672 1.283-1.105 1.586-.434.312-.958.468-1.573.468-.347 0-.69-.056-1.027-.169a2.27 2.27 0 01-.832-.468l.65-1.196c.156.147.338.264.546.351.216.087.433.13.65.13.286 0 .52-.074.702-.221.19-.147.364-.394.52-.741l.117-.273-3.03-6.968h1.69l2.185 5.135 2.197-5.135h1.56zm10.103-.078c.875 0 1.568.256 2.08.767.51.503.767 1.261.767 2.275V71h-1.625v-3.77c0-.607-.135-1.062-.404-1.365-.268-.312-.654-.468-1.157-.468-.546 0-.983.182-1.313.546-.329.355-.493.867-.493 1.534V71h-1.625v-3.77c0-.607-.135-1.062-.404-1.365-.268-.312-.654-.468-1.157-.468-.554 0-.996.178-1.325.533-.321.355-.482.871-.482 1.547V71H17.28v-6.942h1.547v.884c.26-.312.585-.55.975-.715a3.31 3.31 0 011.3-.247c.52 0 .98.1 1.378.299.408.19.729.477.962.858a2.836 2.836 0 011.105-.845c.451-.208.95-.312 1.495-.312zm5.248-2.626h1.625V71h-1.625v-9.646zm4.083 2.704h1.625V71h-1.625v-6.942zm.819-1.144c-.295 0-.542-.091-.741-.273a.934.934 0 01-.3-.702c0-.277.1-.507.3-.689.2-.19.446-.286.74-.286.295 0 .542.091.742.273a.84.84 0 01.299.663.99.99 0 01-.3.728c-.19.19-.437.286-.74.286zm7.203 1.066c.875 0 1.577.256 2.106.767.528.511.793 1.27.793 2.275V71H44.67v-3.77c0-.607-.143-1.062-.43-1.365-.285-.312-.693-.468-1.221-.468-.598 0-1.07.182-1.417.546-.347.355-.52.871-.52 1.547V71h-1.625v-6.942h1.547v.897a2.54 2.54 0 011.014-.728 3.649 3.649 0 011.378-.247zm9.185-2.08c.789 0 1.473.13 2.054.39.59.26 1.04.633 1.352 1.118.312.485.468 1.062.468 1.729 0 .659-.156 1.235-.468 1.729-.312.485-.763.858-1.352 1.118-.58.26-1.265.39-2.054.39h-2.054V71h-1.69v-9.1h3.744zm-.078 5.044c.737 0 1.296-.156 1.677-.468.381-.312.572-.758.572-1.339 0-.58-.19-1.027-.572-1.339-.381-.312-.94-.468-1.677-.468h-1.976v3.614h1.976zm12.31.624c0 .113-.01.273-.027.481H59.34c.096.511.343.919.741 1.222.408.295.91.442 1.508.442.763 0 1.391-.251 1.885-.754l.871 1.001a2.934 2.934 0 01-1.183.845 4.308 4.308 0 01-1.612.286c-.762 0-1.434-.152-2.015-.455a3.335 3.335 0 01-1.352-1.261c-.312-.546-.468-1.161-.468-1.846 0-.676.152-1.283.455-1.82.312-.546.741-.97 1.287-1.274.546-.303 1.162-.455 1.846-.455.676 0 1.279.152 1.807.455a3.07 3.07 0 011.248 1.261c.304.537.455 1.161.455 1.872zm-3.51-2.288c-.52 0-.963.156-1.327.468-.355.303-.572.71-.65 1.222h3.94c-.07-.503-.282-.91-.638-1.222-.355-.312-.797-.468-1.326-.468zm9.334-1.3c.876 0 1.578.256 2.106.767.529.511.793 1.27.793 2.275V71h-1.625v-3.77c0-.607-.143-1.062-.429-1.365-.286-.312-.693-.468-1.222-.468-.598 0-1.07.182-1.417.546-.346.355-.52.871-.52 1.547V71h-1.625v-6.942h1.547v.897a2.54 2.54 0 011.014-.728 3.649 3.649 0 011.378-.247zm11.855-2.08V71h-1.69v-7.683h-1.924V61.9h3.614zm8.722 7.67V71h-6.708v-1.131l3.614-3.432c.407-.39.68-.728.819-1.014.147-.295.22-.585.22-.871 0-.425-.142-.75-.428-.975-.286-.225-.707-.338-1.261-.338-.928 0-1.638.316-2.132.949l-1.183-.91c.355-.477.832-.845 1.43-1.105.606-.269 1.282-.403 2.028-.403.988 0 1.776.234 2.366.702.589.468.884 1.105.884 1.911 0 .494-.104.958-.312 1.391-.208.433-.607.927-1.196 1.482l-2.431 2.314h4.29zm5.058 1.56c-.728 0-1.378-.182-1.95-.546-.572-.373-1.023-.91-1.352-1.612-.33-.71-.494-1.551-.494-2.522 0-.97.165-1.807.494-2.509.33-.71.78-1.248 1.352-1.612.572-.373 1.222-.559 1.95-.559s1.378.186 1.95.559c.58.364 1.036.901 1.365 1.612.33.702.494 1.538.494 2.509 0 .97-.165 1.811-.494 2.522-.33.702-.784 1.24-1.365 1.612-.572.364-1.222.546-1.95.546zm0-1.469c.65 0 1.161-.269 1.534-.806.381-.537.572-1.339.572-2.405 0-1.066-.19-1.868-.572-2.405-.373-.537-.884-.806-1.534-.806-.641 0-1.153.269-1.534.806-.373.537-.56 1.339-.56 2.405 0 1.066.187 1.868.56 2.405.381.537.893.806 1.534.806zm15.785-.091V71h-6.708v-1.131l3.614-3.432c.407-.39.68-.728.819-1.014.147-.295.221-.585.221-.871 0-.425-.143-.75-.429-.975-.286-.225-.707-.338-1.261-.338-.928 0-1.638.316-2.132.949l-1.183-.91c.355-.477.832-.845 1.43-1.105.606-.269 1.282-.403 2.028-.403.988 0 1.776.234 2.366.702.589.468.884 1.105.884 1.911 0 .494-.104.958-.312 1.391-.208.433-.607.927-1.196 1.482l-2.431 2.314h4.29zm10.556-5.59c.875 0 1.569.256 2.08.767.511.503.767 1.261.767 2.275V71h-1.625v-3.77c0-.607-.134-1.062-.403-1.365-.269-.312-.654-.468-1.157-.468-.546 0-.984.182-1.313.546-.329.355-.494.867-.494 1.534V71h-1.625v-3.77c0-.607-.134-1.062-.403-1.365-.269-.312-.654-.468-1.157-.468-.555 0-.997.178-1.326.533-.321.355-.481.871-.481 1.547V71h-1.625v-6.942h1.547v.884c.26-.312.585-.55.975-.715.39-.165.823-.247 1.3-.247.52 0 .979.1 1.378.299a2.2 2.2 0 01.962.858 2.834 2.834 0 011.105-.845 3.526 3.526 0 011.495-.312zm12.202.078v5.889c0 2.444-1.248 3.666-3.744 3.666-.667 0-1.3-.087-1.898-.26-.598-.165-1.092-.407-1.482-.728l.728-1.222c.304.251.685.45 1.144.598.468.156.941.234 1.417.234.763 0 1.322-.173 1.677-.52.356-.347.533-.875.533-1.586v-.364a2.667 2.667 0 01-1.014.689 3.57 3.57 0 01-1.313.234 3.857 3.857 0 01-1.794-.416 3.284 3.284 0 01-1.261-1.196c-.303-.511-.455-1.096-.455-1.755 0-.659.152-1.24.455-1.742a3.19 3.19 0 011.261-1.183 3.857 3.857 0 011.794-.416c.503 0 .958.082 1.365.247a2.52 2.52 0 011.04.754v-.923h1.547zm-3.705 5.252c.616 0 1.118-.182 1.508-.546.399-.373.598-.854.598-1.443 0-.58-.199-1.053-.598-1.417-.39-.364-.892-.546-1.508-.546-.624 0-1.135.182-1.534.546-.39.364-.585.836-.585 1.417 0 .59.195 1.07.585 1.443.399.364.91.546 1.534.546zM1.222 105.9H5.2c.97 0 1.833.191 2.587.572a4.134 4.134 0 011.755 1.599c.416.685.624 1.478.624 2.379s-.208 1.699-.624 2.392a4.238 4.238 0 01-1.755 1.599c-.754.373-1.616.559-2.587.559H1.222v-9.1zm3.9 7.67c.667 0 1.252-.126 1.755-.377.511-.26.901-.624 1.17-1.092.277-.477.416-1.027.416-1.651 0-.624-.139-1.17-.416-1.638a2.643 2.643 0 00-1.17-1.092c-.503-.26-1.088-.39-1.755-.39h-2.21v6.24h2.21zm9.661-5.59c1.023 0 1.803.247 2.34.741.546.485.82 1.222.82 2.21V115h-1.535v-.845a1.93 1.93 0 01-.858.702c-.364.156-.806.234-1.326.234s-.975-.087-1.365-.26a2.22 2.22 0 01-.91-.741 1.94 1.94 0 01-.312-1.079c0-.624.23-1.122.69-1.495.467-.381 1.2-.572 2.196-.572h1.794v-.104c0-.485-.147-.858-.442-1.118-.286-.26-.715-.39-1.287-.39-.39 0-.775.061-1.157.182-.372.121-.689.29-.949.507l-.637-1.183c.364-.277.802-.49 1.313-.637a5.855 5.855 0 011.625-.221zm-.22 5.928c.407 0 .766-.091 1.078-.273.32-.191.546-.459.676-.806v-.806H14.64c-.936 0-1.404.308-1.404.923 0 .295.117.529.351.702.234.173.56.26.975.26zm9.638-5.928c.676 0 1.278.147 1.807.442a3.18 3.18 0 011.26 1.248c.304.537.456 1.157.456 1.859s-.152 1.326-.455 1.872a3.18 3.18 0 01-1.261 1.248c-.529.295-1.131.442-1.807.442-.936 0-1.677-.312-2.223-.936v3.367h-1.625v-9.464H21.9v.91a2.53 2.53 0 01.988-.741 3.4 3.4 0 011.313-.247zm-.182 5.72c.598 0 1.087-.199 1.469-.598.39-.399.585-.923.585-1.573 0-.65-.195-1.174-.585-1.573-.382-.399-.871-.598-1.47-.598-.39 0-.74.091-1.052.273a1.881 1.881 0 00-.741.754 2.327 2.327 0 00-.273 1.144c0 .433.09.815.273 1.144.182.329.429.585.74.767.313.173.664.26 1.054.26zm8.134-5.72c1.023 0 1.803.247 2.34.741.546.485.819 1.222.819 2.21V115h-1.534v-.845c-.2.303-.485.537-.858.702-.364.156-.806.234-1.326.234s-.975-.087-1.365-.26a2.22 2.22 0 01-.91-.741 1.94 1.94 0 01-.312-1.079c0-.624.23-1.122.689-1.495.468-.381 1.2-.572 2.197-.572h1.794v-.104c0-.485-.147-.858-.442-1.118-.286-.26-.715-.39-1.287-.39-.39 0-.776.061-1.157.182-.373.121-.689.29-.949.507l-.637-1.183c.364-.277.802-.49 1.313-.637a5.854 5.854 0 011.625-.221zm-.221 5.928c.407 0 .767-.091 1.079-.273.32-.191.546-.459.676-.806v-.806H32.01c-.936 0-1.404.308-1.404.923 0 .295.117.529.351.702.234.173.559.26.975.26zm12.744-5.85v5.889c0 2.444-1.248 3.666-3.744 3.666-.667 0-1.3-.087-1.898-.26-.598-.165-1.092-.407-1.482-.728l.728-1.222a3.4 3.4 0 001.144.598c.468.156.94.234 1.417.234.763 0 1.322-.173 1.677-.52.355-.347.533-.875.533-1.586v-.364a2.675 2.675 0 01-1.014.689 3.573 3.573 0 01-1.313.234 3.857 3.857 0 01-1.794-.416 3.282 3.282 0 01-1.261-1.196c-.303-.511-.455-1.096-.455-1.755 0-.659.152-1.239.455-1.742a3.185 3.185 0 011.26-1.183 3.857 3.857 0 011.795-.416c.503 0 .958.082 1.365.247.416.165.763.416 1.04.754v-.923h1.547zm-3.705 5.252c.615 0 1.118-.182 1.508-.546.399-.373.598-.854.598-1.443 0-.581-.2-1.053-.598-1.417-.39-.364-.893-.546-1.508-.546-.624 0-1.135.182-1.534.546-.39.364-.585.836-.585 1.417 0 .589.195 1.07.585 1.443.399.364.91.546 1.534.546zm6.166-7.956h1.625V115h-1.625v-9.646zm4.083 2.704h1.625V115H51.22v-6.942zm.82-1.144c-.296 0-.543-.091-.742-.273a.935.935 0 01-.299-.702c0-.277.1-.507.3-.689.198-.191.445-.286.74-.286s.542.091.741.273c.2.173.3.394.3.663a.99.99 0 01-.3.728c-.19.191-.438.286-.74.286zm6.084-.338c-.685 0-1.027.373-1.027 1.118v.416h1.91v1.3H57.15V115h-1.625v-5.59H54.38v-1.3h1.144v-.442c0-.745.217-1.33.65-1.755.433-.433 1.044-.65 1.833-.65.624 0 1.114.126 1.469.377l-.455 1.222a1.55 1.55 0 00-.897-.286zm1.976-1.222h1.625V115H60.1v-9.646zm7.205 9.737c-.702 0-1.335-.152-1.898-.455a3.376 3.376 0 01-1.326-1.261c-.312-.546-.468-1.161-.468-1.846s.156-1.296.468-1.833c.32-.537.762-.958 1.326-1.261.563-.303 1.196-.455 1.898-.455.71 0 1.347.152 1.91.455a3.286 3.286 0 011.314 1.261c.32.537.48 1.148.48 1.833s-.16 1.3-.48 1.846c-.312.537-.75.958-1.313 1.261-.564.303-1.2.455-1.911.455zm0-1.391c.598 0 1.092-.199 1.482-.598.39-.399.585-.923.585-1.573 0-.65-.195-1.174-.585-1.573-.39-.399-.884-.598-1.482-.598s-1.092.199-1.482.598c-.382.399-.572.923-.572 1.573 0 .65.19 1.174.572 1.573.39.399.884.598 1.482.598zm10.903 0v1.3h-5.993v-1.027l3.809-4.615h-3.731v-1.3h5.81v1.027l-3.821 4.615h3.926zm1.823-5.642h1.625V115H80.03v-6.942zm.819-1.144c-.295 0-.542-.091-.741-.273a.935.935 0 01-.3-.702c0-.277.1-.507.3-.689.2-.191.446-.286.74-.286.295 0 .542.091.742.273.2.173.299.394.299.663a.99.99 0 01-.3.728c-.19.191-.437.286-.74.286zm7.203 1.066c.875 0 1.577.256 2.106.767.528.511.793 1.27.793 2.275V115h-1.625v-3.77c0-.607-.143-1.062-.43-1.365-.285-.312-.693-.468-1.221-.468-.598 0-1.07.182-1.417.546-.347.355-.52.871-.52 1.547V115h-1.625v-6.942h1.547v.897a2.54 2.54 0 011.014-.728 3.642 3.642 0 011.378-.247zm11.855-2.08v9.1h-1.69v-7.683h-1.924V105.9h3.614zm10.715 8.723a1.915 1.915 0 01-.702.351 3.067 3.067 0 01-.858.117c-.763 0-1.352-.199-1.768-.598-.416-.399-.624-.979-.624-1.742v-3.341h-1.144v-1.3h1.144v-1.586h1.625v1.586h1.859v1.3h-1.859v3.302c0 .338.082.598.247.78.164.173.403.26.715.26.364 0 .667-.095.91-.286l.455 1.157zm3.807.468a6.223 6.223 0 01-1.651-.221c-.538-.147-.967-.334-1.287-.559l.624-1.235a4.15 4.15 0 001.118.507 4.91 4.91 0 001.3.182c.97 0 1.456-.256 1.456-.767 0-.243-.126-.412-.377-.507-.243-.095-.637-.186-1.183-.273a9.896 9.896 0 01-1.404-.299 2.221 2.221 0 01-.936-.585c-.26-.286-.39-.68-.39-1.183 0-.659.273-1.183.819-1.573.554-.399 1.3-.598 2.236-.598.476 0 .953.056 1.43.169.476.104.866.247 1.17.429l-.624 1.235c-.59-.347-1.253-.52-1.989-.52-.477 0-.841.074-1.092.221-.243.139-.364.325-.364.559 0 .26.13.446.39.559.268.104.68.204 1.235.299a9.52 9.52 0 011.365.299c.355.113.658.303.91.572.26.269.39.65.39 1.144 0 .65-.282 1.17-.845 1.56-.564.39-1.331.585-2.301.585zm8.718-7.111c.676 0 1.278.147 1.807.442a3.18 3.18 0 011.261 1.248c.303.537.455 1.157.455 1.859s-.152 1.326-.455 1.872a3.18 3.18 0 01-1.261 1.248c-.529.295-1.131.442-1.807.442-.936 0-1.677-.312-2.223-.936v3.367H119.3v-9.464h1.547v.91c.269-.329.598-.576.988-.741a3.4 3.4 0 011.313-.247zm-.182 5.72c.598 0 1.088-.199 1.469-.598.39-.399.585-.923.585-1.573 0-.65-.195-1.174-.585-1.573-.381-.399-.871-.598-1.469-.598-.39 0-.741.091-1.053.273a1.881 1.881 0 00-.741.754 2.327 2.327 0 00-.273 1.144c0 .433.091.815.273 1.144.182.329.429.585.741.767.312.173.663.26 1.053.26zM7.176 159l-1.859-2.665a3.369 3.369 0 01-.351.013H2.912V159h-1.69v-9.1h3.744c.789 0 1.473.13 2.054.39.59.26 1.04.633 1.352 1.118.312.485.468 1.062.468 1.729 0 .685-.169 1.274-.507 1.768-.33.494-.806.862-1.43 1.105L8.996 159h-1.82zm-.039-5.863c0-.581-.19-1.027-.572-1.339-.381-.312-.94-.468-1.677-.468H2.912v3.627h1.976c.737 0 1.296-.156 1.677-.468.381-.321.572-.771.572-1.352zm10.289 2.431c0 .113-.009.273-.026.481h-5.447c.095.511.342.919.74 1.222.408.295.91.442 1.509.442.762 0 1.39-.251 1.885-.754l.87 1.001a2.934 2.934 0 01-1.182.845c-.477.191-1.014.286-1.612.286-.763 0-1.434-.152-2.015-.455a3.335 3.335 0 01-1.352-1.261c-.312-.546-.468-1.161-.468-1.846 0-.676.152-1.283.455-1.82a3.304 3.304 0 011.287-1.274c.546-.303 1.161-.455 1.846-.455.676 0 1.278.152 1.807.455.537.295.953.715 1.248 1.261.303.537.455 1.161.455 1.872zm-3.51-2.288c-.52 0-.962.156-1.326.468-.355.303-.572.711-.65 1.222h3.939c-.07-.503-.282-.91-.637-1.222-.356-.312-.798-.468-1.326-.468zm9.244-1.3c.676 0 1.278.147 1.807.442a3.18 3.18 0 011.26 1.248c.304.537.456 1.157.456 1.859s-.152 1.326-.455 1.872a3.18 3.18 0 01-1.261 1.248c-.529.295-1.131.442-1.807.442-.936 0-1.677-.312-2.223-.936v3.367h-1.625v-9.464h1.547v.91a2.53 2.53 0 01.988-.741 3.4 3.4 0 011.313-.247zm-.182 5.72c.598 0 1.087-.199 1.469-.598.39-.399.585-.923.585-1.573 0-.65-.195-1.174-.585-1.573-.382-.399-.871-.598-1.47-.598-.39 0-.74.091-1.052.273a1.881 1.881 0 00-.741.754 2.327 2.327 0 00-.273 1.144c0 .433.09.815.273 1.144.182.329.429.585.74.767.313.173.664.26 1.054.26zm8.134-5.72c1.023 0 1.803.247 2.34.741.546.485.819 1.222.819 2.21V159h-1.534v-.845a1.93 1.93 0 01-.858.702c-.364.156-.806.234-1.326.234s-.975-.087-1.365-.26a2.22 2.22 0 01-.91-.741 1.94 1.94 0 01-.312-1.079c0-.624.23-1.122.689-1.495.468-.381 1.2-.572 2.197-.572h1.794v-.104c0-.485-.147-.858-.442-1.118-.286-.26-.715-.39-1.287-.39-.39 0-.776.061-1.157.182-.373.121-.69.29-.95.507l-.636-1.183c.364-.277.802-.49 1.313-.637a5.855 5.855 0 011.625-.221zm-.221 5.928c.407 0 .767-.091 1.079-.273.32-.191.546-.459.676-.806v-.806h-1.677c-.936 0-1.404.308-1.404.923 0 .295.117.529.35.702.235.173.56.26.976.26zm12.744-5.85v5.889c0 2.444-1.248 3.666-3.744 3.666-.667 0-1.3-.087-1.898-.26-.598-.165-1.092-.407-1.482-.728l.728-1.222a3.4 3.4 0 001.144.598c.468.156.94.234 1.417.234.763 0 1.322-.173 1.677-.52.355-.347.533-.875.533-1.586v-.364a2.675 2.675 0 01-1.014.689 3.573 3.573 0 01-1.313.234 3.857 3.857 0 01-1.794-.416 3.282 3.282 0 01-1.261-1.196c-.303-.511-.455-1.096-.455-1.755 0-.659.152-1.239.455-1.742a3.185 3.185 0 011.26-1.183 3.857 3.857 0 011.795-.416c.503 0 .958.082 1.365.247.416.165.763.416 1.04.754v-.923h1.547zm-3.705 5.252c.615 0 1.118-.182 1.508-.546.399-.373.598-.854.598-1.443 0-.581-.2-1.053-.598-1.417-.39-.364-.893-.546-1.508-.546-.624 0-1.135.182-1.534.546-.39.364-.585.836-.585 1.417 0 .589.195 1.07.585 1.443.399.364.91.546 1.534.546zm6.166-7.956h1.625V159h-1.625v-9.646zm4.083 2.704h1.625V159H50.18v-6.942zm.82-1.144c-.296 0-.543-.091-.742-.273a.935.935 0 01-.299-.702c0-.277.1-.507.3-.689.198-.191.445-.286.74-.286s.542.091.741.273c.2.173.3.394.3.663a.99.99 0 01-.3.728c-.19.191-.438.286-.74.286zm7.202 1.066c.875 0 1.577.256 2.106.767.529.511.793 1.27.793 2.275V159h-1.625v-3.77c0-.607-.143-1.062-.43-1.365-.285-.312-.692-.468-1.221-.468-.598 0-1.07.182-1.417.546-.347.355-.52.871-.52 1.547V159h-1.625v-6.942h1.547v.897a2.54 2.54 0 011.014-.728 3.643 3.643 0 011.378-.247zm5.285.078h1.625V159h-1.625v-6.942zm.82-1.144c-.295 0-.542-.091-.742-.273a.935.935 0 01-.299-.702c0-.277.1-.507.3-.689.199-.191.446-.286.74-.286.295 0 .542.091.741.273.2.173.3.394.3.663a.99.99 0 01-.3.728c-.19.191-.437.286-.74.286zm10.062-1.56V159h-1.56v-.897a2.51 2.51 0 01-1 .741c-.39.165-.824.247-1.3.247-.668 0-1.27-.147-1.808-.442a3.205 3.205 0 01-1.248-1.248c-.303-.546-.455-1.17-.455-1.872 0-.702.152-1.322.455-1.859.303-.537.72-.953 1.248-1.248a3.692 3.692 0 011.807-.442c.46 0 .88.078 1.261.234.382.156.707.39.975.702v-3.562h1.625zm-3.666 8.346c.39 0 .741-.087 1.053-.26.312-.182.56-.438.741-.767.182-.329.273-.711.273-1.144 0-.433-.09-.815-.273-1.144a1.881 1.881 0 00-.74-.754 2.05 2.05 0 00-1.054-.273c-.39 0-.74.091-1.053.273a1.881 1.881 0 00-.74.754 2.327 2.327 0 00-.274 1.144c0 .433.091.815.273 1.144.182.329.43.585.741.767.312.173.663.26 1.053.26zm12.643-2.132c0 .113-.009.273-.026.481h-5.447c.095.511.342.919.74 1.222.408.295.91.442 1.509.442.763 0 1.39-.251 1.885-.754l.87 1.001a2.934 2.934 0 01-1.182.845c-.477.191-1.014.286-1.612.286-.763 0-1.434-.152-2.015-.455a3.335 3.335 0 01-1.352-1.261c-.312-.546-.468-1.161-.468-1.846 0-.676.152-1.283.455-1.82a3.304 3.304 0 011.287-1.274c.546-.303 1.161-.455 1.846-.455.676 0 1.278.152 1.807.455a3.07 3.07 0 011.248 1.261c.303.537.455 1.161.455 1.872zm-3.51-2.288c-.52 0-.962.156-1.326.468-.355.303-.572.711-.65 1.222h3.939c-.07-.503-.282-.91-.637-1.222-.355-.312-.797-.468-1.326-.468zm11.667.143c1.282 0 2.231.251 2.847.754.615.494.923 1.17.923 2.028 0 .546-.135 1.04-.403 1.482-.269.442-.672.793-1.21 1.053-.537.26-1.2.39-1.988.39-.65 0-1.279-.091-1.885-.273-.607-.191-1.118-.451-1.534-.78l.715-1.313a3.97 3.97 0 001.209.663c.476.156.966.234 1.469.234.598 0 1.066-.121 1.404-.364.346-.251.52-.594.52-1.027 0-.468-.187-.819-.56-1.053-.363-.243-.992-.364-1.884-.364h-2.197l.468-4.953h5.343v1.417h-3.913l-.195 2.106h.87zm14.325-1.443c.876 0 1.569.256 2.08.767.512.503.767 1.261.767 2.275V159h-1.625v-3.77c0-.607-.134-1.062-.403-1.365-.268-.312-.654-.468-1.157-.468-.546 0-.983.182-1.313.546-.329.355-.494.867-.494 1.534V159h-1.625v-3.77c0-.607-.134-1.062-.403-1.365-.268-.312-.654-.468-1.157-.468-.554 0-.996.178-1.326.533-.32.355-.48.871-.48 1.547V159h-1.626v-6.942h1.547v.884c.26-.312.585-.55.975-.715.39-.165.824-.247 1.3-.247.52 0 .98.1 1.378.299.408.191.728.477.962.858a2.839 2.839 0 011.105-.845 3.526 3.526 0 011.495-.312zm12.202.078v5.889c0 2.444-1.248 3.666-3.744 3.666a6.8 6.8 0 01-1.898-.26c-.598-.165-1.092-.407-1.482-.728l.728-1.222a3.41 3.41 0 001.144.598c.468.156.941.234 1.417.234.763 0 1.322-.173 1.677-.52.356-.347.533-.875.533-1.586v-.364a2.67 2.67 0 01-1.014.689 3.57 3.57 0 01-1.313.234 3.86 3.86 0 01-1.794-.416 3.287 3.287 0 01-1.261-1.196c-.303-.511-.455-1.096-.455-1.755 0-.659.152-1.239.455-1.742a3.19 3.19 0 011.261-1.183 3.86 3.86 0 011.794-.416c.503 0 .958.082 1.365.247.416.165.763.416 1.04.754v-.923h1.547zm-3.705 5.252c.616 0 1.118-.182 1.508-.546.399-.373.598-.854.598-1.443 0-.581-.199-1.053-.598-1.417-.39-.364-.892-.546-1.508-.546-.624 0-1.135.182-1.534.546-.39.364-.585.836-.585 1.417 0 .589.195 1.07.585 1.443.399.364.91.546 1.534.546zM1.222 193.9h1.69v7.67H7.67V203H1.222v-9.1zm11.008 9.191c-.702 0-1.335-.152-1.898-.455a3.377 3.377 0 01-1.326-1.261c-.312-.546-.468-1.161-.468-1.846s.156-1.296.468-1.833c.32-.537.762-.958 1.326-1.261.563-.303 1.196-.455 1.898-.455.71 0 1.347.152 1.91.455a3.286 3.286 0 011.314 1.261c.32.537.48 1.148.48 1.833s-.16 1.3-.48 1.846c-.312.537-.75.958-1.313 1.261-.564.303-1.2.455-1.911.455zm0-1.391c.598 0 1.092-.199 1.482-.598.39-.399.585-.923.585-1.573 0-.65-.195-1.174-.585-1.573-.39-.399-.884-.598-1.482-.598s-1.092.199-1.482.598c-.382.399-.572.923-.572 1.573 0 .65.19 1.174.572 1.573.39.399.884.598 1.482.598zm7.13-4.628c.469-.728 1.292-1.092 2.47-1.092v1.547a2.064 2.064 0 00-.376-.039c-.633 0-1.127.186-1.482.559-.356.364-.533.893-.533 1.586V203h-1.625v-6.942h1.547v1.014zm10.637 2.496c0 .113-.009.273-.026.481h-5.447c.095.511.342.919.74 1.222.408.295.91.442 1.509.442.762 0 1.39-.251 1.885-.754l.87 1.001a2.934 2.934 0 01-1.182.845c-.477.191-1.014.286-1.612.286-.763 0-1.435-.152-2.015-.455a3.335 3.335 0 01-1.352-1.261c-.312-.546-.468-1.161-.468-1.846 0-.676.151-1.283.455-1.82a3.304 3.304 0 011.287-1.274c.546-.303 1.161-.455 1.846-.455.676 0 1.278.152 1.807.455.537.295.953.715 1.248 1.261.303.537.455 1.161.455 1.872zm-3.51-2.288c-.52 0-.962.156-1.326.468-.356.303-.572.711-.65 1.222h3.939c-.07-.503-.282-.91-.637-1.222-.356-.312-.798-.468-1.326-.468zm14.158-1.3c.875 0 1.568.256 2.08.767.51.503.767 1.261.767 2.275V203h-1.625v-3.77c0-.607-.135-1.062-.403-1.365-.27-.312-.655-.468-1.157-.468-.546 0-.984.182-1.313.546-.33.355-.494.867-.494 1.534V203h-1.625v-3.77c0-.607-.135-1.062-.403-1.365-.27-.312-.655-.468-1.157-.468-.555 0-.997.178-1.326.533-.321.355-.481.871-.481 1.547V203h-1.625v-6.942h1.547v.884c.26-.312.585-.55.975-.715.39-.165.823-.247 1.3-.247.52 0 .979.1 1.378.299.407.191.728.477.962.858a2.833 2.833 0 011.105-.845c.45-.208.949-.312 1.495-.312zm11.519 1.443c1.283 0 2.232.251 2.847.754.615.494.923 1.17.923 2.028 0 .546-.134 1.04-.403 1.482-.269.442-.672.793-1.21 1.053-.536.26-1.2.39-1.988.39-.65 0-1.278-.091-1.885-.273-.607-.191-1.118-.451-1.534-.78l.715-1.313a3.97 3.97 0 001.209.663c.477.156.966.234 1.469.234.598 0 1.066-.121 1.404-.364.347-.251.52-.594.52-1.027 0-.468-.186-.819-.56-1.053-.363-.243-.991-.364-1.884-.364H49.59l.468-4.953H55.4v1.417h-3.913l-.195 2.106h.87zm14.326-1.443c.875 0 1.568.256 2.08.767.511.503.767 1.261.767 2.275V203h-1.625v-3.77c0-.607-.135-1.062-.403-1.365-.269-.312-.655-.468-1.157-.468-.546 0-.984.182-1.313.546-.33.355-.494.867-.494 1.534V203H62.72v-3.77c0-.607-.135-1.062-.403-1.365-.269-.312-.655-.468-1.157-.468-.555 0-.997.178-1.326.533-.32.355-.481.871-.481 1.547V203h-1.625v-6.942h1.547v.884c.26-.312.585-.55.975-.715.39-.165.823-.247 1.3-.247.52 0 .98.1 1.378.299.407.191.728.477.962.858a2.834 2.834 0 011.105-.845c.45-.208.949-.312 1.495-.312zm12.202.078v5.889c0 2.444-1.248 3.666-3.744 3.666-.668 0-1.3-.087-1.898-.26-.598-.165-1.092-.407-1.482-.728l.728-1.222a3.4 3.4 0 001.144.598c.468.156.94.234 1.417.234.762 0 1.321-.173 1.677-.52.355-.347.533-.875.533-1.586v-.364a2.675 2.675 0 01-1.014.689 3.573 3.573 0 01-1.313.234 3.857 3.857 0 01-1.794-.416 3.282 3.282 0 01-1.261-1.196c-.304-.511-.455-1.096-.455-1.755 0-.659.151-1.239.455-1.742a3.185 3.185 0 011.26-1.183 3.857 3.857 0 011.795-.416c.502 0 .957.082 1.365.247.416.165.762.416 1.04.754v-.923h1.547zm-3.705 5.252c.615 0 1.118-.182 1.508-.546.398-.373.598-.854.598-1.443 0-.581-.2-1.053-.598-1.417-.39-.364-.893-.546-1.508-.546-.624 0-1.136.182-1.534.546-.39.364-.585.836-.585 1.417 0 .589.195 1.07.585 1.443.398.364.91.546 1.534.546zM1.222 237.9h1.69v9.1h-1.69v-9.1zm8.168 2.08c.676 0 1.279.147 1.807.442a3.18 3.18 0 011.261 1.248c.304.537.455 1.157.455 1.859s-.151 1.326-.455 1.872a3.18 3.18 0 01-1.26 1.248c-.53.295-1.132.442-1.808.442-.936 0-1.677-.312-2.223-.936v3.367H5.542v-9.464H7.09v.91a2.53 2.53 0 01.988-.741 3.4 3.4 0 011.313-.247zm-.182 5.72c.598 0 1.088-.199 1.47-.598.39-.399.584-.923.584-1.573 0-.65-.195-1.174-.585-1.573-.381-.399-.87-.598-1.469-.598-.39 0-.74.091-1.053.273a1.881 1.881 0 00-.74.754 2.327 2.327 0 00-.274 1.144c0 .433.091.815.273 1.144.182.329.43.585.741.767.312.173.663.26 1.053.26zm7.716 1.391a6.228 6.228 0 01-1.65-.221c-.538-.147-.967-.334-1.287-.559l.623-1.235c.313.208.685.377 1.119.507.442.121.875.182 1.3.182.97 0 1.456-.256 1.456-.767 0-.243-.126-.412-.377-.507-.243-.095-.637-.186-1.184-.273a9.896 9.896 0 01-1.403-.299 2.229 2.229 0 01-.937-.585c-.26-.286-.39-.68-.39-1.183 0-.659.273-1.183.82-1.573.554-.399 1.3-.598 2.236-.598.476 0 .953.056 1.43.169.476.104.866.247 1.17.429l-.625 1.235c-.589-.347-1.252-.52-1.989-.52-.476 0-.84.074-1.091.221-.243.139-.364.325-.364.559 0 .26.13.446.39.559.268.104.68.204 1.235.299.554.087 1.01.186 1.364.299.356.113.66.303.91.572.26.269.39.65.39 1.144 0 .65-.281 1.17-.845 1.56-.563.39-1.33.585-2.3.585zm11.592-7.033V247h-1.547v-.884c-.26.312-.585.555-.975.728-.39.165-.81.247-1.261.247-.927 0-1.66-.256-2.197-.767-.529-.52-.793-1.287-.793-2.301v-3.965h1.625v3.744c0 .624.139 1.092.416 1.404.286.303.689.455 1.209.455.58 0 1.04-.178 1.378-.533.347-.364.52-.884.52-1.56v-3.51h1.625zm11.215-.078c.875 0 1.568.256 2.08.767.51.503.767 1.261.767 2.275V247h-1.626v-3.77c0-.607-.134-1.062-.402-1.365-.27-.312-.655-.468-1.157-.468-.547 0-.984.182-1.313.546-.33.355-.494.867-.494 1.534V247H35.96v-3.77c0-.607-.135-1.062-.404-1.365-.268-.312-.654-.468-1.157-.468-.554 0-.996.178-1.325.533-.321.355-.482.871-.482 1.547V247h-1.625v-6.942h1.548v.884c.26-.312.584-.55.974-.715.39-.165.824-.247 1.3-.247.52 0 .98.1 1.379.299.407.191.728.477.962.858a2.834 2.834 0 011.105-.845c.45-.208.949-.312 1.495-.312zm11.818-2.08v9.1h-1.69v-7.683h-1.924V237.9h3.614zm5.926 9.23c-.728 0-1.378-.182-1.95-.546-.572-.373-1.023-.91-1.352-1.612-.33-.711-.494-1.551-.494-2.522 0-.971.165-1.807.494-2.509.33-.711.78-1.248 1.352-1.612.572-.373 1.222-.559 1.95-.559s1.378.186 1.95.559c.58.364 1.036.901 1.365 1.612.33.702.494 1.538.494 2.509 0 .971-.165 1.811-.494 2.522-.33.702-.784 1.239-1.365 1.612-.572.364-1.222.546-1.95.546zm0-1.469c.65 0 1.161-.269 1.534-.806.381-.537.572-1.339.572-2.405 0-1.066-.19-1.868-.572-2.405-.373-.537-.884-.806-1.534-.806-.641 0-1.153.269-1.534.806-.373.537-.559 1.339-.559 2.405 0 1.066.186 1.868.559 2.405.381.537.893.806 1.534.806zm14.532-5.681c.875 0 1.569.256 2.08.767.511.503.767 1.261.767 2.275V247H73.23v-3.77c0-.607-.134-1.062-.403-1.365-.269-.312-.654-.468-1.157-.468-.546 0-.984.182-1.313.546-.33.355-.494.867-.494 1.534V247h-1.625v-3.77c0-.607-.134-1.062-.403-1.365-.269-.312-.654-.468-1.157-.468-.555 0-.997.178-1.326.533-.32.355-.48.871-.48 1.547V247h-1.626v-6.942h1.547v.884c.26-.312.585-.55.975-.715.39-.165.823-.247 1.3-.247.52 0 .98.1 1.378.299.407.191.728.477.962.858a2.833 2.833 0 011.105-.845c.45-.208.95-.312 1.495-.312zm12.202.078v5.889c0 2.444-1.248 3.666-3.744 3.666-.667 0-1.3-.087-1.898-.26-.598-.165-1.092-.407-1.482-.728l.728-1.222a3.4 3.4 0 001.144.598c.468.156.94.234 1.417.234.763 0 1.322-.173 1.677-.52.355-.347.533-.875.533-1.586v-.364a2.675 2.675 0 01-1.014.689 3.573 3.573 0 01-1.313.234 3.857 3.857 0 01-1.794-.416 3.282 3.282 0 01-1.26-1.196c-.304-.511-.456-1.096-.456-1.755 0-.659.152-1.239.455-1.742a3.185 3.185 0 011.261-1.183 3.857 3.857 0 011.794-.416c.503 0 .958.082 1.365.247.416.165.763.416 1.04.754v-.923h1.547zm-3.705 5.252c.615 0 1.118-.182 1.508-.546.399-.373.598-.854.598-1.443 0-.581-.2-1.053-.598-1.417-.39-.364-.892-.546-1.508-.546-.624 0-1.135.182-1.534.546-.39.364-.585.836-.585 1.417 0 .589.195 1.07.585 1.443.399.364.91.546 1.534.546zM4.043 291.13c-.702 0-1.382-.1-2.041-.299-.65-.199-1.166-.464-1.547-.793l.585-1.313c.373.295.828.537 1.365.728a5.153 5.153 0 001.638.273c.676 0 1.179-.108 1.508-.325.338-.217.507-.503.507-.858a.803.803 0 00-.286-.637 1.847 1.847 0 00-.702-.403 15.795 15.795 0 00-1.17-.325 14.02 14.02 0 01-1.69-.494 2.861 2.861 0 01-1.105-.767c-.303-.355-.455-.832-.455-1.43 0-.503.134-.958.403-1.365.277-.416.689-.745 1.235-.988.555-.243 1.23-.364 2.028-.364.555 0 1.1.069 1.638.208a4.536 4.536 0 011.391.598l-.533 1.313a5.245 5.245 0 00-1.248-.533 4.681 4.681 0 00-1.261-.182c-.667 0-1.166.113-1.495.338-.32.225-.481.524-.481.897 0 .26.091.472.273.637.19.165.429.295.715.39.286.095.676.204 1.17.325.676.156 1.23.321 1.664.494.433.165.802.42 1.105.767.312.347.468.815.468 1.404 0 .503-.139.958-.416 1.365-.269.407-.68.732-1.235.975s-1.23.364-2.028.364zm8.644-.039c-.702 0-1.335-.152-1.898-.455a3.377 3.377 0 01-1.326-1.261c-.312-.546-.468-1.161-.468-1.846s.156-1.296.468-1.833c.32-.537.762-.958 1.326-1.261.563-.303 1.196-.455 1.898-.455.71 0 1.347.152 1.91.455a3.286 3.286 0 011.314 1.261c.32.537.48 1.148.48 1.833s-.16 1.3-.48 1.846c-.312.537-.75.958-1.313 1.261-.564.303-1.2.455-1.911.455zm0-1.391c.598 0 1.092-.199 1.482-.598.39-.399.585-.923.585-1.573 0-.65-.195-1.174-.585-1.573-.39-.399-.884-.598-1.482-.598s-1.092.199-1.482.598c-.382.399-.572.923-.572 1.573 0 .65.19 1.174.572 1.573.39.399.884.598 1.482.598zm14.346-5.72c.875 0 1.568.256 2.08.767.511.503.767 1.261.767 2.275V291h-1.625v-3.77c0-.607-.135-1.062-.403-1.365-.269-.312-.655-.468-1.157-.468-.546 0-.984.182-1.313.546-.33.355-.494.867-.494 1.534V291h-1.625v-3.77c0-.607-.135-1.062-.403-1.365-.269-.312-.655-.468-1.157-.468-.555 0-.997.178-1.326.533-.321.355-.481.871-.481 1.547V291H18.27v-6.942h1.547v.884c.26-.312.585-.55.975-.715.39-.165.823-.247 1.3-.247.52 0 .979.1 1.378.299.407.191.728.477.962.858a2.833 2.833 0 011.105-.845c.45-.208.949-.312 1.495-.312zm9.096 0c.676 0 1.279.147 1.807.442a3.18 3.18 0 011.261 1.248c.304.537.455 1.157.455 1.859s-.151 1.326-.455 1.872a3.18 3.18 0 01-1.26 1.248c-.53.295-1.132.442-1.808.442-.936 0-1.677-.312-2.223-.936v3.367h-1.625v-9.464h1.547v.91a2.53 2.53 0 01.988-.741 3.4 3.4 0 011.313-.247zm-.182 5.72c.598 0 1.088-.199 1.47-.598.39-.399.584-.923.584-1.573 0-.65-.195-1.174-.585-1.573-.381-.399-.87-.598-1.469-.598-.39 0-.74.091-1.053.273a1.881 1.881 0 00-.74.754 2.327 2.327 0 00-.274 1.144c0 .433.091.815.273 1.144.182.329.43.585.741.767.312.173.663.26 1.053.26zm7.118-4.628c.468-.728 1.292-1.092 2.47-1.092v1.547a2.062 2.062 0 00-.377-.039c-.632 0-1.126.186-1.482.559-.355.364-.533.893-.533 1.586V291h-1.625v-6.942h1.547v1.014zm6.788-1.092c1.022 0 1.802.247 2.34.741.546.485.819 1.222.819 2.21V291h-1.534v-.845c-.2.303-.486.537-.858.702-.364.156-.806.234-1.326.234s-.975-.087-1.365-.26a2.22 2.22 0 01-.91-.741 1.94 1.94 0 01-.312-1.079c0-.624.23-1.122.689-1.495.468-.381 1.2-.572 2.197-.572h1.794v-.104c0-.485-.148-.858-.442-1.118-.286-.26-.715-.39-1.287-.39-.39 0-.776.061-1.157.182-.373.121-.69.29-.95.507l-.636-1.183c.364-.277.801-.49 1.313-.637a5.854 5.854 0 011.625-.221zm-.221 5.928c.407 0 .767-.091 1.079-.273.32-.191.546-.459.676-.806v-.806H49.71c-.936 0-1.404.308-1.404.923 0 .295.117.529.35.702.235.173.56.26.976.26zm11.211-.208v1.3H54.85v-1.027l3.81-4.615h-3.732v-1.3h5.811v1.027l-3.822 4.615h3.926zm8.393-7.8v9.1h-1.69v-7.683h-1.924V281.9h3.614zm5.926 9.23c-.728 0-1.378-.182-1.95-.546-.572-.373-1.023-.91-1.352-1.612-.33-.711-.494-1.551-.494-2.522 0-.971.165-1.807.494-2.509.33-.711.78-1.248 1.352-1.612.572-.373 1.222-.559 1.95-.559s1.378.186 1.95.559c.58.364 1.036.901 1.365 1.612.33.702.494 1.538.494 2.509 0 .971-.165 1.811-.494 2.522-.33.702-.784 1.239-1.365 1.612-.572.364-1.222.546-1.95.546zm0-1.469c.65 0 1.161-.269 1.534-.806.382-.537.572-1.339.572-2.405 0-1.066-.19-1.868-.572-2.405-.373-.537-.884-.806-1.534-.806-.641 0-1.153.269-1.534.806-.373.537-.559 1.339-.559 2.405 0 1.066.186 1.868.56 2.405.38.537.892.806 1.533.806zm9.072 1.469c-.728 0-1.378-.182-1.95-.546-.572-.373-1.023-.91-1.352-1.612-.33-.711-.494-1.551-.494-2.522 0-.971.165-1.807.494-2.509.33-.711.78-1.248 1.352-1.612.572-.373 1.222-.559 1.95-.559s1.378.186 1.95.559c.58.364 1.036.901 1.365 1.612.33.702.494 1.538.494 2.509 0 .971-.165 1.811-.494 2.522-.33.702-.784 1.239-1.365 1.612-.572.364-1.222.546-1.95.546zm0-1.469c.65 0 1.162-.269 1.534-.806.382-.537.572-1.339.572-2.405 0-1.066-.19-1.868-.572-2.405-.373-.537-.884-.806-1.534-.806-.641 0-1.152.269-1.534.806-.373.537-.559 1.339-.559 2.405 0 1.066.186 1.868.56 2.405.38.537.892.806 1.533.806zm12.34-7.761v9.1h-1.69v-7.683H92.96V281.9h3.614zm5.926 9.23c-.728 0-1.378-.182-1.95-.546-.572-.373-1.022-.91-1.352-1.612-.33-.711-.494-1.551-.494-2.522 0-.971.165-1.807.494-2.509.33-.711.78-1.248 1.352-1.612.572-.373 1.222-.559 1.95-.559s1.378.186 1.95.559c.581.364 1.036.901 1.365 1.612.33.702.494 1.538.494 2.509 0 .971-.164 1.811-.494 2.522-.329.702-.784 1.239-1.365 1.612-.572.364-1.222.546-1.95.546zm0-1.469c.65 0 1.162-.269 1.534-.806.382-.537.572-1.339.572-2.405 0-1.066-.19-1.868-.572-2.405-.372-.537-.884-.806-1.534-.806-.641 0-1.152.269-1.534.806-.372.537-.559 1.339-.559 2.405 0 1.066.187 1.868.559 2.405.382.537.893.806 1.534.806zm14.532-5.681c.876 0 1.569.256 2.08.767.512.503.767 1.261.767 2.275V291h-1.625v-3.77c0-.607-.134-1.062-.403-1.365-.268-.312-.654-.468-1.157-.468-.546 0-.983.182-1.313.546-.329.355-.494.867-.494 1.534V291h-1.625v-3.77c0-.607-.134-1.062-.403-1.365-.268-.312-.654-.468-1.157-.468-.554 0-.996.178-1.326.533-.32.355-.481.871-.481 1.547V291h-1.625v-6.942h1.547v.884c.26-.312.585-.55.975-.715.39-.165.824-.247 1.3-.247.52 0 .98.1 1.378.299.408.191.728.477.962.858a2.839 2.839 0 011.105-.845 3.526 3.526 0 011.495-.312zm12.202.078v5.889c0 2.444-1.248 3.666-3.744 3.666a6.8 6.8 0 01-1.898-.26c-.598-.165-1.092-.407-1.482-.728l.728-1.222a3.41 3.41 0 001.144.598c.468.156.941.234 1.417.234.763 0 1.322-.173 1.677-.52.356-.347.533-.875.533-1.586v-.364a2.67 2.67 0 01-1.014.689 3.57 3.57 0 01-1.313.234 3.86 3.86 0 01-1.794-.416 3.287 3.287 0 01-1.261-1.196c-.303-.511-.455-1.096-.455-1.755 0-.659.152-1.239.455-1.742a3.19 3.19 0 011.261-1.183 3.86 3.86 0 011.794-.416c.503 0 .958.082 1.365.247.416.165.763.416 1.04.754v-.923h1.547zm-3.705 5.252c.616 0 1.118-.182 1.508-.546.399-.373.598-.854.598-1.443 0-.581-.199-1.053-.598-1.417-.39-.364-.892-.546-1.508-.546-.624 0-1.135.182-1.534.546-.39.364-.585.836-.585 1.417 0 .589.195 1.07.585 1.443.399.364.91.546 1.534.546z" fill="#474747"/></svg>