<svg width="20" height="20" viewBox="0 0 20 20" fill="none" xmlns="http://www.w3.org/2000/svg"><path d="M15.877 10c0 1.095-.324 2.11-.877 2.952L17.943 16A9.69 9.69 0 0020 10a9.69 9.69 0 00-2.056-6L15 7.048A5.36 5.36 0 0115.877 10z" fill="#4FBA6F"/><path d="M12.848 14.542c-.87.604-1.92.958-3.053.958-2.652 0-4.857-1.938-5.334-4.5H0c.51 5.056 4.7 9 9.795 9A9.69 9.69 0 0016 17.755l-3.152-3.213z" fill="#48A0DC"/><path d="M4.461 9c.477-2.562 2.682-4.5 5.334-4.5 1.133 0 2.183.354 3.053.958L16 2.245A9.689 9.689 0 009.795 0C4.701 0 .51 3.944 0 9h4.461z" fill="#556080"/></svg>