<svg width="11" height="16" viewBox="0 0 11 16" fill="none" xmlns="http://www.w3.org/2000/svg"><path fill-rule="evenodd" clip-rule="evenodd" d="M8.692 3.665l1.77 1.325c.301.225.528.685.528 1.07v7.484c0 .458-.303 1.11-1.747 1.612-1.006.35-2.336.543-3.746.543-2.716 0-5.466-.733-5.47-2.135L.02 6.06c0-.385.226-.845.527-1.07l1.77-1.325c.17-.128.415-.405.522-.592l.24-.421s.043-.077-.035-.077h-.712a.336.336 0 01-.328-.34V.34c0-.188.148-.341.328-.341h6.345c.18 0 .328.153.328.34v1.894c0 .188-.147.341-.328.341H7.95c-.063 0-.024.07-.024.07l.245.427c.107.188.35.465.521.593zM9.02 14.46c.933-.324 1.264-.696 1.264-.915V6.055c0-.15 0-.308-.234-.469L8.28 4.261a3.129 3.129 0 01-.717-.814l-.435-.762s-.071-.11-.219-.11L5.7 2.574l-1.615-.001c-.141 0-.218.14-.218.14l-.42.734c-.155.272-.47.63-.717.814L.96 5.586c-.207.141-.233.323-.233.474l.007 7.5c0 .22.328.588 1.252.907.927.32 2.174.497 3.511.497 1.336 0 2.586-.18 3.522-.505z" fill="#575757"/><path fill-rule="evenodd" clip-rule="evenodd" d="M2.537 12.106h5.935c.343 0 .622-.29.622-.647V8.183a.655.655 0 00-.182-.457.607.607 0 00-.44-.19H2.537a.635.635 0 00-.622.647v3.276c0 .357.28.647.622.647zm5.926-.656H2.546V8.192h5.917v3.258z" fill="#575757"/></svg>