<svg width="29" height="38" viewBox="0 0 29 38" fill="none" xmlns="http://www.w3.org/2000/svg"><path d="M18.77 7.065a3.543 3.543 0 003.533-3.533A3.543 3.543 0 0018.771 0a3.543 3.543 0 00-3.532 3.532 3.543 3.543 0 003.532 3.533zM28.485 20.31V16.78c-3.268 0-6.093-1.767-7.683-4.328l-1.678-2.825c-.618-1.06-1.766-1.678-3.002-1.678-.442 0-.883.088-1.325.265L5.525 12.01v8.3h3.532v-5.916l3.09-1.236L9.41 27.375.756 25.698.05 29.142s12.363 2.384 12.363 2.472l1.678-7.77 3.797 3.531v10.597h3.532V24.638l-3.62-3.62 1.06-5.3c2.295 2.827 5.74 4.593 9.625 4.593z" fill="#FFC270"/></svg>