<svg width="82" height="16" viewBox="0 0 82 16" fill="none" xmlns="http://www.w3.org/2000/svg"><path d="M4.043 13.13c-.702 0-1.382-.1-2.041-.299-.65-.2-1.166-.464-1.547-.793l.585-1.313c.373.295.828.537 1.365.728a5.153 5.153 0 001.638.273c.676 0 1.179-.108 1.508-.325.338-.217.507-.503.507-.858a.803.803 0 00-.286-.637 1.847 1.847 0 00-.702-.403 15.795 15.795 0 00-1.17-.325 14.02 14.02 0 01-1.69-.494 2.861 2.861 0 01-1.105-.767C.802 7.562.65 7.085.65 6.487c0-.503.134-.958.403-1.365.277-.416.689-.745 1.235-.988.555-.243 1.23-.364 2.028-.364.555 0 1.1.07 1.638.208a4.528 4.528 0 011.391.598l-.533 1.313a5.258 5.258 0 00-1.248-.533 4.668 4.668 0 00-1.261-.182c-.667 0-1.166.113-1.495.338-.32.225-.481.524-.481.897 0 .26.091.472.273.637.19.165.429.295.715.39.286.095.676.204 1.17.325.676.156 1.23.32 1.664.494.433.165.802.42 1.105.767.312.347.468.815.468 1.404 0 .503-.139.958-.416 1.365-.269.407-.68.732-1.235.975s-1.23.364-2.028.364zm8.384-.039c-.72 0-1.365-.152-1.937-.455a3.355 3.355 0 01-1.34-1.261 3.576 3.576 0 01-.48-1.846c0-.685.16-1.296.48-1.833.321-.537.763-.958 1.327-1.261.572-.303 1.222-.455 1.95-.455.684 0 1.282.139 1.794.416.52.277.91.676 1.17 1.196l-1.248.728c-.2-.32-.45-.559-.754-.715a1.965 1.965 0 00-.975-.247c-.607 0-1.11.2-1.508.598-.399.39-.598.914-.598 1.573 0 .659.195 1.187.585 1.586.398.39.905.585 1.52.585.356 0 .681-.078.976-.234a2.02 2.02 0 00.754-.728l1.248.728c-.269.52-.663.923-1.183 1.209-.512.277-1.105.416-1.781.416zM20.67 5.98c.875 0 1.577.256 2.106.767.529.511.793 1.27.793 2.275V13h-1.625V9.23c0-.607-.143-1.062-.429-1.365-.286-.312-.693-.468-1.222-.468-.598 0-1.07.182-1.417.546-.347.355-.52.871-.52 1.547V13h-1.625V3.354h1.625v3.51c.269-.286.598-.503.988-.65a3.61 3.61 0 011.326-.234zm11.55 3.588c0 .113-.009.273-.026.481h-5.447c.095.511.342.919.74 1.222.408.295.91.442 1.509.442.763 0 1.39-.251 1.885-.754l.87 1.001a2.934 2.934 0 01-1.182.845 4.308 4.308 0 01-1.612.286c-.763 0-1.434-.152-2.015-.455a3.335 3.335 0 01-1.352-1.261c-.312-.546-.468-1.161-.468-1.846 0-.676.152-1.283.455-1.82.312-.546.74-.97 1.287-1.274.546-.303 1.161-.455 1.846-.455.676 0 1.278.152 1.807.455a3.07 3.07 0 011.248 1.261c.303.537.455 1.161.455 1.872zM28.71 7.28c-.52 0-.962.156-1.326.468-.355.303-.572.71-.65 1.222h3.939c-.07-.503-.282-.91-.637-1.222-.355-.312-.797-.468-1.326-.468zm11.87-3.926V13h-1.56v-.897c-.269.33-.602.576-1.001.741a3.31 3.31 0 01-1.3.247c-.667 0-1.27-.147-1.807-.442a3.2 3.2 0 01-1.248-1.248c-.303-.546-.455-1.17-.455-1.872 0-.702.151-1.322.455-1.859a3.2 3.2 0 011.248-1.248 3.695 3.695 0 011.807-.442c.46 0 .88.078 1.26.234.382.156.707.39.976.702V3.354h1.625zM36.915 11.7c.39 0 .74-.087 1.053-.26.312-.182.559-.438.74-.767.183-.33.274-.71.274-1.144 0-.433-.091-.815-.273-1.144a1.881 1.881 0 00-.741-.754 2.05 2.05 0 00-1.053-.273c-.39 0-.741.091-1.053.273a1.881 1.881 0 00-.741.754c-.182.33-.273.71-.273 1.144 0 .433.09.815.273 1.144.182.33.429.585.74.767.313.173.664.26 1.054.26zm12.513-5.642V13H47.88v-.884c-.26.312-.585.555-.975.728-.39.165-.81.247-1.261.247-.928 0-1.66-.256-2.197-.767-.529-.52-.793-1.287-.793-2.301V6.058h1.625v3.744c0 .624.138 1.092.416 1.404.286.303.689.455 1.209.455.58 0 1.04-.178 1.378-.533.346-.364.52-.884.52-1.56v-3.51h1.625zm2.127-2.704h1.625V13h-1.625V3.354zM61.84 9.568c0 .113-.009.273-.026.481h-5.447c.095.511.342.919.741 1.222.407.295.91.442 1.508.442.763 0 1.391-.251 1.885-.754l.871 1.001a2.935 2.935 0 01-1.183.845 4.308 4.308 0 01-1.612.286c-.763 0-1.434-.152-2.015-.455a3.334 3.334 0 01-1.352-1.261c-.312-.546-.468-1.161-.468-1.846 0-.676.152-1.283.455-1.82.312-.546.741-.97 1.287-1.274.546-.303 1.161-.455 1.846-.455.676 0 1.278.152 1.807.455a3.07 3.07 0 011.248 1.261c.303.537.455 1.161.455 1.872zM58.33 7.28c-.52 0-.962.156-1.326.468-.355.303-.572.71-.65 1.222h3.94c-.07-.503-.283-.91-.638-1.222-.355-.312-.797-.468-1.326-.468z" fill="#AFAFAF"/></svg>