<svg width="18" height="18" viewBox="0 0 18 18" fill="none" xmlns="http://www.w3.org/2000/svg"><path d="M16.86 16.14l-.71.704.002.003.708-.706zm-.717.704l-.71.703.002.003.708-.706zm-4.83-4.875l.71-.704-.659-.666-.707.615.656.755zm.702-.719l-.768-.641-.583.698.64.647.71-.704zm4.137 5.597a.533.533 0 01-.152-.355h2c0-.387-.14-.764-.432-1.057l-1.416 1.412zM16 16.492a.495.495 0 01.144-.347l1.416 1.413a1.49 1.49 0 00.44-1.066h-2zm.144-.347a.521.521 0 01.358-.145v2c.41 0 .78-.163 1.058-.442l-1.416-1.413zm.358-.145a.528.528 0 01.35.138l-1.417 1.412c.273.274.64.45 1.066.45v-2zm.352.14l-4.83-4.875-1.42 1.407 4.829 4.875 1.42-1.407zm-6.197-4.926c-.992.864-2.12 1.286-3.425 1.286v2c1.79 0 3.383-.598 4.738-1.777l-1.313-1.509zM7.232 12.5c-.96 0-1.829-.234-2.628-.7l-1.008 1.728a7.105 7.105 0 003.636.972v-2zm-2.628-.7A5.172 5.172 0 012.7 9.89l-1.73 1.003a7.172 7.172 0 002.627 2.636L4.604 11.8zM2.7 9.89A5.151 5.151 0 012 7.25H0a7.15 7.15 0 00.968 3.642l1.73-1.003zM2 7.25c0-.964.234-1.837.699-2.639L.969 3.608A7.15 7.15 0 000 7.25h2zm.699-2.639A5.173 5.173 0 014.604 2.7L3.596.972A7.172 7.172 0 00.968 3.608l1.73 1.003zM4.604 2.7c.8-.467 1.667-.7 2.62-.7V0a7.09 7.09 0 00-3.628.972L4.604 2.7zm2.62-.7c.953 0 1.824.233 2.63.7L10.857.97A7.133 7.133 0 007.224 0v2zm2.63.7a5.155 5.155 0 011.91 1.911l1.731-1.003A7.155 7.155 0 0010.857.97L9.854 2.7zm1.91 1.911c.466.802.7 1.675.7 2.639h2a7.15 7.15 0 00-.969-3.642l-1.73 1.003zm.7 2.639c0 1.277-.402 2.383-1.217 3.359l1.535 1.282a7.057 7.057 0 001.681-4.641h-2zm-1.16 4.704l4.845 4.89 1.421-1.407-4.845-4.89-1.42 1.407zm-4.072 1.562c.483 0 .96-.056 1.43-.168L8.2 11.402c-.319.076-.641.114-.968.114v2zm1.43-.168c.466-.11.908-.27 1.324-.478l-.897-1.787c-.27.135-.565.242-.889.32l.462 1.945zm1.324-.478a6.534 6.534 0 001.14-.728L9.88 10.577c-.247.197-.511.365-.792.506l.897 1.787zm1.14-.728c.364-.29.69-.62.977-.99l-1.579-1.227a3.84 3.84 0 01-.643.652l1.245 1.565zm.977-.99c.279-.358.52-.74.72-1.143l-1.789-.893a4.813 4.813 0 01-.51.81l1.579 1.227zm.72-1.143a6.11 6.11 0 00.476-1.326l-1.946-.46a4.112 4.112 0 01-.319.893l1.79.893zm.476-1.326c.112-.471.167-.95.167-1.433h-2c0 .329-.037.653-.113.973l1.946.46zm.167-1.433c0-1.12-.278-2.172-.835-3.134L10.9 5.118c.378.653.566 1.357.566 2.132h2zm-.835-3.134a6.243 6.243 0 00-2.267-2.282L9.35 3.557c.657.387 1.17.903 1.55 1.561l1.732-1.002zm-2.267-2.282a6.096 6.096 0 00-3.14-.85v2c.775 0 1.477.191 2.125.573l1.015-1.723zm-3.14-.85a6.096 6.096 0 00-3.14.85l1.014 1.723a4.097 4.097 0 012.126-.573v-2zm-3.14.85a6.243 6.243 0 00-2.267 2.282l1.731 1.002a4.244 4.244 0 011.55-1.561L4.084 1.834zM1.817 4.116A6.163 6.163 0 00.981 7.25h2c0-.775.19-1.48.567-2.132l-1.73-1.002zM.981 7.25c0 1.12.28 2.172.836 3.134l1.731-1.002a4.164 4.164 0 01-.567-2.132h-2zm.836 3.134a6.243 6.243 0 002.267 2.282l1.014-1.723a4.244 4.244 0 01-1.55-1.561l-1.73 1.002zm2.267 2.282a6.11 6.11 0 003.148.85v-2a4.112 4.112 0 01-2.134-.573l-1.014 1.723z" fill="#B6B6B6"/></svg>