<svg width="24" height="24" viewBox="0 0 24 24" fill="none" xmlns="http://www.w3.org/2000/svg"><path fill-rule="evenodd" clip-rule="evenodd" d="M22.5 9.727c.188.03.367.093.54.187.64.328.96.797.96 1.406v1.5c0 .375-.148.696-.445.961a2.342 2.342 0 01-1.055.54l-1.945.468a8.34 8.34 0 01-.54 1.29l1.032 1.733c.219.36.34.72.363 1.079.024.359-.098.71-.363 1.054L19.992 21a1.518 1.518 0 01-1.078.41 2.015 2.015 0 01-1.102-.34l-1.687-1.078c-.438.235-.89.422-1.36.563l-.421 1.945a2.07 2.07 0 01-.281.715c-.141.226-.329.414-.563.562a1.377 1.377 0 01-.75.223h-1.5c-.375 0-.695-.148-.96-.445a2.343 2.343 0 01-.54-1.055l-.469-1.922a6.879 6.879 0 01-.293-.105l-.61-.235a3.35 3.35 0 01-.292-.129l-.281-.14L6.07 21.07a1.9 1.9 0 01-1.078.34A1.518 1.518 0 013.914 21l-1.078-1.055c-.266-.343-.387-.695-.363-1.054.023-.36.144-.72.363-1.078l1.102-1.829a8.412 8.412 0 01-.493-1.195L1.5 14.32a2.342 2.342 0 01-1.055-.539c-.297-.265-.445-.586-.445-.96v-1.5c0-.407.152-.755.457-1.044a2.088 2.088 0 011.043-.55l1.922-.422c.125-.407.297-.836.515-1.29L2.837 6.188a2.362 2.362 0 01-.363-1.078c-.024-.359.097-.71.363-1.054L3.914 3c.188-.188.414-.309.68-.363a1.9 1.9 0 01.785 0c.258.054.488.152.691.293L7.805 4.03a8.519 8.519 0 011.453-.61L9.75 1.5c.094-.406.27-.758.527-1.055.258-.297.582-.445.973-.445h1.5c.39 0 .734.152 1.031.457.297.305.485.645.563 1.02l.422 1.968c.062.016.129.035.199.059a3.635 3.635 0 01.399.152c.07.032.136.059.199.082.062.024.124.051.187.082l.375.188 1.688-1.078c.156-.094.328-.172.515-.235.188-.062.379-.097.574-.105.196-.008.391.023.586.094.196.07.364.175.504.316l1.055 1.055c.187.187.305.414.351.68.047.265.036.519-.035.761a2.63 2.63 0 01-.316.691l-1.031 1.735c.234.469.422.93.562 1.383l1.922.422zm.666 3.02l.024-1.42c-.05-.083-.166-.141-.349-.174l-2.966-.673-.274-.873c-.05-.2-.116-.399-.2-.598a7 7 0 00-.298-.623l-.399-.798 1.57-2.617a.56.56 0 00.1-.2.779.779 0 01.05-.149L19.377 3.6a.66.66 0 00-.324.1l-2.567 1.645-.823-.424a8.566 8.566 0 00-1.221-.498l-.873-.3-.648-3.015a.158.158 0 01-.037-.075.386.386 0 00-.025-.075.198.198 0 00-.037-.05l-.025-.074h-1.47a.883.883 0 00-.175.399l-.723 2.89-.847.275c-.45.15-.881.332-1.297.548l-.822.424-2.667-1.695-.274-.124-1.047 1.046c0 .05.017.113.05.187.033.075.066.146.1.212l1.62 2.692-.4.773a7.35 7.35 0 00-.448 1.146l-.274.873-3.016.673a.224.224 0 00-.112.037 2.555 2.555 0 00-.1.062.121.121 0 01-.062.025v1.47c.1.067.233.117.399.15l2.916.748.274.848c.116.332.266.68.449 1.046l.374.773-1.62 2.717a.978.978 0 00-.15.374l1.047 1.021a.57.57 0 00.324-.124l2.617-1.67.822.424a1.394 1.394 0 00.287.15c.042.016.087.037.137.061.05.026.1.046.15.063.05.017.1.037.15.062.05.025.099.046.149.063l.15.05c.05.016.095.033.136.05.042.016.088.032.138.049l.847.274.748 2.941c.033.133.083.25.15.35h1.445a.73.73 0 00.175-.324l.647-2.967.873-.299c.133-.033.266-.079.399-.137l.398-.175a8.55 8.55 0 00.4-.186l.822-.424 2.617 1.67c.016.017.05.037.1.062s.108.046.174.063l1.047-1.047a1.195 1.195 0 00-.15-.4l-1.57-2.591.399-.798a4.9 4.9 0 00.261-.56c.075-.192.146-.387.212-.587l.274-.822 2.967-.748.15-.05a.962.962 0 00.124-.05.286.286 0 00.075-.05zm-7.967-3.934c.883.874 1.324 1.937 1.324 3.187a4.44 4.44 0 01-.351 1.746 4.48 4.48 0 01-.961 1.441 4.478 4.478 0 01-1.441.961A4.499 4.499 0 0112 16.5c-1.234 0-2.293-.438-3.176-1.313C7.941 14.313 7.5 13.25 7.5 12c0-1.25.441-2.313 1.324-3.188.883-.874 1.946-1.312 3.188-1.312 1.242 0 2.304.438 3.187 1.313zm-1.078 5.308A2.89 2.89 0 0015 12a2.89 2.89 0 00-.879-2.121A2.89 2.89 0 0012 9a2.89 2.89 0 00-2.121.879A2.89 2.89 0 009 12c0 .828.293 1.535.879 2.121A2.89 2.89 0 0012 15a2.89 2.89 0 002.121-.879z" fill="#797979"/></svg>