<svg width="51" height="15" viewBox="0 0 51 15" fill="none" xmlns="http://www.w3.org/2000/svg"><path d="M3.732 12.12a6.468 6.468 0 01-1.884-.276c-.6-.184-1.076-.428-1.428-.732L.96 9.9a4.37 4.37 0 001.26.672 4.757 4.757 0 001.512.252c.624 0 1.088-.1 1.392-.3.312-.2.468-.464.468-.792a.741.741 0 00-.264-.588 1.705 1.705 0 00-.648-.372 14.58 14.58 0 00-1.08-.3c-.64-.152-1.16-.304-1.56-.456a2.641 2.641 0 01-1.02-.708C.74 6.98.6 6.54.6 5.988c0-.464.124-.884.372-1.26.256-.384.636-.688 1.14-.912.512-.224 1.136-.336 1.872-.336.512 0 1.016.064 1.512.192a4.18 4.18 0 011.284.552l-.492 1.212a4.854 4.854 0 00-1.152-.492 4.31 4.31 0 00-1.164-.168c-.616 0-1.076.104-1.38.312-.296.208-.444.484-.444.828 0 .24.084.436.252.588.176.152.396.272.66.36.264.088.624.188 1.08.3a10.73 10.73 0 011.536.456c.4.152.74.388 1.02.708.288.32.432.752.432 1.296 0 .464-.128.884-.384 1.26-.248.376-.628.676-1.14.9-.512.224-1.136.336-1.872.336zm11.003-6.528V12h-1.428v-.816c-.24.288-.54.512-.9.672-.36.152-.748.228-1.164.228-.856 0-1.532-.236-2.028-.708-.488-.48-.732-1.188-.732-2.124v-3.66h1.5v3.456c0 .576.128 1.008.384 1.296.264.28.636.42 1.116.42.536 0 .96-.164 1.272-.492.32-.336.48-.816.48-1.44v-3.24h1.5zm5.516-.072c.624 0 1.18.136 1.668.408.496.272.884.656 1.164 1.152.28.496.42 1.068.42 1.716 0 .648-.14 1.224-.42 1.728-.28.496-.668.88-1.164 1.152-.488.272-1.044.408-1.668.408-.864 0-1.548-.288-2.052-.864v3.108h-1.5V5.592h1.428v.84a2.33 2.33 0 01.912-.684 3.145 3.145 0 011.212-.228zm-.168 5.28c.552 0 1.004-.184 1.356-.552.36-.368.54-.852.54-1.452s-.18-1.084-.54-1.452c-.352-.368-.804-.552-1.356-.552-.36 0-.684.084-.972.252-.288.16-.516.392-.684.696a2.148 2.148 0 00-.252 1.056c0 .4.084.752.252 1.056.168.304.396.54.684.708.288.16.612.24.972.24zm8.394-5.28c.624 0 1.18.136 1.668.408.496.272.884.656 1.164 1.152.28.496.42 1.068.42 1.716 0 .648-.14 1.224-.42 1.728-.28.496-.668.88-1.164 1.152-.488.272-1.044.408-1.668.408-.864 0-1.548-.288-2.052-.864v3.108h-1.5V5.592h1.428v.84a2.33 2.33 0 01.912-.684 3.145 3.145 0 011.212-.228zm-.168 5.28c.552 0 1.004-.184 1.356-.552.36-.368.54-.852.54-1.452s-.18-1.084-.54-1.452c-.352-.368-.804-.552-1.356-.552-.36 0-.684.084-.972.252-.288.16-.516.392-.684.696a2.148 2.148 0 00-.252 1.056c0 .4.084.752.252 1.056.168.304.396.54.684.708.288.16.612.24.972.24zm7.723 1.284c-.648 0-1.232-.14-1.752-.42a3.117 3.117 0 01-1.224-1.164 3.373 3.373 0 01-.432-1.704c0-.632.144-1.196.432-1.692A3.117 3.117 0 0134.28 5.94c.52-.28 1.104-.42 1.752-.42.656 0 1.244.14 1.764.42.52.28.924.668 1.212 1.164.296.496.444 1.06.444 1.692 0 .632-.148 1.2-.444 1.704a3.033 3.033 0 01-1.212 1.164c-.52.28-1.108.42-1.764.42zm0-1.284c.552 0 1.008-.184 1.368-.552.36-.368.54-.852.54-1.452s-.18-1.084-.54-1.452c-.36-.368-.816-.552-1.368-.552-.552 0-1.008.184-1.368.552-.352.368-.528.852-.528 1.452s.176 1.084.528 1.452c.36.368.816.552 1.368.552zm6.282-4.272c.432-.672 1.192-1.008 2.28-1.008v1.428a1.904 1.904 0 00-.348-.036c-.584 0-1.04.172-1.368.516-.328.336-.492.824-.492 1.464V12h-1.5V5.592h1.428v.936zm7.64 5.124a1.762 1.762 0 01-.649.324 2.828 2.828 0 01-.792.108c-.704 0-1.248-.184-1.632-.552-.384-.368-.576-.904-.576-1.608V6.84H45.25v-1.2h1.056V4.176h1.5V5.64h1.716v1.2h-1.716v3.048c0 .312.076.552.228.72.152.16.372.24.66.24.336 0 .616-.088.84-.264l.42 1.068z" fill="#fff"/></svg>