<svg width="44" height="25" viewBox="0 0 44 25" fill="none" xmlns="http://www.w3.org/2000/svg"><circle cx="34.154" cy="8.503" r="7.147" fill="#79C9FF"/><path d="M18.758 9.837l-8.95 6.41a6.37 6.37 0 011.289-.128c2.145 0 3.334.952 4.12 1.582.577.462.771.617 1.372.617.602 0 .796-.155 1.373-.617.786-.63 1.975-1.582 4.12-1.582s3.334.952 4.12 1.582c.577.462.772.617 1.373.617s.796-.155 1.372-.617a10 10 0 01.943-.69L23.632 6.438 15.082.055l-9.769 2.77-1.228 5.637 10.158-1.995 4.515 3.37z" fill="#79C9FF"/><path d="M39.822 19.436c-.576.462-.77.617-1.372.617-.602 0-.796-.155-1.373-.617-.786-.63-1.976-1.582-4.12-1.582-2.146 0-3.335.952-4.121 1.582-.577.462-.771.617-1.372.617-.602 0-.796-.155-1.373-.617-.786-.63-1.975-1.582-4.12-1.582s-3.334.952-4.121 1.582c-.576.462-.77.617-1.372.617-.601 0-.795-.155-1.372-.617-.787-.63-1.976-1.582-4.12-1.582-2.145 0-3.334.952-4.121 1.582-.577.462-.77.617-1.372.617-.602 0-.796-.155-1.372-.617-.787-.63-1.976-1.582-4.121-1.582v4.398c.601 0 .796.155 1.372.617.787.63 1.976 1.582 4.12 1.582 2.146 0 3.335-.952 4.121-1.582.577-.462.771-.617 1.373-.617.6 0 .795.155 1.371.617.787.63 1.976 1.582 4.121 1.582 2.145 0 3.334-.952 4.12-1.582.577-.462.771-.617 1.373-.617.601 0 .795.155 1.372.617.787.63 1.976 1.582 4.12 1.582 2.146 0 3.334-.952 4.121-1.582.577-.462.771-.617 1.372-.617.602 0 .796.156 1.373.617.787.63 1.976 1.582 4.121 1.582 2.145 0 3.334-.952 4.12-1.582.578-.462.772-.617 1.373-.617v-4.398c-2.145 0-3.334.952-4.12 1.582z" fill="#79C9FF"/></svg>