<svg width="15" height="15" viewBox="0 0 15 15" fill="none" xmlns="http://www.w3.org/2000/svg"><path fill-rule="evenodd" clip-rule="evenodd" d="M11.45 14.656l-.392-.392.707-.706-1.967-1.967 2.138-2.136L13.9 11.42l.706-.707.393.393-3.55 3.55zm-2.89-2.414l4.027-4.023-.475-.477-4.028 4.024.475.476zM5.11 2.162L2.506 4.765l5.923 5.922 2.603-2.604L5.11 2.162zM3.113 4.848l2.08-2.08 5.274 5.276-2.08 2.078-5.274-5.274zM3.029 3.55l.866-.867L.692 0 .344.347l2.685 3.204zm3.436.5L5.163 5.355l-.487-.487 1.301-1.302.488.487zm-.101 2.504l1.301-1.302-.487-.487-1.302 1.302.488.487zm2.463-.14l-1.3 1.302-.489-.487 1.3-1.303.49.488zm-.272 2.33l1.301-1.3-.487-.488L8.068 8.26l.487.486z" fill="#575757"/></svg>