<svg width="24" height="38" viewBox="0 0 24 38" fill="none" xmlns="http://www.w3.org/2000/svg"><path d="M13.301 7.065a3.543 3.543 0 003.533-3.533A3.543 3.543 0 0013.3 0 3.543 3.543 0 009.77 3.532a3.543 3.543 0 003.532 3.533zM23.015 20.31v-3.532c-3.267 0-6.093-1.766-7.683-4.327l-1.677-2.825c-.618-1.06-1.766-1.678-3.003-1.678-.441 0-.883.088-1.324.265L.055 12.01v8.3h3.533v-5.916l3.09-1.324-4.857 24.902h3.71l3.09-14.129 3.797 3.532v10.597h3.533V24.638l-3.62-3.62 1.059-5.3c2.296 2.827 5.74 4.593 9.625 4.593z" fill="#FF8989"/></svg>