<svg width="59" height="15" viewBox="0 0 59 15" fill="none" xmlns="http://www.w3.org/2000/svg"><path d="M4.032 12.12a3.28 3.28 0 01-1.8-.504c-.528-.344-.944-.84-1.248-1.488C.68 9.472.528 8.696.528 7.8c0-.896.152-1.668.456-2.316.304-.656.72-1.152 1.248-1.488a3.224 3.224 0 011.8-.516c.672 0 1.272.172 1.8.516.536.336.956.832 1.26 1.488.304.648.456 1.42.456 2.316 0 .896-.152 1.672-.456 2.328-.304.648-.724 1.144-1.26 1.488a3.28 3.28 0 01-1.8.504zm0-1.356c.6 0 1.072-.248 1.416-.744.352-.496.528-1.236.528-2.22 0-.984-.176-1.724-.528-2.22-.344-.496-.816-.744-1.416-.744-.592 0-1.064.248-1.416.744-.344.496-.516 1.236-.516 2.22 0 .984.172 1.724.516 2.22.352.496.824.744 1.416.744zM15.255 3.6v1.044L11.99 12h-1.668l3.156-7.08h-3.3v1.428H8.727V3.6h6.528zm2.041 3.912a.97.97 0 01-.696-.276.977.977 0 01-.288-.72c0-.296.092-.536.276-.72a.984.984 0 01.708-.276c.28 0 .512.092.696.276.192.184.288.424.288.72a.977.977 0 01-.288.72.97.97 0 01-.696.276zm0 4.572a.97.97 0 01-.696-.276.977.977 0 01-.288-.72c0-.296.092-.536.276-.72a.984.984 0 01.708-.276c.28 0 .512.092.696.276.192.184.288.424.288.72a.977.977 0 01-.288.72.97.97 0 01-.696.276zm5.945-5.016c.776.096 1.368.36 1.776.792.408.432.612.972.612 1.62 0 .488-.124.932-.372 1.332s-.624.72-1.128.96c-.496.232-1.104.348-1.824.348-.6 0-1.18-.084-1.74-.252a4.535 4.535 0 01-1.416-.72l.672-1.212c.304.256.672.46 1.104.612.44.144.892.216 1.356.216.552 0 .984-.112 1.296-.336.32-.232.48-.544.48-.936s-.152-.696-.456-.912c-.296-.224-.752-.336-1.368-.336h-.768V7.176l1.908-2.268h-3.816V3.6h5.724v1.044l-2.04 2.424zm7.287 5.052a3.28 3.28 0 01-1.8-.504c-.528-.344-.944-.84-1.248-1.488-.304-.656-.456-1.432-.456-2.328 0-.896.152-1.668.456-2.316.304-.656.72-1.152 1.248-1.488a3.224 3.224 0 011.8-.516c.672 0 1.272.172 1.8.516.536.336.956.832 1.26 1.488.304.648.456 1.42.456 2.316 0 .896-.152 1.672-.456 2.328-.304.648-.724 1.144-1.26 1.488a3.28 3.28 0 01-1.8.504zm0-1.356c.6 0 1.072-.248 1.416-.744.352-.496.528-1.236.528-2.22 0-.984-.176-1.724-.528-2.22-.344-.496-.816-.744-1.416-.744-.592 0-1.064.248-1.416.744-.344.496-.516 1.236-.516 2.22 0 .984.172 1.724.516 2.22.352.496.824.744 1.416.744zm11.54-5.244c.945 0 1.665.228 2.16.684.505.448.757 1.128.757 2.04V12h-1.416v-.78c-.184.28-.448.496-.792.648-.336.144-.744.216-1.224.216s-.9-.08-1.26-.24a2.05 2.05 0 01-.84-.684 1.79 1.79 0 01-.288-.996c0-.576.212-1.036.636-1.38.432-.352 1.108-.528 2.028-.528h1.656V8.16c0-.448-.136-.792-.408-1.032-.264-.24-.66-.36-1.188-.36-.36 0-.716.056-1.068.168a2.617 2.617 0 00-.876.468l-.588-1.092c.336-.256.74-.452 1.212-.588a5.393 5.393 0 011.5-.204zm-.203 5.472c.376 0 .708-.084.996-.252.296-.176.504-.424.624-.744v-.744h-1.548c-.864 0-1.296.284-1.296.852 0 .272.108.488.324.648.216.16.516.24.9.24zM55.373 5.52c.808 0 1.448.236 1.92.708.472.464.708 1.164.708 2.1V12h-1.5V8.52c0-.56-.124-.98-.372-1.26-.248-.288-.604-.432-1.068-.432-.504 0-.908.168-1.212.504-.304.328-.456.8-.456 1.416V12h-1.5V8.52c0-.56-.124-.98-.372-1.26-.248-.288-.604-.432-1.068-.432-.512 0-.92.164-1.224.492-.296.328-.444.804-.444 1.428V12h-1.5V5.592h1.428v.816c.24-.288.54-.508.9-.66.36-.152.76-.228 1.2-.228.48 0 .904.092 1.272.276.376.176.672.44.888.792a2.619 2.619 0 011.02-.78 3.254 3.254 0 011.38-.288z" fill="#474747"/></svg>