<svg width="60" height="15" viewBox="0 0 60 15" fill="none" xmlns="http://www.w3.org/2000/svg"><path d="M4.032 12.12a3.28 3.28 0 01-1.8-.504c-.528-.344-.944-.84-1.248-1.488C.68 9.472.528 8.696.528 7.8c0-.896.152-1.668.456-2.316.304-.656.72-1.152 1.248-1.488a3.224 3.224 0 011.8-.516c.672 0 1.272.172 1.8.516.536.336.956.832 1.26 1.488.304.648.456 1.42.456 2.316 0 .896-.152 1.672-.456 2.328-.304.648-.724 1.144-1.26 1.488a3.28 3.28 0 01-1.8.504zm0-1.356c.6 0 1.072-.248 1.416-.744.352-.496.528-1.236.528-2.22 0-.984-.176-1.724-.528-2.22-.344-.496-.816-.744-1.416-.744-.592 0-1.064.248-1.416.744-.344.496-.516 1.236-.516 2.22 0 .984.172 1.724.516 2.22.352.496.824.744 1.416.744zm10.393-3.18c.44.2.776.472 1.008.816.24.336.36.732.36 1.188 0 .512-.144.96-.432 1.344-.28.384-.68.68-1.2.888-.52.2-1.124.3-1.812.3s-1.292-.1-1.812-.3c-.512-.208-.908-.504-1.188-.888a2.22 2.22 0 01-.42-1.344c0-.456.116-.852.348-1.188.232-.344.564-.616.996-.816a2.06 2.06 0 01-.78-.72A2.045 2.045 0 019.23 5.82c0-.472.128-.884.384-1.236.264-.352.632-.624 1.104-.816.472-.192 1.016-.288 1.632-.288.624 0 1.172.096 1.644.288.472.192.84.464 1.104.816.264.352.396.764.396 1.236 0 .392-.092.736-.276 1.032-.184.296-.448.54-.792.732zm-2.076-2.88c-.488 0-.876.104-1.164.312-.28.208-.42.5-.42.876 0 .36.14.648.42.864.288.208.676.312 1.164.312.496 0 .888-.104 1.176-.312.288-.216.432-.504.432-.864 0-.376-.148-.668-.444-.876-.288-.208-.676-.312-1.164-.312zm0 6.192c.576 0 1.032-.12 1.368-.36.336-.24.504-.572.504-.996 0-.416-.168-.744-.504-.984-.336-.24-.792-.36-1.368-.36-.576 0-1.028.12-1.356.36-.328.24-.492.568-.492.984 0 .424.164.756.492.996.328.24.78.36 1.356.36zm5.767-3.384a.97.97 0 01-.696-.276.977.977 0 01-.288-.72c0-.296.092-.536.276-.72a.984.984 0 01.708-.276c.28 0 .512.092.696.276.192.184.288.424.288.72a.977.977 0 01-.288.72.97.97 0 01-.696.276zm0 4.572a.97.97 0 01-.696-.276.977.977 0 01-.288-.72c0-.296.092-.536.276-.72a.984.984 0 01.708-.276c.28 0 .512.092.696.276.192.184.288.424.288.72a.977.977 0 01-.288.72.97.97 0 01-.696.276zm5.945-5.016c.776.096 1.368.36 1.776.792.408.432.612.972.612 1.62 0 .488-.124.932-.372 1.332s-.624.72-1.128.96c-.496.232-1.104.348-1.824.348-.6 0-1.18-.084-1.74-.252a4.535 4.535 0 01-1.416-.72l.672-1.212c.304.256.672.46 1.104.612.44.144.892.216 1.356.216.552 0 .984-.112 1.296-.336.32-.232.48-.544.48-.936s-.152-.696-.456-.912c-.296-.224-.752-.336-1.368-.336h-.768V7.176l1.908-2.268h-3.816V3.6h5.724v1.044l-2.04 2.424zm7.287 5.052a3.28 3.28 0 01-1.8-.504c-.528-.344-.944-.84-1.248-1.488-.304-.656-.456-1.432-.456-2.328 0-.896.152-1.668.456-2.316.304-.656.72-1.152 1.248-1.488a3.224 3.224 0 011.8-.516c.672 0 1.272.172 1.8.516.536.336.956.832 1.26 1.488.304.648.456 1.42.456 2.316 0 .896-.152 1.672-.456 2.328-.304.648-.724 1.144-1.26 1.488a3.28 3.28 0 01-1.8.504zm0-1.356c.6 0 1.072-.248 1.416-.744.352-.496.528-1.236.528-2.22 0-.984-.176-1.724-.528-2.22-.344-.496-.816-.744-1.416-.744-.592 0-1.064.248-1.416.744-.344.496-.516 1.236-.516 2.22 0 .984.172 1.724.516 2.22.352.496.824.744 1.416.744zM42.89 5.52c.944 0 1.664.228 2.16.684.504.448.756 1.128.756 2.04V12h-1.416v-.78c-.184.28-.448.496-.792.648-.336.144-.744.216-1.224.216s-.9-.08-1.26-.24a2.05 2.05 0 01-.84-.684 1.79 1.79 0 01-.288-.996c0-.576.212-1.036.636-1.38.432-.352 1.108-.528 2.028-.528h1.656V8.16c0-.448-.136-.792-.408-1.032-.264-.24-.66-.36-1.188-.36-.36 0-.716.056-1.068.168a2.617 2.617 0 00-.876.468l-.588-1.092c.336-.256.74-.452 1.212-.588a5.393 5.393 0 011.5-.204zm-.204 5.472c.376 0 .708-.084.996-.252.296-.176.504-.424.624-.744v-.744h-1.548c-.864 0-1.296.284-1.296.852 0 .272.108.488.324.648.216.16.516.24.9.24zM56.193 5.52c.808 0 1.448.236 1.92.708.472.464.708 1.164.708 2.1V12h-1.5V8.52c0-.56-.124-.98-.372-1.26-.248-.288-.604-.432-1.068-.432-.504 0-.908.168-1.212.504-.304.328-.456.8-.456 1.416V12h-1.5V8.52c0-.56-.124-.98-.372-1.26-.248-.288-.604-.432-1.068-.432-.512 0-.92.164-1.224.492-.296.328-.444.804-.444 1.428V12h-1.5V5.592h1.428v.816c.24-.288.54-.508.9-.66.36-.152.76-.228 1.2-.228.48 0 .904.092 1.272.276.376.176.672.44.888.792a2.619 2.619 0 011.02-.78 3.254 3.254 0 011.38-.288z" fill="#474747"/></svg>