<svg width="101" height="28" viewBox="0 0 101 28" fill="none" xmlns="http://www.w3.org/2000/svg"><path d="M8.816 18.24V20H.56v-1.392l4.448-4.224c.501-.48.837-.896 1.008-1.248.181-.363.272-.72.272-1.072 0-.523-.176-.923-.528-1.2-.352-.277-.87-.416-1.552-.416-1.141 0-2.016.39-2.624 1.168l-1.456-1.12c.437-.587 1.024-1.04 1.76-1.36.747-.33 1.579-.496 2.496-.496 1.216 0 2.187.288 2.912.864.725.576 1.088 1.36 1.088 2.352 0 .608-.128 1.179-.384 1.712-.256.533-.747 1.141-1.472 1.824L3.536 18.24h5.28zm4.976-9.6c1.537 0 2.726.48 3.568 1.44.854.96 1.28 2.336 1.28 4.128 0 1.259-.229 2.336-.688 3.232-.458.885-1.104 1.563-1.936 2.032-.82.459-1.775.688-2.863.688-.577 0-1.12-.059-1.633-.176a4.576 4.576 0 01-1.311-.544l.768-1.568c.554.363 1.264.544 2.127.544 1.078 0 1.92-.33 2.529-.992.608-.661.912-1.616.912-2.864v-.016c-.331.384-.753.677-1.265.88-.511.192-1.087.288-1.727.288-.737 0-1.398-.139-1.985-.416a3.318 3.318 0 01-1.375-1.216c-.331-.523-.496-1.125-.496-1.808 0-.725.18-1.36.544-1.904a3.58 3.58 0 011.472-1.28c.618-.299 1.312-.448 2.08-.448zm.16 5.44c.672 0 1.216-.181 1.633-.544.426-.363.64-.821.64-1.376 0-.544-.209-.992-.625-1.344-.405-.363-.97-.544-1.695-.544-.651 0-1.18.176-1.585.528-.405.341-.607.8-.607 1.376 0 .587.202 1.05.607 1.392.406.341.95.512 1.633.512zm13.062 6.08a4.724 4.724 0 01-1.984-.416 3.956 3.956 0 01-1.472-1.2l1.184-1.424c.618.853 1.36 1.28 2.224 1.28 1.162 0 1.744-.688 1.744-2.064v-5.792h-3.984V8.8h6.064v7.424c0 1.312-.32 2.299-.96 2.96-.64.65-1.579.976-2.816.976zm14.773-8.704V20h-1.904v-1.088c-.32.384-.72.683-1.2.896-.48.203-.997.304-1.552.304-1.141 0-2.042-.315-2.704-.944-.65-.64-.976-1.584-.976-2.832v-4.88h2v4.608c0 .768.17 1.344.512 1.728.352.373.848.56 1.488.56.715 0 1.28-.219 1.696-.656.427-.448.64-1.088.64-1.92v-4.32h2zm2.619-3.328h2V20h-2V8.128zm12.625 3.328l-4 9.232c-.374.928-.827 1.579-1.36 1.952-.534.384-1.179.576-1.936.576-.427 0-.848-.07-1.264-.208a2.795 2.795 0 01-1.024-.576l.8-1.472c.192.181.416.325.672.432.266.107.533.16.8.16.352 0 .64-.09.864-.272.234-.181.448-.485.64-.912l.144-.336-3.728-8.576h2.08l2.688 6.32 2.704-6.32h1.92zm1.375 6c.373 0 .682.123.928.368.245.245.367.565.367.96 0 .17-.026.352-.08.544a6.589 6.589 0 01-.288.832l-.816 2.256h-1.296l.64-2.448a1.223 1.223 0 01-.56-.448 1.403 1.403 0 01-.192-.736c0-.395.123-.715.368-.96.246-.245.555-.368.929-.368zM69.341 8.8V20h-2.08v-9.456h-2.368V8.8h4.448zm5.997-.16c1.536 0 2.726.48 3.568 1.44.854.96 1.28 2.336 1.28 4.128 0 1.259-.229 2.336-.688 3.232-.458.885-1.104 1.563-1.936 2.032-.821.459-1.776.688-2.864.688-.576 0-1.12-.059-1.632-.176a4.575 4.575 0 01-1.312-.544l.768-1.568c.555.363 1.264.544 2.128.544 1.078 0 1.92-.33 2.528-.992.608-.661.912-1.616.912-2.864v-.016c-.33.384-.752.677-1.264.88-.512.192-1.088.288-1.728.288-.736 0-1.397-.139-1.984-.416a3.318 3.318 0 01-1.376-1.216c-.33-.523-.496-1.125-.496-1.808 0-.725.182-1.36.544-1.904a3.579 3.579 0 011.472-1.28c.619-.299 1.312-.448 2.08-.448zm.16 5.44c.672 0 1.216-.181 1.632-.544.427-.363.64-.821.64-1.376 0-.544-.208-.992-.624-1.344-.405-.363-.97-.544-1.696-.544-.65 0-1.178.176-1.584.528-.405.341-.608.8-.608 1.376 0 .587.203 1.05.608 1.392.406.341.95.512 1.632.512zm13.36.032c.586.267 1.034.63 1.344 1.088.32.448.48.976.48 1.584 0 .683-.192 1.28-.576 1.792-.374.512-.907.907-1.6 1.184-.694.267-1.499.4-2.416.4-.918 0-1.723-.133-2.416-.4-.683-.277-1.211-.672-1.584-1.184-.374-.512-.56-1.11-.56-1.792 0-.608.154-1.136.464-1.584.309-.459.752-.821 1.328-1.088a2.746 2.746 0 01-1.04-.96 2.728 2.728 0 01-.352-1.392c0-.63.17-1.179.512-1.648.352-.47.842-.832 1.472-1.088.629-.256 1.354-.384 2.176-.384.832 0 1.562.128 2.192.384.629.256 1.12.619 1.472 1.088.352.47.528 1.019.528 1.648 0 .523-.123.981-.368 1.376-.246.395-.598.72-1.056.976zm-2.768-3.84c-.651 0-1.168.139-1.552.416-.374.277-.56.667-.56 1.168 0 .48.186.864.56 1.152.384.277.901.416 1.552.416.661 0 1.184-.139 1.568-.416.384-.288.576-.672.576-1.152 0-.501-.198-.89-.592-1.168-.384-.277-.902-.416-1.552-.416zm0 8.256c.768 0 1.376-.16 1.824-.48.448-.32.672-.763.672-1.328 0-.555-.224-.992-.672-1.312-.448-.32-1.056-.48-1.824-.48s-1.371.16-1.808.48c-.438.32-.656.757-.656 1.312 0 .565.218 1.008.656 1.328.437.32 1.04.48 1.808.48zm14.053-.288V20h-8.256v-1.392l4.448-4.224c.502-.48.838-.896 1.008-1.248.181-.363.272-.72.272-1.072 0-.523-.176-.923-.528-1.2-.352-.277-.87-.416-1.552-.416-1.141 0-2.016.39-2.624 1.168l-1.456-1.12c.438-.587 1.024-1.04 1.76-1.36.747-.33 1.579-.496 2.496-.496 1.216 0 2.187.288 2.912.864.726.576 1.088 1.36 1.088 2.352 0 .608-.128 1.179-.384 1.712-.256.533-.746 1.141-1.472 1.824l-2.992 2.848h5.28z" fill="#9B9B9B"/></svg>