<svg width="52" height="15" viewBox="0 0 52 15" fill="none" xmlns="http://www.w3.org/2000/svg"><path d="M4.344 6.816c.552 0 1.048.108 1.488.324.44.208.784.508 1.032.9s.372.844.372 1.356c0 .544-.136 1.024-.408 1.44-.272.408-.64.724-1.104.948a3.542 3.542 0 01-1.56.336c-1.152 0-2.048-.36-2.688-1.08-.632-.72-.948-1.752-.948-3.096 0-.944.172-1.748.516-2.412.344-.672.824-1.18 1.44-1.524.624-.352 1.344-.528 2.16-.528.432 0 .836.048 1.212.144.384.088.716.22.996.396l-.576 1.176c-.416-.272-.948-.408-1.596-.408-.808 0-1.44.248-1.896.744-.456.496-.684 1.212-.684 2.148v.012c.248-.288.564-.504.948-.648a3.496 3.496 0 011.296-.228zm-.264 4.08c.488 0 .884-.128 1.188-.384.304-.264.456-.612.456-1.044 0-.44-.152-.788-.456-1.044-.304-.256-.712-.384-1.224-.384-.504 0-.916.136-1.236.408A1.31 1.31 0 002.34 9.48c0 .408.152.748.456 1.02.312.264.74.396 1.284.396zm5.282-3.384a.97.97 0 01-.696-.276.977.977 0 01-.288-.72c0-.296.092-.536.276-.72a.984.984 0 01.708-.276c.28 0 .512.092.696.276.192.184.288.424.288.72a.977.977 0 01-.288.72.97.97 0 01-.696.276zm0 4.572a.97.97 0 01-.696-.276.977.977 0 01-.288-.72c0-.296.092-.536.276-.72a.984.984 0 01.708-.276c.28 0 .512.092.696.276.192.184.288.424.288.72a.977.977 0 01-.288.72.97.97 0 01-.696.276zm5.945-5.016c.776.096 1.368.36 1.776.792.408.432.612.972.612 1.62 0 .488-.124.932-.372 1.332s-.624.72-1.128.96c-.496.232-1.104.348-1.824.348-.6 0-1.18-.084-1.74-.252a4.535 4.535 0 01-1.416-.72l.672-1.212c.304.256.672.46 1.104.612.44.144.892.216 1.356.216.552 0 .984-.112 1.296-.336.32-.232.48-.544.48-.936s-.152-.696-.456-.912c-.296-.224-.752-.336-1.368-.336h-.768V7.176l1.908-2.268h-3.816V3.6h5.724v1.044l-2.04 2.424zm7.287 5.052a3.28 3.28 0 01-1.8-.504c-.527-.344-.944-.84-1.247-1.488-.305-.656-.457-1.432-.457-2.328 0-.896.152-1.668.457-2.316.303-.656.72-1.152 1.247-1.488a3.224 3.224 0 011.8-.516c.672 0 1.272.172 1.8.516.537.336.957.832 1.26 1.488.305.648.456 1.42.456 2.316 0 .896-.151 1.672-.456 2.328-.303.648-.724 1.144-1.26 1.488a3.28 3.28 0 01-1.8.504zm0-1.356c.6 0 1.072-.248 1.416-.744.352-.496.528-1.236.528-2.22 0-.984-.175-1.724-.527-2.22-.345-.496-.816-.744-1.416-.744-.592 0-1.064.248-1.416.744-.345.496-.516 1.236-.516 2.22 0 .984.171 1.724.515 2.22.352.496.825.744 1.416.744zM35.24 5.52c.624 0 1.18.136 1.668.408.496.272.884.656 1.164 1.152.28.496.42 1.068.42 1.716 0 .648-.14 1.224-.42 1.728-.28.496-.668.88-1.164 1.152-.488.272-1.044.408-1.668.408-.864 0-1.548-.288-2.052-.864v3.108h-1.5V5.592h1.428v.84a2.33 2.33 0 01.912-.684 3.145 3.145 0 011.212-.228zm-.168 5.28c.552 0 1.004-.184 1.356-.552.36-.368.54-.852.54-1.452s-.18-1.084-.54-1.452c-.352-.368-.804-.552-1.356-.552-.36 0-.684.084-.972.252-.288.16-.516.392-.684.696a2.148 2.148 0 00-.252 1.056c0 .4.084.752.252 1.056.168.304.396.54.684.708.288.16.612.24.972.24zm13.306-5.28c.808 0 1.448.236 1.92.708.472.464.708 1.164.708 2.1V12h-1.5V8.52c0-.56-.124-.98-.372-1.26-.248-.288-.604-.432-1.068-.432-.504 0-.908.168-1.212.504-.304.328-.456.8-.456 1.416V12h-1.5V8.52c0-.56-.124-.98-.372-1.26-.248-.288-.604-.432-1.068-.432-.512 0-.92.164-1.224.492-.296.328-.444.804-.444 1.428V12h-1.5V5.592h1.428v.816c.24-.288.54-.508.9-.66.36-.152.76-.228 1.2-.228.48 0 .904.092 1.272.276.376.176.672.44.888.792a2.619 2.619 0 011.02-.78 3.254 3.254 0 011.38-.288z" fill="#474747"/></svg>