<svg width="53" height="15" viewBox="0 0 53 15" fill="none" xmlns="http://www.w3.org/2000/svg"><path d="M6.864 3.6v1.044L3.6 12H1.932l3.156-7.08h-3.3v1.428H.336V3.6h6.528zm2.041 3.912a.97.97 0 01-.696-.276.977.977 0 01-.288-.72c0-.296.092-.536.276-.72a.984.984 0 01.708-.276c.28 0 .512.092.696.276.192.184.288.424.288.72a.977.977 0 01-.288.72.97.97 0 01-.696.276zm0 4.572a.97.97 0 01-.696-.276.977.977 0 01-.288-.72c0-.296.092-.536.276-.72a.984.984 0 01.708-.276c.28 0 .512.092.696.276.192.184.288.424.288.72a.977.977 0 01-.288.72.97.97 0 01-.696.276zm5.873.036a3.28 3.28 0 01-1.8-.504c-.528-.344-.944-.84-1.248-1.488-.304-.656-.456-1.432-.456-2.328 0-.896.152-1.668.456-2.316.304-.656.72-1.152 1.248-1.488a3.224 3.224 0 011.8-.516c.672 0 1.272.172 1.8.516.536.336.956.832 1.26 1.488.304.648.456 1.42.456 2.316 0 .896-.152 1.672-.456 2.328-.304.648-.724 1.144-1.26 1.488a3.28 3.28 0 01-1.8.504zm0-1.356c.6 0 1.072-.248 1.416-.744.352-.496.528-1.236.528-2.22 0-.984-.176-1.724-.528-2.22-.344-.496-.816-.744-1.416-.744-.592 0-1.064.248-1.416.744-.344.496-.516 1.236-.516 2.22 0 .984.172 1.724.516 2.22.352.496.824.744 1.416.744zm8.45 1.356a3.28 3.28 0 01-1.8-.504c-.529-.344-.945-.84-1.249-1.488-.304-.656-.456-1.432-.456-2.328 0-.896.152-1.668.456-2.316.304-.656.72-1.152 1.248-1.488a3.224 3.224 0 011.8-.516c.672 0 1.272.172 1.8.516.536.336.956.832 1.26 1.488.304.648.456 1.42.456 2.316 0 .896-.152 1.672-.456 2.328-.304.648-.724 1.144-1.26 1.488a3.28 3.28 0 01-1.8.504zm0-1.356c.6 0 1.071-.248 1.415-.744.352-.496.528-1.236.528-2.22 0-.984-.176-1.724-.528-2.22-.344-.496-.816-.744-1.416-.744-.592 0-1.064.248-1.416.744-.344.496-.516 1.236-.516 2.22 0 .984.172 1.724.516 2.22.352.496.824.744 1.416.744zM35.871 5.52c.624 0 1.18.136 1.668.408.496.272.884.656 1.164 1.152.28.496.42 1.068.42 1.716 0 .648-.14 1.224-.42 1.728-.28.496-.668.88-1.164 1.152-.488.272-1.044.408-1.668.408-.864 0-1.548-.288-2.052-.864v3.108h-1.5V5.592h1.428v.84a2.33 2.33 0 01.912-.684 3.145 3.145 0 011.212-.228zm-.168 5.28c.552 0 1.004-.184 1.356-.552.36-.368.54-.852.54-1.452s-.18-1.084-.54-1.452c-.352-.368-.804-.552-1.356-.552-.36 0-.684.084-.972.252-.288.16-.516.392-.684.696a2.148 2.148 0 00-.252 1.056c0 .4.084.752.252 1.056.168.304.396.54.684.708.288.16.612.24.972.24zM49.01 5.52c.808 0 1.448.236 1.92.708.471.464.708 1.164.708 2.1V12h-1.5V8.52c0-.56-.124-.98-.372-1.26-.248-.288-.605-.432-1.069-.432-.504 0-.908.168-1.212.504-.303.328-.456.8-.456 1.416V12h-1.5V8.52c0-.56-.123-.98-.372-1.26-.247-.288-.603-.432-1.067-.432-.513 0-.92.164-1.225.492-.296.328-.444.804-.444 1.428V12h-1.5V5.592h1.428v.816c.24-.288.54-.508.9-.66.36-.152.76-.228 1.2-.228.48 0 .904.092 1.273.276.375.176.672.44.887.792a2.619 2.619 0 011.02-.78 3.254 3.254 0 011.38-.288z" fill="#474747"/></svg>