<svg width="82" height="20" viewBox="0 0 82 20" fill="none" xmlns="http://www.w3.org/2000/svg"><path d="M2.266 16.134c-.433-.667-.766-1.441-1.001-2.321a11.27 11.27 0 01-.341-2.827c0-1.005.114-1.947.341-2.827.235-.887.568-1.661 1.001-2.321h1.309a9.892 9.892 0 00-.99 2.453 11.275 11.275 0 00-.308 2.695c0 .96.103 1.863.308 2.706.213.836.543 1.65.99 2.442H2.266zm7.85-3.916h-3.85L5.507 14H4.033l3.465-7.7h1.408l3.476 7.7h-1.495l-.77-1.782zm-.473-1.122L8.191 7.73l-1.44 3.366h2.892zm6.249-4.224c-.58 0-.87.315-.87.946v.352h1.618v1.1h-1.573V14h-1.375V9.27h-.968v-1.1h.968v-.374c0-.63.183-1.126.55-1.485.366-.367.883-.55 1.55-.55.529 0 .943.106 1.244.319l-.385 1.034a1.314 1.314 0 00-.76-.242zm5.48 6.809c-.162.132-.36.231-.595.297-.227.066-.47.099-.726.099-.645 0-1.144-.169-1.496-.506-.352-.337-.528-.829-.528-1.474V9.27h-.968v-1.1h.968V6.828h1.375V8.17h1.573v1.1h-1.573v2.794c0 .286.07.506.21.66.139.147.34.22.604.22.308 0 .565-.08.77-.242l.385.979zm6.734-2.585c0 .095-.007.231-.022.407h-4.609c.08.433.29.777.627 1.034.345.25.77.374 1.276.374.645 0 1.177-.213 1.595-.638l.737.847a2.483 2.483 0 01-1.001.715 3.647 3.647 0 01-1.364.242c-.645 0-1.214-.128-1.705-.385a2.822 2.822 0 01-1.144-1.067 3.092 3.092 0 01-.396-1.562c0-.572.128-1.085.385-1.54a2.798 2.798 0 011.089-1.078 3.161 3.161 0 011.562-.385c.572 0 1.082.128 1.529.385.455.25.807.605 1.056 1.067.257.455.385.983.385 1.584zm-2.97-1.936c-.44 0-.814.132-1.122.396-.3.257-.484.601-.55 1.034h3.333a1.62 1.62 0 00-.539-1.034c-.3-.264-.675-.396-1.122-.396zm5.875-.176c.396-.616 1.092-.924 2.09-.924v1.309a1.746 1.746 0 00-.32-.033c-.535 0-.953.158-1.253.473-.3.308-.451.755-.451 1.342V14h-1.375V8.126h1.309v.858zM38.043 6.3h3.366c.821 0 1.551.161 2.189.484a3.495 3.495 0 011.485 1.353c.352.58.528 1.25.528 2.013 0 .763-.176 1.437-.528 2.024a3.59 3.59 0 01-1.485 1.353c-.638.315-1.368.473-2.189.473h-3.366V6.3zm3.3 6.49c.565 0 1.06-.106 1.485-.319.433-.22.763-.528.99-.924.235-.403.352-.869.352-1.397s-.117-.99-.352-1.386a2.239 2.239 0 00-.99-.924c-.425-.22-.92-.33-1.485-.33h-1.87v5.28h1.87zm5.93-4.664h1.376V14h-1.375V8.126zm.694-.968a.895.895 0 01-.627-.231.79.79 0 01-.253-.594c0-.235.084-.429.253-.583a.872.872 0 01.627-.242c.25 0 .458.077.627.231a.71.71 0 01.253.561.849.849 0 01-.88.858zm6.095.902c.74 0 1.334.216 1.782.649.447.433.67 1.074.67 1.925V14H55.14v-3.19c0-.513-.121-.898-.363-1.155-.242-.264-.587-.396-1.034-.396-.506 0-.906.154-1.2.462-.293.3-.44.737-.44 1.309V14H50.73V8.126h1.309v.759a2.15 2.15 0 01.858-.616c.344-.14.733-.209 1.166-.209zm7.805 0c.74 0 1.335.216 1.782.649.447.433.67 1.074.67 1.925V14h-1.374v-3.19c0-.513-.121-.898-.363-1.155-.242-.264-.587-.396-1.034-.396-.506 0-.906.154-1.2.462-.292.3-.44.737-.44 1.309V14h-1.374V8.126h1.309v.759a2.15 2.15 0 01.858-.616c.344-.14.733-.209 1.166-.209zm10.048 3.036c0 .095-.008.231-.022.407h-4.61c.082.433.29.777.628 1.034.344.25.77.374 1.276.374.645 0 1.177-.213 1.595-.638l.737.847a2.483 2.483 0 01-1.001.715 3.647 3.647 0 01-1.364.242c-.645 0-1.214-.128-1.705-.385a2.822 2.822 0 01-1.144-1.067 3.092 3.092 0 01-.396-1.562c0-.572.128-1.085.385-1.54a2.798 2.798 0 011.089-1.078 3.161 3.161 0 011.562-.385c.572 0 1.082.128 1.529.385.454.25.806.605 1.056 1.067.257.455.385.983.385 1.584zm-2.97-1.936c-.44 0-.814.132-1.122.396-.3.257-.484.601-.55 1.034h3.333a1.62 1.62 0 00-.54-1.034c-.3-.264-.674-.396-1.121-.396zm5.875-.176c.396-.616 1.092-.924 2.09-.924v1.309a1.746 1.746 0 00-.32-.033c-.535 0-.953.158-1.253.473-.301.308-.451.755-.451 1.342V14H73.51V8.126h1.309v.858zm2.85 7.15c.447-.792.777-1.61.99-2.453.212-.843.319-1.742.319-2.695 0-.953-.107-1.852-.32-2.695a9.887 9.887 0 00-.99-2.453h1.31c.432.653.762 1.423.99 2.31.234.88.352 1.826.352 2.838a10.98 10.98 0 01-.352 2.838c-.228.873-.558 1.643-.99 2.31h-1.31z" fill="#474747"/></svg>