<svg width="78" height="20" viewBox="0 0 78 20" fill="none" xmlns="http://www.w3.org/2000/svg"><path d="M2.266 16.134c-.433-.667-.766-1.441-1.001-2.321a11.27 11.27 0 01-.341-2.827c0-1.005.114-1.947.341-2.827.235-.887.568-1.661 1.001-2.321h1.309a9.892 9.892 0 00-.99 2.453 11.275 11.275 0 00-.308 2.695c0 .96.103 1.863.308 2.706.213.836.543 1.65.99 2.442H2.266zm7.85-3.916h-3.85L5.507 14H4.033l3.465-7.7h1.408l3.476 7.7h-1.495l-.77-1.782zm-.473-1.122L8.191 7.73l-1.44 3.366h2.892zm6.249-4.224c-.58 0-.87.315-.87.946v.352h1.618v1.1h-1.573V14h-1.375V9.27h-.968v-1.1h.968v-.374c0-.63.183-1.126.55-1.485.366-.367.883-.55 1.55-.55.529 0 .943.106 1.244.319l-.385 1.034a1.314 1.314 0 00-.76-.242zm5.48 6.809c-.162.132-.36.231-.595.297-.227.066-.47.099-.726.099-.645 0-1.144-.169-1.496-.506-.352-.337-.528-.829-.528-1.474V9.27h-.968v-1.1h.968V6.828h1.375V8.17h1.573v1.1h-1.573v2.794c0 .286.07.506.21.66.139.147.34.22.604.22.308 0 .565-.08.77-.242l.385.979zm6.734-2.585c0 .095-.007.231-.022.407h-4.609c.08.433.29.777.627 1.034.345.25.77.374 1.276.374.645 0 1.177-.213 1.595-.638l.737.847a2.483 2.483 0 01-1.001.715 3.647 3.647 0 01-1.364.242c-.645 0-1.214-.128-1.705-.385a2.822 2.822 0 01-1.144-1.067 3.092 3.092 0 01-.396-1.562c0-.572.128-1.085.385-1.54a2.798 2.798 0 011.089-1.078 3.161 3.161 0 011.562-.385c.572 0 1.082.128 1.529.385.455.25.807.605 1.056 1.067.257.455.385.983.385 1.584zm-2.97-1.936c-.44 0-.814.132-1.122.396-.3.257-.484.601-.55 1.034h3.333a1.62 1.62 0 00-.539-1.034c-.3-.264-.675-.396-1.122-.396zm5.875-.176c.396-.616 1.092-.924 2.09-.924v1.309a1.746 1.746 0 00-.32-.033c-.535 0-.953.158-1.253.473-.3.308-.451.755-.451 1.342V14h-1.375V8.126h1.309v.858zM38.043 6.3h1.43v6.49h4.026V14h-5.456V6.3zm12.361 1.826V14h-1.309v-.748a2.24 2.24 0 01-.825.616c-.33.14-.685.209-1.067.209-.784 0-1.404-.216-1.859-.649-.447-.44-.67-1.089-.67-1.947V8.126h1.374v3.168c0 .528.118.924.352 1.188.242.257.583.385 1.023.385.492 0 .88-.15 1.166-.451.294-.308.44-.748.44-1.32v-2.97h1.375zm5.408-.066c.741 0 1.335.216 1.782.649.448.433.672 1.074.672 1.925V14H56.89v-3.19c0-.513-.121-.898-.363-1.155-.242-.264-.587-.396-1.035-.396-.506 0-.905.154-1.199.462-.293.3-.44.737-.44 1.309V14H52.48V8.126h1.309v.759a2.15 2.15 0 01.858-.616c.344-.14.733-.209 1.166-.209zm7.221 6.017a3.444 3.444 0 01-1.639-.385 2.84 2.84 0 01-1.133-1.067 3.027 3.027 0 01-.407-1.562c0-.58.136-1.096.407-1.551.272-.455.646-.81 1.122-1.067.484-.257 1.034-.385 1.65-.385.58 0 1.086.117 1.519.352.44.235.77.572.99 1.012l-1.056.616a1.623 1.623 0 00-.639-.605 1.662 1.662 0 00-.825-.209c-.513 0-.938.169-1.276.506-.337.33-.506.774-.506 1.331 0 .557.166 1.005.495 1.342.338.33.767.495 1.288.495.3 0 .575-.066.824-.198.257-.14.47-.345.639-.616l1.055.616c-.227.44-.56.781-1 1.023-.433.235-.935.352-1.508.352zm7.251-6.017c.741 0 1.335.216 1.782.649.448.433.671 1.074.671 1.925V14h-1.375v-3.19c0-.513-.12-.898-.363-1.155-.242-.264-.586-.396-1.034-.396-.506 0-.905.154-1.199.462-.293.3-.44.737-.44 1.309V14h-1.375V5.838h1.375v2.97a2.19 2.19 0 01.836-.55 3.055 3.055 0 011.122-.198zm3.813 8.074c.447-.792.777-1.61.99-2.453.212-.843.319-1.742.319-2.695 0-.953-.107-1.852-.32-2.695a9.895 9.895 0 00-.99-2.453h1.31c.432.653.762 1.423.99 2.31.234.88.352 1.826.352 2.838a10.98 10.98 0 01-.352 2.838c-.228.873-.558 1.643-.99 2.31h-1.31z" fill="#474747"/></svg>