<svg width="61" height="16" viewBox="0 0 61 16" fill="none" xmlns="http://www.w3.org/2000/svg"><path d="M8.124 10.894h-4.55L2.677 13H.935L5.03 3.9h1.664l4.108 9.1H9.034l-.91-2.106zm-.559-1.326L5.849 5.59 4.146 9.568h3.419zm5.785-2.496c.468-.728 1.292-1.092 2.47-1.092v1.547a2.063 2.063 0 00-.377-.039c-.632 0-1.126.186-1.482.559-.355.364-.533.893-.533 1.586V13h-1.625V6.058h1.547v1.014zm6.97 6.019c-.719 0-1.365-.152-1.937-.455a3.355 3.355 0 01-1.339-1.261 3.577 3.577 0 01-.48-1.846c0-.685.16-1.296.48-1.833.321-.537.763-.958 1.326-1.261.572-.303 1.222-.455 1.95-.455.685 0 1.283.139 1.794.416.52.277.91.676 1.17 1.196l-1.248.728c-.199-.32-.45-.559-.754-.715a1.964 1.964 0 00-.975-.247c-.606 0-1.109.2-1.508.598-.398.39-.598.914-.598 1.573 0 .659.195 1.187.585 1.586.399.39.906.585 1.521.585.356 0 .68-.078.975-.234.304-.165.555-.407.754-.728l1.248.728c-.268.52-.663.923-1.183 1.209-.511.277-1.105.416-1.78.416zm8.245-7.111c.875 0 1.577.256 2.106.767.528.511.793 1.27.793 2.275V13h-1.625V9.23c0-.607-.143-1.062-.43-1.365-.285-.312-.693-.468-1.221-.468-.598 0-1.07.182-1.417.546-.347.355-.52.871-.52 1.547V13h-1.625V3.354h1.625v3.51c.268-.286.598-.503.988-.65a3.61 3.61 0 011.326-.234zm4.96.078h1.625V13h-1.625V6.058zm.819-1.144c-.295 0-.542-.091-.741-.273a.934.934 0 01-.299-.702c0-.277.1-.507.299-.689.2-.19.446-.286.741-.286s.542.091.741.273a.84.84 0 01.299.663.99.99 0 01-.299.728c-.19.19-.438.286-.741.286zm9.439 1.144L40.806 13h-1.677l-2.977-6.942h1.69L40 11.206l2.223-5.148h1.56zm7.351 3.51c0 .113-.009.273-.026.481h-5.447c.095.511.342.919.741 1.222.407.295.91.442 1.508.442.763 0 1.391-.251 1.885-.754l.871 1.001a2.934 2.934 0 01-1.183.845 4.308 4.308 0 01-1.612.286c-.763 0-1.434-.152-2.015-.455a3.335 3.335 0 01-1.352-1.261c-.312-.546-.468-1.161-.468-1.846 0-.676.152-1.283.455-1.82.312-.546.741-.97 1.287-1.274.546-.303 1.161-.455 1.846-.455.676 0 1.278.152 1.807.455a3.07 3.07 0 011.248 1.261c.303.537.455 1.161.455 1.872zm-3.51-2.288c-.52 0-.962.156-1.326.468-.355.303-.572.71-.65 1.222h3.939c-.07-.503-.282-.91-.637-1.222-.355-.312-.797-.468-1.326-.468zm11.87-3.926V13h-1.56v-.897c-.269.33-.602.576-1.001.741a3.31 3.31 0 01-1.3.247c-.667 0-1.27-.147-1.807-.442a3.2 3.2 0 01-1.248-1.248c-.303-.546-.455-1.17-.455-1.872 0-.702.152-1.322.455-1.859a3.2 3.2 0 011.248-1.248 3.695 3.695 0 011.807-.442c.46 0 .88.078 1.26.234.382.156.707.39.976.702V3.354h1.625zM55.828 11.7c.39 0 .74-.087 1.053-.26.312-.182.559-.438.74-.767.183-.33.274-.71.274-1.144 0-.433-.091-.815-.273-1.144a1.881 1.881 0 00-.741-.754 2.05 2.05 0 00-1.053-.273c-.39 0-.741.091-1.053.273a1.881 1.881 0 00-.741.754c-.182.33-.273.71-.273 1.144 0 .433.09.815.273 1.144.182.33.429.585.74.767.313.173.664.26 1.054.26z" fill="#AFAFAF"/></svg>