<svg width="91" height="20" viewBox="0 0 91 20" fill="none" xmlns="http://www.w3.org/2000/svg"><path d="M2.266 16.134c-.433-.667-.766-1.441-1.001-2.321a11.27 11.27 0 01-.341-2.827c0-1.005.114-1.947.341-2.827.235-.887.568-1.661 1.001-2.321h1.309a9.892 9.892 0 00-.99 2.453 11.275 11.275 0 00-.308 2.695c0 .96.103 1.863.308 2.706.213.836.543 1.65.99 2.442H2.266zm8.313-6.138c.425.14.762.374 1.011.704.25.323.374.726.374 1.21 0 .667-.256 1.184-.77 1.551-.513.36-1.26.539-2.244.539H5.122V6.3H8.73c.91 0 1.61.18 2.101.539.492.352.738.84.738 1.463 0 .381-.089.719-.264 1.012-.176.293-.418.52-.726.682zM6.551 7.422v2.123h2.024c.5 0 .88-.088 1.144-.264.272-.183.407-.447.407-.792 0-.352-.135-.616-.407-.792-.264-.183-.645-.275-1.144-.275H6.552zm2.31 5.456c1.108 0 1.662-.37 1.662-1.111 0-.74-.554-1.111-1.662-1.111h-2.31v2.222h2.31zm10.294-1.782c0 .095-.008.231-.022.407h-4.61c.081.433.29.777.628 1.034.344.25.77.374 1.276.374.645 0 1.177-.213 1.595-.638l.737.847a2.483 2.483 0 01-1.001.715 3.647 3.647 0 01-1.364.242c-.646 0-1.214-.128-1.705-.385a2.822 2.822 0 01-1.144-1.067 3.092 3.092 0 01-.396-1.562c0-.572.128-1.085.385-1.54a2.798 2.798 0 011.089-1.078 3.161 3.161 0 011.562-.385c.572 0 1.081.128 1.529.385.454.25.806.605 1.056 1.067.256.455.385.983.385 1.584zm-2.97-1.936c-.44 0-.814.132-1.122.396-.301.257-.484.601-.55 1.034h3.333a1.62 1.62 0 00-.54-1.034c-.3-.264-.674-.396-1.121-.396zm6.952-2.288c-.579 0-.869.315-.869.946v.352h1.617v1.1h-1.573V14h-1.375V9.27h-.968v-1.1h.968v-.374c0-.63.184-1.126.55-1.485.367-.367.884-.55 1.551-.55.528 0 .943.106 1.243.319l-.385 1.034a1.314 1.314 0 00-.759-.242zm4.503 7.205c-.594 0-1.13-.128-1.606-.385a2.858 2.858 0 01-1.122-1.067 3.092 3.092 0 01-.396-1.562c0-.58.132-1.096.396-1.551.271-.455.645-.81 1.122-1.067a3.333 3.333 0 011.606-.385c.601 0 1.14.128 1.617.385a2.78 2.78 0 011.111 1.067c.271.455.407.972.407 1.551 0 .58-.136 1.1-.407 1.562a2.78 2.78 0 01-1.111 1.067 3.355 3.355 0 01-1.617.385zm0-1.177c.506 0 .924-.169 1.254-.506.33-.337.495-.781.495-1.331 0-.55-.165-.994-.495-1.331-.33-.337-.748-.506-1.254-.506s-.924.169-1.254.506c-.323.337-.484.781-.484 1.331 0 .55.161.994.484 1.331.33.337.748.506 1.254.506zm6.034-3.916c.396-.616 1.093-.924 2.09-.924v1.309a1.746 1.746 0 00-.32-.033c-.535 0-.953.158-1.253.473-.3.308-.451.755-.451 1.342V14h-1.375V8.126h1.309v.858zm9 2.112c0 .095-.008.231-.022.407h-4.61c.081.433.29.777.628 1.034.344.25.77.374 1.276.374.645 0 1.177-.213 1.595-.638l.737.847a2.483 2.483 0 01-1.001.715 3.647 3.647 0 01-1.364.242c-.646 0-1.214-.128-1.705-.385a2.822 2.822 0 01-1.144-1.067 3.092 3.092 0 01-.396-1.562c0-.572.128-1.085.385-1.54a2.798 2.798 0 011.089-1.078 3.161 3.161 0 011.562-.385c.572 0 1.081.128 1.529.385.454.25.806.605 1.056 1.067.256.455.385.983.385 1.584zm-2.97-1.936c-.44 0-.814.132-1.122.396-.301.257-.484.601-.55 1.034h3.333a1.621 1.621 0 00-.54-1.034c-.3-.264-.674-.396-1.121-.396zm8.012-2.86h3.366c.822 0 1.551.161 2.19.484a3.495 3.495 0 011.484 1.353c.352.58.528 1.25.528 2.013 0 .763-.176 1.437-.528 2.024a3.59 3.59 0 01-1.485 1.353c-.638.315-1.367.473-2.189.473h-3.366V6.3zm3.3 6.49c.565 0 1.06-.106 1.485-.319.433-.22.763-.528.99-.924.235-.403.352-.869.352-1.397s-.117-.99-.352-1.386a2.239 2.239 0 00-.99-.924c-.425-.22-.92-.33-1.485-.33h-1.87v5.28h1.87zm5.931-4.664h1.375V14h-1.375V8.126zm.693-.968a.895.895 0 01-.627-.231.79.79 0 01-.253-.594c0-.235.085-.429.253-.583a.872.872 0 01.627-.242c.25 0 .459.077.627.231a.71.71 0 01.253.561.848.848 0 01-.88.858zm6.095.902c.74 0 1.335.216 1.782.649.447.433.671 1.074.671 1.925V14h-1.375v-3.19c0-.513-.121-.898-.363-1.155-.242-.264-.587-.396-1.034-.396-.506 0-.906.154-1.199.462-.293.3-.44.737-.44 1.309V14h-1.375V8.126h1.309v.759a2.15 2.15 0 01.858-.616c.345-.14.733-.209 1.166-.209zm7.805 0c.74 0 1.335.216 1.782.649.448.433.671 1.074.671 1.925V14H72.62v-3.19c0-.513-.12-.898-.363-1.155-.242-.264-.586-.396-1.034-.396-.506 0-.905.154-1.199.462-.293.3-.44.737-.44 1.309V14h-1.375V8.126h1.31v.759a2.15 2.15 0 01.857-.616c.345-.14.734-.209 1.166-.209zm10.048 3.036c0 .095-.007.231-.022.407h-4.609c.08.433.29.777.627 1.034.345.25.77.374 1.276.374.646 0 1.177-.213 1.595-.638l.737.847a2.483 2.483 0 01-1 .715 3.647 3.647 0 01-1.365.242c-.645 0-1.213-.128-1.705-.385a2.822 2.822 0 01-1.144-1.067 3.092 3.092 0 01-.396-1.562c0-.572.129-1.085.385-1.54a2.798 2.798 0 011.09-1.078 3.161 3.161 0 011.561-.385c.572 0 1.082.128 1.53.385.454.25.806.605 1.055 1.067.257.455.385.983.385 1.584zM78.62 9.16c-.44 0-.814.132-1.122.396-.3.257-.484.601-.55 1.034h3.333a1.62 1.62 0 00-.539-1.034c-.3-.264-.674-.396-1.122-.396zm5.875-.176c.396-.616 1.093-.924 2.09-.924v1.309a1.746 1.746 0 00-.319-.033c-.535 0-.953.158-1.254.473-.3.308-.451.755-.451 1.342V14h-1.375V8.126h1.309v.858zm2.85 7.15c.447-.792.777-1.61.99-2.453.213-.843.319-1.742.319-2.695 0-.953-.106-1.852-.319-2.695a9.895 9.895 0 00-.99-2.453h1.309c.433.653.763 1.423.99 2.31.235.88.352 1.826.352 2.838s-.117 1.958-.352 2.838c-.227.873-.557 1.643-.99 2.31h-1.309z" fill="#474747"/></svg>