<svg width="108" height="20" viewBox="0 0 108 20" fill="none" xmlns="http://www.w3.org/2000/svg"><path d="M2.266 16.134c-.433-.667-.766-1.441-1.001-2.321a11.27 11.27 0 01-.341-2.827c0-1.005.114-1.947.341-2.827.235-.887.568-1.661 1.001-2.321h1.309a9.892 9.892 0 00-.99 2.453 11.275 11.275 0 00-.308 2.695c0 .96.103 1.863.308 2.706.213.836.543 1.65.99 2.442H2.266zm8.313-6.138c.425.14.762.374 1.011.704.25.323.374.726.374 1.21 0 .667-.256 1.184-.77 1.551-.513.36-1.26.539-2.244.539H5.122V6.3H8.73c.91 0 1.61.18 2.101.539.492.352.738.84.738 1.463 0 .381-.089.719-.264 1.012-.176.293-.418.52-.726.682zM6.551 7.422v2.123h2.024c.5 0 .88-.088 1.144-.264.272-.183.407-.447.407-.792 0-.352-.135-.616-.407-.792-.264-.183-.645-.275-1.144-.275H6.552zm2.31 5.456c1.108 0 1.662-.37 1.662-1.111 0-.74-.554-1.111-1.662-1.111h-2.31v2.222h2.31zm10.294-1.782c0 .095-.008.231-.022.407h-4.61c.081.433.29.777.628 1.034.344.25.77.374 1.276.374.645 0 1.177-.213 1.595-.638l.737.847a2.483 2.483 0 01-1.001.715 3.647 3.647 0 01-1.364.242c-.646 0-1.214-.128-1.705-.385a2.822 2.822 0 01-1.144-1.067 3.092 3.092 0 01-.396-1.562c0-.572.128-1.085.385-1.54a2.798 2.798 0 011.089-1.078 3.161 3.161 0 011.562-.385c.572 0 1.081.128 1.529.385.454.25.806.605 1.056 1.067.256.455.385.983.385 1.584zm-2.97-1.936c-.44 0-.814.132-1.122.396-.301.257-.484.601-.55 1.034h3.333a1.62 1.62 0 00-.54-1.034c-.3-.264-.674-.396-1.121-.396zm6.952-2.288c-.579 0-.869.315-.869.946v.352h1.617v1.1h-1.573V14h-1.375V9.27h-.968v-1.1h.968v-.374c0-.63.184-1.126.55-1.485.367-.367.884-.55 1.551-.55.528 0 .943.106 1.243.319l-.385 1.034a1.314 1.314 0 00-.759-.242zm4.503 7.205c-.594 0-1.13-.128-1.606-.385a2.858 2.858 0 01-1.122-1.067 3.092 3.092 0 01-.396-1.562c0-.58.132-1.096.396-1.551.271-.455.645-.81 1.122-1.067a3.333 3.333 0 011.606-.385c.601 0 1.14.128 1.617.385a2.78 2.78 0 011.111 1.067c.271.455.407.972.407 1.551 0 .58-.136 1.1-.407 1.562a2.78 2.78 0 01-1.111 1.067 3.355 3.355 0 01-1.617.385zm0-1.177c.506 0 .924-.169 1.254-.506.33-.337.495-.781.495-1.331 0-.55-.165-.994-.495-1.331-.33-.337-.748-.506-1.254-.506s-.924.169-1.254.506c-.323.337-.484.781-.484 1.331 0 .55.161.994.484 1.331.33.337.748.506 1.254.506zm6.034-3.916c.396-.616 1.093-.924 2.09-.924v1.309a1.746 1.746 0 00-.32-.033c-.535 0-.953.158-1.253.473-.3.308-.451.755-.451 1.342V14h-1.375V8.126h1.309v.858zm9 2.112c0 .095-.008.231-.022.407h-4.61c.081.433.29.777.628 1.034.344.25.77.374 1.276.374.645 0 1.177-.213 1.595-.638l.737.847a2.483 2.483 0 01-1.001.715 3.647 3.647 0 01-1.364.242c-.646 0-1.214-.128-1.705-.385a2.822 2.822 0 01-1.144-1.067 3.092 3.092 0 01-.396-1.562c0-.572.128-1.085.385-1.54a2.798 2.798 0 011.089-1.078 3.161 3.161 0 011.562-.385c.572 0 1.081.128 1.529.385.454.25.806.605 1.056 1.067.256.455.385.983.385 1.584zm-2.97-1.936c-.44 0-.814.132-1.122.396-.301.257-.484.601-.55 1.034h3.333a1.621 1.621 0 00-.54-1.034c-.3-.264-.674-.396-1.121-.396zm13.468.836c.426.14.763.374 1.012.704.25.323.374.726.374 1.21 0 .667-.256 1.184-.77 1.551-.513.36-1.26.539-2.244.539h-3.828V6.3h3.608c.91 0 1.61.18 2.101.539.492.352.737.84.737 1.463 0 .381-.088.719-.264 1.012-.176.293-.418.52-.726.682zm-4.026-2.574v2.123h2.024c.5 0 .88-.088 1.144-.264.272-.183.407-.447.407-.792 0-.352-.135-.616-.407-.792-.264-.183-.645-.275-1.144-.275h-2.024zm2.31 5.456c1.108 0 1.661-.37 1.661-1.111 0-.74-.553-1.111-1.66-1.111h-2.31v2.222h2.31zm6.08-3.894c.397-.616 1.093-.924 2.09-.924v1.309a1.746 1.746 0 00-.318-.033c-.536 0-.954.158-1.254.473-.301.308-.451.755-.451 1.342V14h-1.375V8.126h1.309v.858zm9 2.112c0 .095-.007.231-.022.407h-4.609c.08.433.29.777.627 1.034.345.25.77.374 1.276.374.646 0 1.177-.213 1.595-.638l.737.847a2.483 2.483 0 01-1 .715 3.647 3.647 0 01-1.365.242c-.645 0-1.213-.128-1.705-.385a2.82 2.82 0 01-1.144-1.067 3.092 3.092 0 01-.396-1.562c0-.572.129-1.085.385-1.54a2.798 2.798 0 011.09-1.078 3.161 3.161 0 011.561-.385c.572 0 1.082.128 1.53.385.454.25.806.605 1.055 1.067.257.455.385.983.385 1.584zm-2.97-1.936c-.44 0-.814.132-1.122.396-.3.257-.484.601-.55 1.034h3.333a1.622 1.622 0 00-.539-1.034c-.3-.264-.674-.396-1.122-.396zm6.649-1.1c.865 0 1.525.209 1.98.627.462.41.693 1.034.693 1.87V14H71.59v-.715c-.169.257-.41.455-.726.594-.308.132-.682.198-1.122.198-.44 0-.825-.073-1.155-.22a1.88 1.88 0 01-.77-.627 1.642 1.642 0 01-.264-.913c0-.528.194-.95.583-1.265.396-.323 1.016-.484 1.859-.484h1.518v-.088c0-.41-.125-.726-.374-.946-.242-.22-.605-.33-1.09-.33-.33 0-.655.051-.978.154a2.4 2.4 0 00-.803.429l-.54-1.001a3.338 3.338 0 011.112-.539 4.943 4.943 0 011.375-.187zm-.187 5.016c.345 0 .649-.077.913-.231.271-.161.462-.389.572-.682v-.682h-1.42c-.791 0-1.187.26-1.187.781 0 .25.099.447.297.594.198.147.473.22.825.22zm7.298-1.595l-1.023.968V14h-1.375V5.838h1.375v4.928l2.849-2.64h1.65L78.35 10.59 81.034 14h-1.672l-2.035-2.519zm7.257-4.609c-.58 0-.87.315-.87.946v.352h1.618v1.1h-1.573V14h-1.375V9.27h-.968v-1.1h.968v-.374c0-.63.183-1.126.55-1.485.366-.367.883-.55 1.55-.55.529 0 .943.106 1.244.319l-.385 1.034a1.314 1.314 0 00-.76-.242zm4.085 1.188c.865 0 1.525.209 1.98.627.462.41.693 1.034.693 1.87V14h-1.298v-.715a1.63 1.63 0 01-.726.594c-.308.132-.682.198-1.122.198-.44 0-.825-.073-1.155-.22a1.879 1.879 0 01-.77-.627 1.642 1.642 0 01-.264-.913c0-.528.194-.95.583-1.265.396-.323 1.016-.484 1.859-.484h1.518v-.088c0-.41-.125-.726-.374-.946-.242-.22-.605-.33-1.09-.33-.33 0-.656.051-.978.154a2.398 2.398 0 00-.803.429l-.54-1.001a3.337 3.337 0 011.112-.539 4.943 4.943 0 011.375-.187zm-.187 5.016c.344 0 .649-.077.913-.231.271-.161.462-.389.572-.682v-.682h-1.42c-.791 0-1.187.26-1.187.781 0 .25.099.447.297.594.198.147.473.22.825.22zm6.715 1.001c-.477 0-.943-.062-1.398-.187-.454-.125-.817-.282-1.089-.473l.529-1.045c.263.176.579.319.945.429.374.103.741.154 1.1.154.822 0 1.232-.216 1.232-.649 0-.205-.106-.348-.319-.429-.205-.08-.538-.158-1-.231a8.374 8.374 0 01-1.189-.253 1.88 1.88 0 01-.791-.495c-.22-.242-.33-.576-.33-1.001 0-.557.23-1.001.692-1.331.47-.337 1.1-.506 1.893-.506.403 0 .806.048 1.21.143.403.088.733.209.99.363l-.528 1.045a3.257 3.257 0 00-1.684-.44c-.403 0-.71.062-.923.187-.206.117-.309.275-.309.473 0 .22.11.378.33.473.228.088.576.172 1.045.253.47.073.855.158 1.156.253.3.095.557.257.77.484.22.227.33.55.33.968 0 .55-.239.99-.715 1.32-.477.33-1.126.495-1.948.495zm7.652-.396c-.162.132-.36.231-.594.297-.228.066-.47.099-.726.099-.646 0-1.144-.169-1.496-.506-.352-.337-.528-.829-.528-1.474V9.27h-.968v-1.1h.968V6.828h1.375V8.17h1.573v1.1h-1.573v2.794c0 .286.069.506.209.66.139.147.341.22.605.22.308 0 .564-.08.77-.242l.385.979zm.746 2.453c.447-.792.777-1.61.99-2.453.212-.843.319-1.742.319-2.695 0-.953-.107-1.852-.319-2.695a9.918 9.918 0 00-.99-2.453h1.309c.432.653.762 1.423.99 2.31.234.88.352 1.826.352 2.838a11.01 11.01 0 01-.352 2.838c-.228.873-.558 1.643-.99 2.31h-1.309z" fill="#474747"/></svg>