<svg width="136" height="20" viewBox="0 0 136 20" fill="none" xmlns="http://www.w3.org/2000/svg"><path d="M9.44 10.176c.619.203 1.11.544 1.472 1.024.363.47.544 1.056.544 1.76 0 .97-.373 1.723-1.12 2.256-.747.523-1.835.784-3.264.784H1.504V4.8h5.248c1.323 0 2.341.261 3.056.784.715.512 1.072 1.221 1.072 2.128 0 .555-.128 1.045-.384 1.472a2.63 2.63 0 01-1.056.992zM3.584 6.432V9.52h2.944c.725 0 1.28-.128 1.664-.384.395-.267.592-.65.592-1.152 0-.512-.197-.896-.592-1.152-.384-.267-.939-.4-1.664-.4H3.584zm3.36 7.936c1.61 0 2.416-.539 2.416-1.616s-.805-1.616-2.416-1.616h-3.36v3.232h3.36zm14.572-2.592c0 .139-.01.336-.032.592H14.78c.117.63.421 1.13.912 1.504.501.363 1.12.544 1.856.544.939 0 1.712-.31 2.32-.928l1.072 1.232c-.384.459-.87.805-1.456 1.04-.587.235-1.248.352-1.984.352-.939 0-1.765-.187-2.48-.56A4.103 4.103 0 0113.356 14c-.384-.672-.576-1.43-.576-2.272 0-.832.187-1.579.56-2.24a4.07 4.07 0 011.584-1.568c.672-.373 1.43-.56 2.272-.56.832 0 1.573.187 2.224.56.661.363 1.173.88 1.536 1.552.373.661.56 1.43.56 2.304zm-4.32-2.816c-.64 0-1.184.192-1.632.576-.438.373-.704.875-.8 1.504h4.848c-.085-.619-.347-1.12-.784-1.504-.438-.384-.982-.576-1.632-.576zm8.145-.256c.576-.896 1.59-1.344 3.04-1.344v1.904a2.539 2.539 0 00-.464-.048c-.779 0-1.387.23-1.824.688-.437.448-.656 1.099-.656 1.952V16h-2V7.456h1.904v1.248zm9.585-1.344c1.077 0 1.941.315 2.592.944.65.63.976 1.563.976 2.8V16h-2v-4.64c0-.747-.176-1.307-.528-1.68-.352-.384-.854-.576-1.504-.576-.736 0-1.318.224-1.744.672-.427.437-.64 1.072-.64 1.904V16h-2V7.456h1.904V8.56c.33-.395.746-.693 1.248-.896.501-.203 1.066-.304 1.696-.304zm6.105.096h2V16h-2V7.456zm1.008-1.408c-.363 0-.667-.112-.912-.336a1.149 1.149 0 01-.368-.864c0-.341.122-.624.368-.848.245-.235.55-.352.912-.352s.666.112.912.336c.245.213.368.485.368.816 0 .352-.123.65-.368.896-.235.235-.539.352-.912.352zm7.537 10.064c-.886 0-1.68-.187-2.384-.56A4.129 4.129 0 0145.544 14c-.395-.672-.592-1.43-.592-2.272 0-.843.197-1.595.592-2.256a4.155 4.155 0 011.632-1.552c.704-.373 1.504-.56 2.4-.56.842 0 1.578.17 2.208.512.64.341 1.12.832 1.44 1.472l-1.536.896a2.362 2.362 0 00-.928-.88 2.418 2.418 0 00-1.2-.304c-.747 0-1.366.245-1.856.736-.49.48-.736 1.125-.736 1.936 0 .81.24 1.461.72 1.952.49.48 1.114.72 1.872.72.437 0 .837-.096 1.2-.288.373-.203.682-.501.928-.896l1.536.896a3.499 3.499 0 01-1.456 1.488c-.63.341-1.36.512-2.192.512zm13.284-4.336c0 .139-.011.336-.032.592h-6.704c.117.63.421 1.13.912 1.504.501.363 1.12.544 1.856.544.938 0 1.712-.31 2.32-.928l1.072 1.232c-.384.459-.87.805-1.456 1.04-.587.235-1.248.352-1.984.352-.939 0-1.766-.187-2.48-.56A4.105 4.105 0 0154.7 14c-.384-.672-.576-1.43-.576-2.272 0-.832.186-1.579.56-2.24a4.07 4.07 0 011.584-1.568c.672-.373 1.429-.56 2.272-.56.832 0 1.573.187 2.224.56.661.363 1.173.88 1.536 1.552.373.661.56 1.43.56 2.304zM58.54 8.96c-.64 0-1.184.192-1.632.576-.438.373-.704.875-.8 1.504h4.848c-.086-.619-.347-1.12-.784-1.504-.438-.384-.982-.576-1.632-.576zM69.395 4.8h4.896c1.194 0 2.256.235 3.184.704.928.459 1.648 1.115 2.16 1.968.512.843.768 1.819.768 2.928 0 1.11-.256 2.09-.768 2.944-.512.843-1.232 1.499-2.16 1.968-.928.459-1.99.688-3.184.688h-4.896V4.8zm4.8 9.44c.821 0 1.541-.155 2.16-.464a3.38 3.38 0 001.44-1.344c.341-.587.512-1.264.512-2.032s-.171-1.44-.512-2.016a3.256 3.256 0 00-1.44-1.344c-.619-.32-1.339-.48-2.16-.48h-2.72v7.68h2.72zm12.066 1.872c-.864 0-1.642-.187-2.336-.56A4.155 4.155 0 0182.293 14c-.384-.672-.576-1.43-.576-2.272 0-.843.192-1.595.576-2.256a4.155 4.155 0 011.632-1.552c.694-.373 1.472-.56 2.336-.56.875 0 1.659.187 2.352.56.694.373 1.232.89 1.616 1.552.395.661.592 1.413.592 2.256 0 .843-.197 1.6-.592 2.272a4.045 4.045 0 01-1.616 1.552c-.693.373-1.477.56-2.352.56zm0-1.712c.736 0 1.344-.245 1.824-.736.48-.49.72-1.136.72-1.936s-.24-1.445-.72-1.936c-.48-.49-1.088-.736-1.824-.736s-1.344.245-1.824.736c-.469.49-.704 1.136-.704 1.936s.235 1.445.704 1.936c.48.49 1.088.736 1.824.736zm14.745-6.944V16h-1.904v-1.088c-.32.384-.72.683-1.2.896-.48.203-.998.304-1.552.304-1.141 0-2.043-.315-2.704-.944-.65-.64-.976-1.584-.976-2.832v-4.88h2v4.608c0 .768.17 1.344.512 1.728.352.373.848.56 1.488.56.715 0 1.28-.219 1.696-.656.427-.448.64-1.088.64-1.92v-4.32h2zm11.099 0v7.248c0 3.008-1.536 4.512-4.608 4.512a8.35 8.35 0 01-2.336-.32c-.736-.203-1.344-.501-1.824-.896l.896-1.504c.373.31.842.555 1.408.736a5.482 5.482 0 001.744.288c.938 0 1.626-.213 2.064-.64.437-.427.656-1.077.656-1.952v-.448a3.298 3.298 0 01-1.248.848 4.402 4.402 0 01-1.616.288c-.811 0-1.547-.17-2.208-.512a4.034 4.034 0 01-1.552-1.472c-.374-.63-.56-1.35-.56-2.16s.186-1.525.56-2.144a3.917 3.917 0 011.552-1.456c.661-.341 1.397-.512 2.208-.512a4.45 4.45 0 011.68.304c.512.203.938.512 1.28.928V7.456h1.904zm-4.56 6.464c.757 0 1.376-.224 1.856-.672.49-.459.736-1.05.736-1.776 0-.715-.246-1.296-.736-1.744-.48-.448-1.099-.672-1.856-.672-.768 0-1.398.224-1.888.672-.48.448-.72 1.03-.72 1.744 0 .725.24 1.317.72 1.776.49.448 1.12.672 1.888.672zm7.189-9.792h2V16h-2V4.128zm7.889 3.232c1.259 0 2.219.304 2.88.912.672.597 1.008 1.504 1.008 2.72V16h-1.888v-1.04c-.245.373-.597.661-1.056.864-.448.192-.992.288-1.632.288-.64 0-1.2-.107-1.68-.32-.48-.224-.853-.528-1.12-.912a2.388 2.388 0 01-.384-1.328c0-.768.283-1.381.848-1.84.576-.47 1.477-.704 2.704-.704h2.208v-.128c0-.597-.181-1.056-.544-1.376-.352-.32-.88-.48-1.584-.48-.48 0-.955.075-1.424.224-.459.15-.848.357-1.168.624l-.784-1.456c.448-.341.987-.603 1.616-.784a7.189 7.189 0 012-.272zm-.272 7.296c.501 0 .944-.112 1.328-.336.395-.235.672-.565.832-.992v-.992h-2.064c-1.152 0-1.728.379-1.728 1.136 0 .363.144.65.432.864.288.213.688.32 1.2.32zm9.367 1.456c-.694 0-1.371-.09-2.032-.272-.662-.181-1.19-.41-1.584-.688l.768-1.52a5.11 5.11 0 001.376.624c.544.15 1.077.224 1.6.224 1.194 0 1.792-.315 1.792-.944 0-.299-.155-.507-.464-.624-.299-.117-.784-.23-1.456-.336-.704-.107-1.28-.23-1.728-.368a2.729 2.729 0 01-1.152-.72c-.32-.352-.48-.837-.48-1.456 0-.81.336-1.456 1.008-1.936.682-.49 1.6-.736 2.752-.736.586 0 1.173.07 1.76.208.586.128 1.066.304 1.44.528l-.768 1.52c-.726-.427-1.542-.64-2.448-.64-.587 0-1.035.09-1.344.272-.299.17-.448.4-.448.688 0 .32.16.55.48.688.33.128.837.25 1.52.368.682.107 1.242.23 1.68.368.437.139.81.373 1.12.704.32.33.48.8.48 1.408 0 .8-.347 1.44-1.04 1.92-.694.48-1.638.72-2.832.72z" fill="#575757"/></svg>