<svg width="44" height="38" viewBox="0 0 44 38" fill="none" xmlns="http://www.w3.org/2000/svg"><path d="M28.39 7.333a3.677 3.677 0 003.667-3.666A3.677 3.677 0 0028.39 0a3.677 3.677 0 00-3.666 3.667 3.677 3.677 0 003.666 3.666z" fill="#8FD38A"/><path fill-rule="evenodd" clip-rule="evenodd" d="M0 28.495c0-5.07 4.149-9.219 9.219-9.219 5.07 0 9.22 4.149 9.22 9.22 0 5.07-4.15 9.218-9.22 9.218S0 33.566 0 28.495zm2.766 0a6.414 6.414 0 006.453 6.454 6.414 6.414 0 006.453-6.454 6.414 6.414 0 00-6.453-6.453 6.414 6.414 0 00-6.453 6.453z" fill="#8FD38A"/><path d="M34.571 17.448v-3.682c-2.74 0-5.023-1.012-6.667-2.669L24.342 7.6c-.548-.645-1.46-1.105-2.465-1.105s-1.918.368-2.558 1.105l-5.023 5.062c-.64.644-1.096 1.565-1.096 2.577 0 1.013.457 1.933 1.096 2.67l5.754 5.154v9.204h3.653V20.76l-4.018-4.05 4.292-4.417 1.37 1.38c2.283 2.393 5.48 3.774 9.224 3.774z" fill="#8FD38A"/><path fill-rule="evenodd" clip-rule="evenodd" d="M25.562 28.495c0-5.07 4.148-9.219 9.219-9.219 5.07 0 9.219 4.149 9.219 9.22 0 5.07-4.149 9.218-9.22 9.218-5.07 0-9.218-4.148-9.218-9.219zm2.766 0a6.414 6.414 0 006.453 6.454 6.414 6.414 0 006.453-6.454 6.414 6.414 0 00-6.453-6.453 6.414 6.414 0 00-6.453 6.453z" fill="#8FD38A"/></svg>