<svg width="269" height="15" viewBox="0 0 269 15" fill="none" xmlns="http://www.w3.org/2000/svg"><path d="M5.016 12.12c-.848 0-1.616-.184-2.304-.552a4.212 4.212 0 01-1.608-1.548C.72 9.364.528 8.624.528 7.8c0-.824.196-1.564.588-2.22a4.124 4.124 0 011.608-1.536c.688-.376 1.456-.564 2.304-.564.688 0 1.316.12 1.884.36.568.24 1.048.588 1.44 1.044l-1.008.948c-.608-.656-1.356-.984-2.244-.984-.576 0-1.092.128-1.548.384a2.682 2.682 0 00-1.068 1.044A3.017 3.017 0 002.1 7.8c0 .568.128 1.076.384 1.524.256.448.612.8 1.068 1.056.456.248.972.372 1.548.372.888 0 1.636-.332 2.244-.996l1.008.96A3.823 3.823 0 016.9 11.76c-.568.24-1.196.36-1.884.36zm7.332-.036c-.648 0-1.232-.14-1.752-.42A3.117 3.117 0 019.372 10.5a3.373 3.373 0 01-.432-1.704c0-.632.144-1.196.432-1.692a3.117 3.117 0 011.224-1.164c.52-.28 1.104-.42 1.752-.42.656 0 1.244.14 1.764.42.52.28.924.668 1.212 1.164.296.496.444 1.06.444 1.692 0 .632-.148 1.2-.444 1.704a3.033 3.033 0 01-1.212 1.164c-.52.28-1.108.42-1.764.42zm0-1.284c.552 0 1.008-.184 1.368-.552.36-.368.54-.852.54-1.452s-.18-1.084-.54-1.452c-.36-.368-.816-.552-1.368-.552-.552 0-1.008.184-1.368.552-.352.368-.528.852-.528 1.452s.176 1.084.528 1.452c.36.368.816.552 1.368.552zm8.407-5.28c.624 0 1.18.136 1.668.408.496.272.884.656 1.164 1.152.28.496.42 1.068.42 1.716 0 .648-.14 1.224-.42 1.728-.28.496-.668.88-1.164 1.152-.488.272-1.044.408-1.668.408-.864 0-1.548-.288-2.052-.864v3.108h-1.5V5.592h1.428v.84a2.33 2.33 0 01.912-.684 3.145 3.145 0 011.212-.228zm-.168 5.28c.552 0 1.004-.184 1.356-.552.36-.368.54-.852.54-1.452s-.18-1.084-.54-1.452c-.352-.368-.804-.552-1.356-.552-.36 0-.684.084-.972.252-.288.16-.516.392-.684.696a2.148 2.148 0 00-.252 1.056c0 .4.084.752.252 1.056.168.304.396.54.684.708.288.16.612.24.972.24zm10.666-5.208l-3 6.924c-.28.696-.62 1.184-1.02 1.464-.4.288-.884.432-1.451.432a2.98 2.98 0 01-.948-.156 2.095 2.095 0 01-.768-.432l.6-1.104c.143.136.311.244.503.324.2.08.4.12.6.12.265 0 .48-.068.649-.204.175-.136.335-.364.48-.684l.108-.252-2.797-6.432h1.56l2.017 4.74 2.027-4.74h1.44zm2.366.936c.432-.672 1.192-1.008 2.28-1.008v1.428a1.904 1.904 0 00-.348-.036c-.584 0-1.04.172-1.368.516-.328.336-.492.824-.492 1.464V12h-1.5V5.592h1.428v.936zm3.553-.936h1.5V12h-1.5V5.592zm.756-1.056a.977.977 0 01-.684-.252.862.862 0 01-.276-.648c0-.256.091-.468.275-.636a.951.951 0 01.684-.264c.273 0 .5.084.684.252.184.16.277.364.277.612a.925.925 0 01-.96.936zM47 5.592v5.436c0 2.256-1.152 3.384-3.456 3.384-.616 0-1.2-.08-1.752-.24-.552-.152-1.008-.376-1.368-.672l.672-1.128c.28.232.632.416 1.056.552.432.144.868.216 1.308.216.704 0 1.22-.16 1.548-.48.328-.32.492-.808.492-1.464v-.336c-.256.28-.568.492-.936.636a3.299 3.299 0 01-1.212.216c-.608 0-1.16-.128-1.656-.384a3.027 3.027 0 01-1.164-1.104c-.28-.472-.42-1.012-.42-1.62 0-.608.14-1.144.42-1.608a2.94 2.94 0 011.164-1.092 3.557 3.557 0 011.656-.384c.464 0 .884.076 1.26.228.384.152.704.384.96.696v-.852H47zm-3.42 4.848c.568 0 1.032-.168 1.392-.504.368-.344.552-.788.552-1.332 0-.536-.184-.972-.552-1.308-.36-.336-.824-.504-1.392-.504-.576 0-1.048.168-1.416.504-.36.336-.54.772-.54 1.308 0 .544.18.988.54 1.332.368.336.84.504 1.416.504zm9.028-4.92c.808 0 1.456.236 1.944.708s.732 1.172.732 2.1V12h-1.5V8.52c0-.56-.132-.98-.396-1.26-.264-.288-.64-.432-1.128-.432-.552 0-.988.168-1.308.504-.32.328-.48.804-.48 1.428V12h-1.5V3.096h1.5v3.24c.248-.264.552-.464.912-.6a3.333 3.333 0 011.224-.216zm8.431 6.132a1.762 1.762 0 01-.648.324 2.828 2.828 0 01-.792.108c-.704 0-1.248-.184-1.632-.552-.384-.368-.576-.904-.576-1.608V6.84h-1.056v-1.2h1.056V4.176h1.5V5.64h1.716v1.2h-1.716v3.048c0 .312.076.552.228.72.152.16.372.24.66.24.336 0 .616-.088.84-.264l.42 1.068zm8.582.468c-.847 0-1.615-.184-2.303-.552a4.212 4.212 0 01-1.608-1.548c-.384-.656-.576-1.396-.576-2.22 0-.824.195-1.564.588-2.22a4.124 4.124 0 011.608-1.536c.688-.376 1.456-.564 2.303-.564.689 0 1.317.12 1.885.36.567.24 1.047.588 1.44 1.044l-1.008.948c-.609-.656-1.356-.984-2.245-.984-.576 0-1.091.128-1.547.384a2.682 2.682 0 00-1.069 1.044 3.017 3.017 0 00-.383 1.524c0 .568.127 1.076.383 1.524.257.448.612.8 1.069 1.056.456.248.971.372 1.547.372.889 0 1.636-.332 2.245-.996l1.007.96a3.823 3.823 0 01-1.451 1.044c-.569.24-1.197.36-1.885.36zm7.333-.036c-.648 0-1.232-.14-1.752-.42a3.117 3.117 0 01-1.224-1.164 3.373 3.373 0 01-.432-1.704c0-.632.144-1.196.432-1.692a3.117 3.117 0 011.224-1.164c.52-.28 1.104-.42 1.752-.42.656 0 1.244.14 1.764.42.52.28.924.668 1.212 1.164.296.496.444 1.06.444 1.692 0 .632-.148 1.2-.444 1.704a3.033 3.033 0 01-1.212 1.164c-.52.28-1.108.42-1.764.42zm0-1.284c.552 0 1.008-.184 1.368-.552.36-.368.54-.852.54-1.452s-.18-1.084-.54-1.452c-.36-.368-.816-.552-1.368-.552-.552 0-1.008.184-1.368.552-.352.368-.528.852-.528 1.452s.176 1.084.528 1.452c.36.368.816.552 1.368.552zm8.49-5.28c.808 0 1.456.236 1.944.708s.732 1.172.732 2.1V12h-1.5V8.52c0-.56-.132-.98-.396-1.26-.264-.288-.64-.432-1.128-.432-.552 0-.988.168-1.308.504-.32.328-.48.804-.48 1.428V12h-1.5V5.592h1.428v.828c.248-.296.56-.52.936-.672.376-.152.8-.228 1.272-.228zm8.215 0c.808 0 1.456.236 1.944.708s.732 1.172.732 2.1V12h-1.5V8.52c0-.56-.132-.98-.396-1.26-.264-.288-.64-.432-1.128-.432-.552 0-.988.168-1.308.504-.32.328-.48.804-.48 1.428V12h-1.5V5.592h1.428v.828c.248-.296.56-.52.936-.672.376-.152.8-.228 1.272-.228zm10.662 3.312c0 .104-.008.252-.024.444h-5.028c.087.472.316.848.683 1.128.377.272.841.408 1.393.408.704 0 1.284-.232 1.74-.696l.804.924a2.709 2.709 0 01-1.092.78c-.44.176-.936.264-1.488.264-.704 0-1.325-.14-1.86-.42A3.078 3.078 0 0198.2 10.5a3.373 3.373 0 01-.432-1.704c0-.624.14-1.184.42-1.68a3.052 3.052 0 011.188-1.176 3.45 3.45 0 011.704-.42c.624 0 1.18.14 1.668.42.496.272.88.66 1.152 1.164.28.496.42 1.072.42 1.728zm-3.24-2.112c-.48 0-.888.144-1.225.432-.328.28-.527.656-.6 1.128h3.637a1.768 1.768 0 00-.588-1.128c-.328-.288-.736-.432-1.224-.432zm7.62 5.364c-.664 0-1.26-.14-1.788-.42a3.097 3.097 0 01-1.236-1.164 3.301 3.301 0 01-.444-1.704c0-.632.148-1.196.444-1.692a3.117 3.117 0 011.224-1.164c.528-.28 1.128-.42 1.8-.42.632 0 1.184.128 1.656.384.48.256.84.624 1.08 1.104l-1.152.672a1.77 1.77 0 00-.696-.66 1.813 1.813 0 00-.9-.228c-.56 0-1.024.184-1.392.552-.368.36-.552.844-.552 1.452s.18 1.096.54 1.464c.368.36.836.54 1.404.54.328 0 .628-.072.9-.216.28-.152.512-.376.696-.672l1.152.672c-.248.48-.612.852-1.092 1.116-.472.256-1.02.384-1.644.384zm7.967-.432a1.762 1.762 0 01-.648.324 2.828 2.828 0 01-.792.108c-.704 0-1.248-.184-1.632-.552-.384-.368-.576-.904-.576-1.608V6.84h-1.056v-1.2h1.056V4.176h1.5V5.64h1.716v1.2h-1.716v3.048c0 .312.076.552.228.72.152.16.372.24.66.24.336 0 .616-.088.84-.264l.42 1.068zm7.047-2.82c0 .104-.008.252-.024.444h-5.028c.088.472.316.848.684 1.128.376.272.84.408 1.392.408.704 0 1.284-.232 1.74-.696l.804.924a2.709 2.709 0 01-1.092.78c-.44.176-.936.264-1.488.264-.704 0-1.324-.14-1.86-.42a3.078 3.078 0 01-1.248-1.164 3.373 3.373 0 01-.432-1.704c0-.624.14-1.184.42-1.68a3.052 3.052 0 011.188-1.176 3.449 3.449 0 011.704-.42c.624 0 1.18.14 1.668.42.496.272.88.66 1.152 1.164.28.496.42 1.072.42 1.728zm-3.24-2.112c-.48 0-.888.144-1.224.432-.328.28-.528.656-.6 1.128h3.636a1.768 1.768 0 00-.588-1.128c-.328-.288-.736-.432-1.224-.432zm10.957-3.624V12h-1.44v-.828a2.312 2.312 0 01-.924.684c-.36.152-.76.228-1.2.228a3.411 3.411 0 01-1.668-.408 2.954 2.954 0 01-1.152-1.152c-.28-.504-.42-1.08-.42-1.728 0-.648.14-1.22.42-1.716.28-.496.664-.88 1.152-1.152a3.411 3.411 0 011.668-.408c.424 0 .812.072 1.164.216.352.144.652.36.9.648V3.096h1.5zm-3.384 7.704c.36 0 .684-.08.972-.24a1.82 1.82 0 00.684-.708c.168-.304.252-.656.252-1.056s-.084-.752-.252-1.056a1.736 1.736 0 00-.684-.696 1.893 1.893 0 00-.972-.252c-.36 0-.684.084-.972.252-.288.16-.516.392-.684.696a2.148 2.148 0 00-.252 1.056c0 .4.084.752.252 1.056.168.304.396.54.684.708.288.16.612.24.972.24zm16.271-7.2V12h-1.56V8.4h-4.344V12h-1.56V3.6h1.56v3.468h4.344V3.6h1.56zm8.13 5.232c0 .104-.008.252-.024.444h-5.028c.088.472.316.848.684 1.128.376.272.84.408 1.392.408.704 0 1.284-.232 1.74-.696l.804.924a2.709 2.709 0 01-1.092.78c-.44.176-.936.264-1.488.264-.704 0-1.324-.14-1.86-.42a3.078 3.078 0 01-1.248-1.164 3.373 3.373 0 01-.432-1.704c0-.624.14-1.184.42-1.68a3.052 3.052 0 011.188-1.176 3.449 3.449 0 011.704-.42c.624 0 1.18.14 1.668.42.496.272.88.66 1.152 1.164.28.496.42 1.072.42 1.728zm-3.24-2.112c-.48 0-.888.144-1.224.432-.328.28-.528.656-.6 1.128h3.636a1.768 1.768 0 00-.588-1.128c-.328-.288-.736-.432-1.224-.432zm6.953-1.2c.944 0 1.664.228 2.16.684.504.448.756 1.128.756 2.04V12h-1.416v-.78c-.184.28-.448.496-.792.648-.336.144-.744.216-1.224.216s-.9-.08-1.26-.24a2.05 2.05 0 01-.84-.684 1.79 1.79 0 01-.288-.996c0-.576.212-1.036.636-1.38.432-.352 1.108-.528 2.028-.528h1.656V8.16c0-.448-.136-.792-.408-1.032-.264-.24-.66-.36-1.188-.36-.36 0-.716.056-1.068.168a2.617 2.617 0 00-.876.468l-.588-1.092c.336-.256.74-.452 1.212-.588a5.393 5.393 0 011.5-.204zm-.204 5.472c.376 0 .708-.084.996-.252.296-.176.504-.424.624-.744v-.744h-1.548c-.864 0-1.296.284-1.296.852 0 .272.108.488.324.648.216.16.516.24.9.24zm5.046-7.896h1.5V12h-1.5V3.096zm7.637 8.556a1.762 1.762 0 01-.648.324 2.828 2.828 0 01-.792.108c-.704 0-1.248-.184-1.632-.552-.384-.368-.576-.904-.576-1.608V6.84h-1.056v-1.2h1.056V4.176h1.5V5.64h1.716v1.2h-1.716v3.048c0 .312.076.552.228.72.152.16.372.24.66.24.336 0 .616-.088.84-.264l.42 1.068zm4.87-6.132c.808 0 1.456.236 1.944.708s.732 1.172.732 2.1V12h-1.5V8.52c0-.56-.132-.98-.396-1.26-.264-.288-.64-.432-1.128-.432-.552 0-.988.168-1.308.504-.32.328-.48.804-.48 1.428V12h-1.5V3.096h1.5v3.24c.248-.264.552-.464.912-.6a3.333 3.333 0 011.224-.216zm5.07 4.572c.28 0 .512.092.696.276.184.184.276.424.276.72 0 .128-.02.264-.06.408a4.933 4.933 0 01-.216.624l-.612 1.692h-.972l.48-1.836a.918.918 0 01-.42-.336 1.052 1.052 0 01-.144-.552c0-.296.092-.536.276-.72a.944.944 0 01.696-.276zM184.48 3.6h1.56V12h-1.56V3.6zm7.324 1.92c.808 0 1.456.236 1.944.708s.732 1.172.732 2.1V12h-1.5V8.52c0-.56-.132-.98-.396-1.26-.264-.288-.64-.432-1.128-.432-.552 0-.988.168-1.308.504-.32.328-.48.804-.48 1.428V12h-1.5V5.592h1.428v.828c.248-.296.56-.52.936-.672.376-.152.8-.228 1.272-.228zm7.577 6.564c-.664 0-1.26-.14-1.788-.42a3.097 3.097 0 01-1.236-1.164 3.301 3.301 0 01-.444-1.704c0-.632.148-1.196.444-1.692a3.117 3.117 0 011.224-1.164c.528-.28 1.128-.42 1.8-.42.632 0 1.184.128 1.656.384.48.256.84.624 1.08 1.104l-1.152.672a1.77 1.77 0 00-.696-.66 1.813 1.813 0 00-.9-.228c-.56 0-1.024.184-1.392.552-.368.36-.552.844-.552 1.452s.18 1.096.54 1.464c.368.36.836.54 1.404.54.328 0 .628-.072.9-.216.28-.152.512-.376.696-.672l1.152.672c-.248.48-.612.852-1.092 1.116-.472.256-1.02.384-1.644.384zm4.747 0a.97.97 0 01-.696-.276.977.977 0 01-.288-.72c0-.296.092-.536.276-.72a.984.984 0 01.708-.276c.28 0 .512.092.696.276.192.184.288.424.288.72a.977.977 0 01-.288.72.97.97 0 01-.696.276zm11.394-1.404V12h-6.192v-1.044l3.336-3.168c.376-.36.628-.672.756-.936.136-.272.204-.54.204-.804 0-.392-.132-.692-.396-.9-.264-.208-.652-.312-1.164-.312-.856 0-1.512.292-1.968.876l-1.092-.84c.328-.44.768-.78 1.32-1.02a4.574 4.574 0 011.872-.372c.912 0 1.64.216 2.184.648.544.432.816 1.02.816 1.764 0 .456-.096.884-.288 1.284-.192.4-.56.856-1.104 1.368l-2.244 2.136h3.96zm4.369 1.44a3.28 3.28 0 01-1.8-.504c-.528-.344-.944-.84-1.248-1.488-.304-.656-.456-1.432-.456-2.328 0-.896.152-1.668.456-2.316.304-.656.72-1.152 1.248-1.488a3.224 3.224 0 011.8-.516c.672 0 1.272.172 1.8.516.536.336.956.832 1.26 1.488.304.648.456 1.42.456 2.316 0 .896-.152 1.672-.456 2.328-.304.648-.724 1.144-1.26 1.488a3.28 3.28 0 01-1.8.504zm0-1.356c.6 0 1.072-.248 1.416-.744.352-.496.528-1.236.528-2.22 0-.984-.176-1.724-.528-2.22-.344-.496-.816-.744-1.416-.744-.592 0-1.064.248-1.416.744-.344.496-.516 1.236-.516 2.22 0 .984.172 1.724.516 2.22.352.496.824.744 1.416.744zm8.075 1.356a3.28 3.28 0 01-1.8-.504c-.528-.344-.944-.84-1.248-1.488-.304-.656-.456-1.432-.456-2.328 0-.896.152-1.668.456-2.316.304-.656.72-1.152 1.248-1.488a3.224 3.224 0 011.8-.516c.672 0 1.272.172 1.8.516.536.336.956.832 1.26 1.488.304.648.456 1.42.456 2.316 0 .896-.152 1.672-.456 2.328-.304.648-.724 1.144-1.26 1.488a3.28 3.28 0 01-1.8.504zm0-1.356c.6 0 1.072-.248 1.416-.744.352-.496.528-1.236.528-2.22 0-.984-.176-1.724-.528-2.22-.344-.496-.816-.744-1.416-.744-.592 0-1.064.248-1.416.744-.344.496-.516 1.236-.516 2.22 0 .984.172 1.724.516 2.22.352.496.824.744 1.416.744zm7.415-7.164V12h-1.56V4.908h-1.776V3.6h3.336zm1.799 4.44h3.3v1.248h-3.3V8.04zm10.393 2.64V12h-6.192v-1.044l3.336-3.168c.376-.36.628-.672.756-.936.136-.272.204-.54.204-.804 0-.392-.132-.692-.396-.9-.264-.208-.652-.312-1.164-.312-.856 0-1.512.292-1.968.876l-1.092-.84c.328-.44.768-.78 1.32-1.02a4.574 4.574 0 011.872-.372c.912 0 1.64.216 2.184.648.544.432.816 1.02.816 1.764 0 .456-.096.884-.288 1.284-.192.4-.56.856-1.104 1.368l-2.244 2.136h3.96zm4.369 1.44a3.28 3.28 0 01-1.8-.504c-.528-.344-.944-.84-1.248-1.488-.304-.656-.456-1.432-.456-2.328 0-.896.152-1.668.456-2.316.304-.656.72-1.152 1.248-1.488a3.224 3.224 0 011.8-.516c.672 0 1.272.172 1.8.516.536.336.956.832 1.26 1.488.304.648.456 1.42.456 2.316 0 .896-.152 1.672-.456 2.328-.304.648-.724 1.144-1.26 1.488a3.28 3.28 0 01-1.8.504zm0-1.356c.6 0 1.072-.248 1.416-.744.352-.496.528-1.236.528-2.22 0-.984-.176-1.724-.528-2.22-.344-.496-.816-.744-1.416-.744-.592 0-1.064.248-1.416.744-.344.496-.516 1.236-.516 2.22 0 .984.172 1.724.516 2.22.352.496.824.744 1.416.744zm7.416-7.164V12h-1.56V4.908h-1.776V3.6h3.336zm7.114 3.984c.44.2.776.472 1.008.816.24.336.36.732.36 1.188 0 .512-.144.96-.432 1.344-.28.384-.68.68-1.2.888-.52.2-1.124.3-1.812.3s-1.292-.1-1.812-.3c-.512-.208-.908-.504-1.188-.888a2.22 2.22 0 01-.42-1.344c0-.456.116-.852.348-1.188.232-.344.564-.616.996-.816a2.06 2.06 0 01-.78-.72 2.045 2.045 0 01-.264-1.044c0-.472.128-.884.384-1.236.264-.352.632-.624 1.104-.816.472-.192 1.016-.288 1.632-.288.624 0 1.172.096 1.644.288.472.192.84.464 1.104.816.264.352.396.764.396 1.236 0 .392-.092.736-.276 1.032-.184.296-.448.54-.792.732zm-2.076-2.88c-.488 0-.876.104-1.164.312-.28.208-.42.5-.42.876 0 .36.14.648.42.864.288.208.676.312 1.164.312.496 0 .888-.104 1.176-.312.288-.216.432-.504.432-.864 0-.376-.148-.668-.444-.876-.288-.208-.676-.312-1.164-.312zm0 6.192c.576 0 1.032-.12 1.368-.36.336-.24.504-.572.504-.996 0-.416-.168-.744-.504-.984-.336-.24-.792-.36-1.368-.36-.576 0-1.028.12-1.356.36-.328.24-.492.568-.492.984 0 .424.164.756.492.996.328.24.78.36 1.356.36z" fill="#fff"/></svg>