<svg width="52" height="16" viewBox="0 0 52 16" fill="none" xmlns="http://www.w3.org/2000/svg"><path d="M5.434 13.13c-.919 0-1.75-.2-2.496-.598a4.562 4.562 0 01-1.742-1.677C.78 10.145.572 9.343.572 8.45c0-.893.212-1.694.637-2.405a4.468 4.468 0 011.742-1.664c.745-.407 1.577-.611 2.496-.611.745 0 1.426.13 2.041.39s1.135.637 1.56 1.131L7.956 6.318c-.659-.71-1.469-1.066-2.431-1.066-.624 0-1.183.139-1.677.416-.494.269-.88.646-1.157 1.131s-.416 1.036-.416 1.651.139 1.166.416 1.651c.277.485.663.867 1.157 1.144.494.269 1.053.403 1.677.403.962 0 1.772-.36 2.431-1.079l1.092 1.04a4.141 4.141 0 01-1.573 1.131c-.615.26-1.296.39-2.041.39zm11.902-7.072l-3.25 7.501c-.303.754-.671 1.283-1.105 1.586-.433.312-.957.468-1.573.468-.346 0-.689-.056-1.027-.169a2.27 2.27 0 01-.832-.468l.65-1.196c.156.147.338.264.546.351.217.087.434.13.65.13.286 0 .52-.074.702-.221.191-.147.364-.394.52-.741l.117-.273-3.029-6.968h1.69l2.184 5.135 2.197-5.135h1.56zm4.336 7.033c-.72 0-1.366-.152-1.938-.455a3.355 3.355 0 01-1.339-1.261 3.576 3.576 0 01-.48-1.846c0-.685.16-1.296.48-1.833.321-.537.763-.958 1.326-1.261.573-.303 1.223-.455 1.95-.455.685 0 1.283.139 1.794.416.52.277.91.676 1.17 1.196l-1.248.728c-.199-.32-.45-.559-.753-.715a1.965 1.965 0 00-.976-.247c-.606 0-1.109.2-1.508.598-.398.39-.598.914-.598 1.573 0 .659.195 1.187.585 1.586.4.39.906.585 1.521.585.356 0 .68-.078.976-.234.303-.165.554-.407.753-.728l1.248.728c-.268.52-.663.923-1.183 1.209-.51.277-1.105.416-1.78.416zm4.63-9.737h1.625V13h-1.625V3.354zm4.083 2.704h1.625V13h-1.625V6.058zm.819-1.144c-.295 0-.542-.091-.741-.273a.933.933 0 01-.3-.702c0-.277.1-.507.3-.689.199-.19.446-.286.74-.286.295 0 .542.091.742.273a.84.84 0 01.299.663.99.99 0 01-.3.728c-.19.19-.437.286-.74.286zm7.202 1.066c.876 0 1.578.256 2.106.767.529.511.793 1.27.793 2.275V13H39.68V9.23c0-.607-.143-1.062-.429-1.365-.286-.312-.693-.468-1.222-.468-.598 0-1.07.182-1.417.546-.346.355-.52.871-.52 1.547V13h-1.625V6.058h1.547v.897a2.54 2.54 0 011.014-.728 3.649 3.649 0 011.378-.247zm12.24.078v5.889c0 2.444-1.249 3.666-3.745 3.666-.667 0-1.3-.087-1.898-.26-.598-.165-1.092-.407-1.482-.728l.728-1.222c.304.251.685.45 1.144.598.468.156.94.234 1.417.234.763 0 1.322-.173 1.677-.52.356-.347.533-.875.533-1.586v-.364a2.673 2.673 0 01-1.014.689 3.574 3.574 0 01-1.313.234 3.853 3.853 0 01-1.794-.416 3.28 3.28 0 01-1.26-1.196c-.304-.511-.456-1.096-.456-1.755 0-.659.152-1.24.455-1.742A3.185 3.185 0 0144.9 6.396a3.853 3.853 0 011.794-.416c.503 0 .958.082 1.365.247.416.165.763.416 1.04.754v-.923h1.547zM46.94 11.31c.616 0 1.118-.182 1.508-.546.399-.373.598-.854.598-1.443 0-.58-.2-1.053-.598-1.417-.39-.364-.892-.546-1.508-.546-.624 0-1.135.182-1.534.546-.39.364-.585.836-.585 1.417 0 .59.195 1.07.585 1.443.399.364.91.546 1.534.546z" fill="#474747"/></svg>