<svg width="27" height="15" viewBox="0 0 27 15" fill="none" xmlns="http://www.w3.org/2000/svg"><path d="M2.688 4.908v2.556h4.056v1.32H2.688V12h-1.56V3.6H7.26v1.308H2.688zm11.165 5.148h-4.2L8.825 12H7.217l3.78-8.4h1.536l3.792 8.4h-1.632l-.84-1.944zm-.516-1.224L11.753 5.16l-1.572 3.672h3.156zm12.807 4.008c-.28.328-.608.576-.984.744a2.884 2.884 0 01-1.212.252 3.232 3.232 0 01-1.584-.396c-.48-.256-1.028-.704-1.644-1.344a4.6 4.6 0 01-2.088-.672 4.171 4.171 0 01-1.44-1.524 4.32 4.32 0 01-.516-2.1c0-.816.196-1.552.588-2.208a4.077 4.077 0 011.62-1.548c.688-.376 1.46-.564 2.316-.564.856 0 1.628.188 2.316.564.688.368 1.228.88 1.62 1.536.392.656.588 1.396.588 2.22a4.33 4.33 0 01-.396 1.848 4.231 4.231 0 01-1.104 1.44 4.415 4.415 0 01-1.644.852c.232.248.46.428.684.54.224.112.464.168.72.168.552 0 1.032-.224 1.44-.672l.72.864zM18.248 7.8c0 .56.128 1.068.384 1.524.256.448.608.8 1.056 1.056.448.248.952.372 1.512.372s1.064-.124 1.512-.372c.448-.256.8-.608 1.056-1.056a3.06 3.06 0 00.384-1.524c0-.56-.128-1.064-.384-1.512a2.681 2.681 0 00-1.056-1.056 2.993 2.993 0 00-1.512-.384c-.56 0-1.064.128-1.512.384-.448.248-.8.6-1.056 1.056a2.993 2.993 0 00-.384 1.512z" fill="#fff"/></svg>