<svg width="53" height="16" viewBox="0 0 53 16" fill="none" xmlns="http://www.w3.org/2000/svg"><rect x=".25" y=".25" width="52.5" height="15.5" rx="7.75" fill="#fff" stroke="#979797" stroke-width=".5"/><path d="M18.48 9.38h-3.5L14.29 11h-1.34l3.15-7h1.28l3.16 7h-1.36l-.7-1.62zm-.43-1.02L16.73 5.3l-1.31 3.06h2.63zm7.987-2.7L23.747 11h-1.29l-2.29-5.34h1.3l1.66 3.96 1.71-3.96h1.2zm3.035 5.41a3.03 3.03 0 01-1.46-.35 2.597 2.597 0 01-1.02-.97 2.81 2.81 0 01-.36-1.42c0-.527.12-.997.36-1.41a2.597 2.597 0 011.02-.97 3.03 3.03 0 011.46-.35c.546 0 1.036.117 1.47.35.433.233.77.557 1.01.97.246.413.37.883.37 1.41 0 .527-.124 1-.37 1.42-.24.413-.577.737-1.01.97-.434.233-.924.35-1.47.35zm0-1.07c.46 0 .84-.153 1.14-.46.3-.307.45-.71.45-1.21s-.15-.903-.45-1.21c-.3-.307-.68-.46-1.14-.46-.46 0-.84.153-1.14.46-.294.307-.44.71-.44 1.21s.146.903.44 1.21c.3.307.68.46 1.14.46zm4.045-4.34h1.25V11h-1.25V5.66zm.63-.88a.814.814 0 01-.57-.21.718.718 0 01-.23-.54c0-.213.076-.39.23-.53a.793.793 0 01.57-.22c.227 0 .416.07.57.21.153.133.23.303.23.51a.771.771 0 01-.8.78zm7.49-1.2V11h-1.2v-.69a1.927 1.927 0 01-.77.57c-.3.127-.633.19-1 .19-.513 0-.976-.113-1.39-.34a2.461 2.461 0 01-.96-.96c-.233-.42-.35-.9-.35-1.44 0-.54.117-1.017.35-1.43a2.46 2.46 0 01.96-.96c.414-.227.877-.34 1.39-.34.354 0 .677.06.97.18.294.12.544.3.75.54V3.58h1.25zM38.417 10c.3 0 .57-.067.81-.2.24-.14.43-.337.57-.59.14-.253.21-.547.21-.88 0-.333-.07-.627-.21-.88a1.447 1.447 0 00-.57-.58c-.24-.14-.51-.21-.81-.21-.3 0-.57.07-.81.21-.24.133-.43.327-.57.58a1.79 1.79 0 00-.21.88c0 .333.07.627.21.88.14.253.33.45.57.59.24.133.51.2.81.2z" fill="#F02A2A"/></svg>