<svg width="178" height="28" viewBox="0 0 178 28" fill="none" xmlns="http://www.w3.org/2000/svg"><path d="M10.024 9.2V19h-1.82v-4.2H3.136V19h-1.82V9.2h1.82v4.046h5.068V9.2h1.82zm9.486 6.104c0 .121-.01.294-.028.518h-5.866c.103.55.369.99.798 1.316.439.317.98.476 1.624.476.821 0 1.498-.27 2.03-.812l.938 1.078a3.16 3.16 0 01-1.274.91c-.513.205-1.092.308-1.736.308-.821 0-1.545-.163-2.17-.49a3.591 3.591 0 01-1.456-1.358c-.336-.588-.504-1.25-.504-1.988 0-.728.163-1.381.49-1.96a3.56 3.56 0 011.386-1.372c.588-.327 1.25-.49 1.988-.49.728 0 1.377.163 1.946.49.579.317 1.027.77 1.344 1.358.327.579.49 1.25.49 2.016zm-3.78-2.464c-.56 0-1.036.168-1.428.504-.383.327-.616.765-.7 1.316h4.242c-.075-.541-.303-.98-.686-1.316-.383-.336-.859-.504-1.428-.504zm8.112-1.4c1.101 0 1.941.266 2.52.798.588.523.882 1.316.882 2.38V19h-1.652v-.91a2.074 2.074 0 01-.924.756c-.392.168-.868.252-1.428.252-.56 0-1.05-.093-1.47-.28a2.391 2.391 0 01-.98-.798 2.09 2.09 0 01-.336-1.162c0-.672.247-1.209.742-1.61.504-.41 1.293-.616 2.366-.616h1.932v-.112c0-.523-.159-.924-.476-1.204-.308-.28-.77-.42-1.386-.42-.42 0-.835.065-1.246.196-.401.13-.742.313-1.022.546l-.686-1.274a4.248 4.248 0 011.414-.686 6.29 6.29 0 011.75-.238zm-.238 6.384c.439 0 .826-.098 1.162-.294.345-.205.588-.495.728-.868v-.868h-1.806c-1.008 0-1.512.331-1.512.994 0 .317.126.57.378.756.252.187.602.28 1.05.28zm5.886-9.212h1.75V19h-1.75V8.612zm8.91 9.982a2.056 2.056 0 01-.756.378c-.29.084-.597.126-.924.126-.822 0-1.456-.215-1.904-.644-.448-.43-.672-1.055-.672-1.876V12.98h-1.232v-1.4h1.232V9.872h1.75v1.708h2.002v1.4h-2.002v3.556c0 .364.089.644.266.84.177.187.434.28.77.28.392 0 .718-.103.98-.308l.49 1.246zm5.681-7.154c.943 0 1.7.275 2.268.826.57.55.854 1.367.854 2.45V19h-1.75v-4.06c0-.653-.154-1.143-.462-1.47-.308-.336-.746-.504-1.316-.504-.644 0-1.152.196-1.526.588-.373.383-.56.938-.56 1.666V19h-1.75V8.612h1.75v3.78c.29-.308.644-.541 1.064-.7.43-.168.906-.252 1.428-.252zm13.915 7.7c-.989 0-1.885-.215-2.688-.644a4.915 4.915 0 01-1.876-1.806c-.448-.765-.672-1.629-.672-2.59 0-.961.23-1.825.687-2.59a4.812 4.812 0 011.875-1.792c.803-.439 1.7-.658 2.688-.658.803 0 1.536.14 2.199.42.662.28 1.222.686 1.68 1.218l-1.177 1.106c-.709-.765-1.582-1.148-2.618-1.148-.672 0-1.273.15-1.806.448-.531.29-.947.695-1.245 1.218-.3.523-.449 1.115-.449 1.778s.15 1.255.448 1.778c.3.523.715.933 1.246 1.232.533.29 1.135.434 1.806.434 1.036 0 1.91-.387 2.618-1.162l1.176 1.12a4.46 4.46 0 01-1.694 1.218c-.662.28-1.395.42-2.198.42zm8.256-7.7c1.101 0 1.941.266 2.52.798.588.523.882 1.316.882 2.38V19h-1.652v-.91a2.073 2.073 0 01-.924.756c-.392.168-.868.252-1.428.252-.56 0-1.05-.093-1.47-.28a2.392 2.392 0 01-.98-.798 2.09 2.09 0 01-.336-1.162c0-.672.247-1.209.742-1.61.504-.41 1.293-.616 2.366-.616h1.932v-.112c0-.523-.159-.924-.476-1.204-.308-.28-.77-.42-1.386-.42-.42 0-.835.065-1.246.196-.401.13-.742.313-1.022.546l-.686-1.274a4.248 4.248 0 011.414-.686 6.29 6.29 0 011.75-.238zm-.238 6.384c.439 0 .826-.098 1.162-.294.345-.205.588-.495.728-.868v-.868h-1.806c-1.008 0-1.512.331-1.512.994 0 .317.126.57.378.756.252.187.602.28 1.05.28zm7.552-5.208c.504-.784 1.39-1.176 2.66-1.176v1.666a2.222 2.222 0 00-.406-.042c-.681 0-1.213.2-1.596.602-.383.392-.574.961-.574 1.708V19H71.9v-7.476h1.666v1.092zm11.104 2.688c0 .121-.01.294-.028.518h-5.866c.103.55.369.99.798 1.316.439.317.98.476 1.624.476.822 0 1.498-.27 2.03-.812l.938 1.078a3.16 3.16 0 01-1.274.91c-.513.205-1.092.308-1.736.308-.821 0-1.544-.163-2.17-.49a3.592 3.592 0 01-1.456-1.358c-.336-.588-.504-1.25-.504-1.988 0-.728.163-1.381.49-1.96a3.56 3.56 0 011.386-1.372c.588-.327 1.25-.49 1.988-.49.728 0 1.377.163 1.946.49.579.317 1.027.77 1.344 1.358.327.579.49 1.25.49 2.016zm-3.78-2.464c-.56 0-1.036.168-1.428.504-.383.327-.616.765-.7 1.316h4.242c-.075-.541-.303-.98-.686-1.316-.382-.336-.858-.504-1.428-.504zM94.42 9.2c.85 0 1.587.14 2.212.42.635.28 1.12.681 1.456 1.204.336.523.504 1.143.504 1.862 0 .71-.168 1.33-.504 1.862-.336.523-.821.924-1.456 1.204-.625.28-1.362.42-2.212.42h-2.212V19h-1.82V9.2h4.032zm-.084 5.432c.794 0 1.396-.168 1.806-.504.41-.336.616-.817.616-1.442s-.205-1.106-.616-1.442c-.41-.336-1.012-.504-1.806-.504h-2.128v3.892h2.128zm7.503-2.016c.504-.784 1.391-1.176 2.66-1.176v1.666a2.213 2.213 0 00-.406-.042c-.681 0-1.213.2-1.596.602-.382.392-.574.961-.574 1.708V19h-1.75v-7.476h1.666v1.092zm7.437 6.482c-.756 0-1.438-.163-2.044-.49a3.632 3.632 0 01-1.428-1.358c-.336-.588-.504-1.25-.504-1.988 0-.737.168-1.395.504-1.974a3.632 3.632 0 011.428-1.358c.606-.327 1.288-.49 2.044-.49.765 0 1.451.163 2.058.49.606.327 1.078.78 1.414 1.358.345.579.518 1.237.518 1.974 0 .737-.173 1.4-.518 1.988a3.543 3.543 0 01-1.414 1.358c-.607.327-1.293.49-2.058.49zm0-1.498c.644 0 1.176-.215 1.596-.644.42-.43.63-.994.63-1.694s-.21-1.265-.63-1.694c-.42-.43-.952-.644-1.596-.644-.644 0-1.176.215-1.596.644-.411.43-.616.994-.616 1.694s.205 1.265.616 1.694c.42.43.952.644 1.596.644zm8.701-7.672c-.737 0-1.106.401-1.106 1.204v.448h2.058v1.4h-2.002V19h-1.75v-6.02h-1.232v-1.4h1.232v-.476c0-.803.233-1.433.7-1.89.467-.467 1.125-.7 1.974-.7.672 0 1.199.135 1.582.406l-.49 1.316a1.674 1.674 0 00-.966-.308zm9.049 5.376c0 .121-.01.294-.028.518h-5.866c.102.55.368.99.798 1.316.438.317.98.476 1.624.476.821 0 1.498-.27 2.03-.812l.938 1.078a3.163 3.163 0 01-1.274.91c-.514.205-1.092.308-1.736.308-.822 0-1.545-.163-2.17-.49a3.585 3.585 0 01-1.456-1.358c-.336-.588-.504-1.25-.504-1.988 0-.728.163-1.381.49-1.96a3.56 3.56 0 011.386-1.372c.588-.327 1.25-.49 1.988-.49.728 0 1.376.163 1.946.49.578.317 1.026.77 1.344 1.358.326.579.49 1.25.49 2.016zm-3.78-2.464c-.56 0-1.036.168-1.428.504-.383.327-.616.765-.7 1.316h4.242c-.075-.541-.304-.98-.686-1.316-.383-.336-.859-.504-1.428-.504zm7.771 6.258c-.607 0-1.2-.08-1.778-.238-.579-.159-1.041-.36-1.386-.602l.672-1.33c.336.224.737.406 1.204.546.476.13.942.196 1.4.196 1.045 0 1.568-.275 1.568-.826 0-.261-.136-.443-.406-.546-.262-.103-.686-.2-1.274-.294-.616-.093-1.12-.2-1.512-.322a2.39 2.39 0 01-1.008-.63c-.28-.308-.42-.733-.42-1.274 0-.71.294-1.274.882-1.694.597-.43 1.4-.644 2.408-.644.513 0 1.026.06 1.54.182.513.112.933.266 1.26.462l-.672 1.33c-.635-.373-1.349-.56-2.142-.56-.514 0-.906.08-1.176.238-.262.15-.392.35-.392.602 0 .28.14.48.42.602.289.112.732.22 1.33.322.597.093 1.087.2 1.47.322.382.121.709.327.98.616.28.29.42.7.42 1.232 0 .7-.304 1.26-.91 1.68-.607.42-1.433.63-2.478.63zm7.205 0c-.607 0-1.2-.08-1.778-.238-.579-.159-1.041-.36-1.386-.602l.672-1.33c.336.224.737.406 1.204.546.476.13.942.196 1.4.196 1.045 0 1.568-.275 1.568-.826 0-.261-.136-.443-.406-.546-.262-.103-.686-.2-1.274-.294-.616-.093-1.12-.2-1.512-.322a2.39 2.39 0 01-1.008-.63c-.28-.308-.42-.733-.42-1.274 0-.71.294-1.274.882-1.694.597-.43 1.4-.644 2.408-.644.513 0 1.026.06 1.54.182.513.112.933.266 1.26.462l-.672 1.33c-.635-.373-1.349-.56-2.142-.56-.514 0-.906.08-1.176.238-.262.15-.392.35-.392.602 0 .28.14.48.42.602.289.112.732.22 1.33.322.597.093 1.087.2 1.47.322.382.121.709.327.98.616.28.29.42.7.42 1.232 0 .7-.304 1.26-.91 1.68-.607.42-1.433.63-2.478.63zm4.895-7.574h1.75V19h-1.75v-7.476zm.882-1.232c-.318 0-.584-.098-.798-.294a1.004 1.004 0 01-.322-.756.96.96 0 01.322-.742c.214-.205.48-.308.798-.308.317 0 .583.098.798.294a.906.906 0 01.322.714c0 .308-.108.57-.322.784-.206.205-.472.308-.798.308zm6.525 8.806c-.756 0-1.438-.163-2.044-.49a3.632 3.632 0 01-1.428-1.358c-.336-.588-.504-1.25-.504-1.988 0-.737.168-1.395.504-1.974a3.632 3.632 0 011.428-1.358c.606-.327 1.288-.49 2.044-.49.765 0 1.451.163 2.058.49.606.327 1.078.78 1.414 1.358.345.579.518 1.237.518 1.974 0 .737-.173 1.4-.518 1.988a3.543 3.543 0 01-1.414 1.358c-.607.327-1.293.49-2.058.49zm0-1.498c.644 0 1.176-.215 1.596-.644.42-.43.63-.994.63-1.694s-.21-1.265-.63-1.694c-.42-.43-.952-.644-1.596-.644-.644 0-1.176.215-1.596.644-.411.43-.616.994-.616 1.694s.205 1.265.616 1.694c.42.43.952.644 1.596.644zm9.905-6.16c.943 0 1.699.275 2.268.826.569.55.854 1.367.854 2.45V19h-1.75v-4.06c0-.653-.154-1.143-.462-1.47-.308-.336-.747-.504-1.316-.504-.644 0-1.153.196-1.526.588-.373.383-.56.938-.56 1.666V19h-1.75v-7.476h1.666v.966a2.731 2.731 0 011.092-.784 3.93 3.93 0 011.484-.266zm8.198 0c1.101 0 1.941.266 2.52.798.588.523.882 1.316.882 2.38V19h-1.652v-.91a2.077 2.077 0 01-.924.756c-.392.168-.868.252-1.428.252-.56 0-1.05-.093-1.47-.28a2.39 2.39 0 01-.98-.798 2.09 2.09 0 01-.336-1.162c0-.672.247-1.209.742-1.61.504-.41 1.293-.616 2.366-.616h1.932v-.112c0-.523-.159-.924-.476-1.204-.308-.28-.77-.42-1.386-.42-.42 0-.835.065-1.246.196-.401.13-.742.313-1.022.546l-.686-1.274a4.245 4.245 0 011.414-.686 6.292 6.292 0 011.75-.238zm-.238 6.384c.439 0 .826-.098 1.162-.294.345-.205.588-.495.728-.868v-.868h-1.806c-1.008 0-1.512.331-1.512.994 0 .317.126.57.378.756.252.187.602.28 1.05.28zm5.886-9.212h1.75V19h-1.75V8.612z" fill="#575757"/></svg>