<svg width="74" height="16" viewBox="0 0 74 16" fill="none" xmlns="http://www.w3.org/2000/svg"><path d="M1.222 3.9h1.69v7.67H7.67V13H1.222V3.9zm10.342 2.08c1.022 0 1.802.247 2.34.741.546.485.819 1.222.819 2.21V13h-1.534v-.845c-.2.303-.486.537-.858.702-.364.156-.806.234-1.326.234s-.975-.087-1.365-.26a2.22 2.22 0 01-.91-.741 1.94 1.94 0 01-.312-1.079c0-.624.23-1.122.689-1.495.468-.381 1.2-.572 2.197-.572h1.794V8.84c0-.485-.148-.858-.442-1.118-.286-.26-.715-.39-1.287-.39-.39 0-.776.06-1.157.182-.373.121-.69.29-.95.507l-.636-1.183c.364-.277.801-.49 1.313-.637a5.842 5.842 0 011.625-.221zm-.221 5.928c.407 0 .767-.091 1.079-.273.32-.19.546-.46.676-.806v-.806H11.42c-.936 0-1.404.308-1.404.923 0 .295.117.529.35.702.235.173.56.26.976.26zm7.61 1.183a6.217 6.217 0 01-1.65-.221c-.538-.147-.967-.334-1.288-.559l.624-1.235a4.16 4.16 0 001.118.507c.442.121.875.182 1.3.182.97 0 1.456-.256 1.456-.767 0-.243-.126-.412-.377-.507-.242-.095-.637-.186-1.183-.273a9.896 9.896 0 01-1.404-.299 2.224 2.224 0 01-.936-.585c-.26-.286-.39-.68-.39-1.183 0-.659.273-1.183.82-1.573.554-.399 1.3-.598 2.235-.598.477 0 .954.056 1.43.169.477.104.867.247 1.17.429l-.624 1.235c-.59-.347-1.252-.52-1.989-.52-.477 0-.84.074-1.092.221-.242.139-.364.325-.364.559 0 .26.13.446.39.559.269.104.68.204 1.235.299.555.087 1.01.186 1.365.299.355.113.659.303.91.572.26.269.39.65.39 1.144 0 .65-.282 1.17-.845 1.56-.563.39-1.33.585-2.3.585zm8.719-.468c-.191.156-.425.273-.702.351a3.063 3.063 0 01-.858.117c-.763 0-1.352-.2-1.768-.598-.416-.399-.624-.98-.624-1.742V7.41h-1.144v-1.3h1.144V4.524h1.625V6.11h1.859v1.3h-1.86v3.302c0 .338.083.598.248.78.164.173.403.26.715.26.364 0 .667-.095.91-.286l.455 1.157zm11.3-8.723v1.131L35.434 13h-1.807l3.42-7.67h-3.576v1.547H31.9V3.9h7.072zm11.93-.546V13h-1.56v-.897c-.269.33-.602.576-1 .741a3.31 3.31 0 01-1.3.247c-.668 0-1.27-.147-1.808-.442a3.2 3.2 0 01-1.248-1.248c-.303-.546-.455-1.17-.455-1.872 0-.702.152-1.322.455-1.859a3.2 3.2 0 011.248-1.248 3.695 3.695 0 011.807-.442c.46 0 .88.078 1.261.234.381.156.706.39.975.702V3.354h1.625zM47.236 11.7c.39 0 .741-.087 1.053-.26.312-.182.56-.438.741-.767.182-.33.273-.71.273-1.144 0-.433-.09-.815-.273-1.144a1.881 1.881 0 00-.74-.754 2.05 2.05 0 00-1.054-.273c-.39 0-.74.091-1.053.273a1.881 1.881 0 00-.74.754c-.183.33-.274.71-.274 1.144 0 .433.091.815.273 1.144.182.33.43.585.741.767.312.173.663.26 1.053.26zm8.444-5.72c1.023 0 1.803.247 2.34.741.546.485.819 1.222.819 2.21V13h-1.534v-.845c-.2.303-.485.537-.858.702-.364.156-.806.234-1.326.234s-.975-.087-1.365-.26a2.22 2.22 0 01-.91-.741 1.94 1.94 0 01-.312-1.079c0-.624.23-1.122.689-1.495.468-.381 1.2-.572 2.197-.572h1.794V8.84c0-.485-.147-.858-.442-1.118-.286-.26-.715-.39-1.287-.39-.39 0-.776.06-1.157.182-.373.121-.69.29-.95.507l-.636-1.183c.364-.277.802-.49 1.313-.637a5.842 5.842 0 011.625-.221zm-.221 5.928c.407 0 .767-.091 1.079-.273.32-.19.546-.46.676-.806v-.806h-1.677c-.936 0-1.404.308-1.404.923 0 .295.117.529.35.702.235.173.56.26.976.26zm11.838-5.85l-3.25 7.501c-.303.754-.671 1.283-1.105 1.586-.433.312-.957.468-1.573.468-.346 0-.689-.056-1.027-.169a2.27 2.27 0 01-.832-.468l.65-1.196c.156.147.338.264.546.351.217.087.434.13.65.13.286 0 .52-.074.702-.221.191-.147.364-.394.52-.741l.117-.273-3.029-6.968h1.69l2.184 5.135 2.197-5.135h1.56zm3.072 7.033a6.217 6.217 0 01-1.65-.221c-.538-.147-.967-.334-1.288-.559l.624-1.235a4.16 4.16 0 001.118.507c.442.121.876.182 1.3.182.97 0 1.456-.256 1.456-.767 0-.243-.126-.412-.377-.507-.243-.095-.637-.186-1.183-.273a9.896 9.896 0 01-1.404-.299 2.224 2.224 0 01-.936-.585c-.26-.286-.39-.68-.39-1.183 0-.659.273-1.183.82-1.573.554-.399 1.3-.598 2.235-.598.477 0 .953.056 1.43.169.477.104.867.247 1.17.429l-.624 1.235c-.59-.347-1.252-.52-1.989-.52-.477 0-.84.074-1.092.221-.242.139-.364.325-.364.559 0 .26.13.446.39.559.269.104.68.204 1.235.299.555.087 1.01.186 1.365.299.355.113.659.303.91.572.26.269.39.65.39 1.144 0 .65-.281 1.17-.845 1.56-.563.39-1.33.585-2.3.585z" fill="#575757"/></svg>