<svg width="42" height="16" viewBox="0 0 42 16" fill="none" xmlns="http://www.w3.org/2000/svg"><path d="M1.222 3.9h1.69v7.67H7.67V13H1.222V3.9zm10.342 2.08c1.022 0 1.802.247 2.34.741.546.485.819 1.222.819 2.21V13h-1.534v-.845c-.2.303-.486.537-.858.702-.364.156-.806.234-1.326.234s-.975-.087-1.365-.26a2.22 2.22 0 01-.91-.741 1.94 1.94 0 01-.312-1.079c0-.624.23-1.122.689-1.495.468-.381 1.2-.572 2.197-.572h1.794V8.84c0-.485-.148-.858-.442-1.118-.286-.26-.715-.39-1.287-.39-.39 0-.776.06-1.157.182-.373.121-.69.29-.95.507l-.636-1.183c.364-.277.801-.49 1.313-.637a5.842 5.842 0 011.625-.221zm-.221 5.928c.407 0 .767-.091 1.079-.273.32-.19.546-.46.676-.806v-.806H11.42c-.936 0-1.404.308-1.404.923 0 .295.117.529.35.702.235.173.56.26.976.26zm9.638.715a1.91 1.91 0 01-.702.351 3.064 3.064 0 01-.858.117c-.762 0-1.352-.2-1.768-.598-.416-.399-.624-.98-.624-1.742V7.41h-1.144v-1.3h1.144V4.524h1.625V6.11h1.86v1.3h-1.86v3.302c0 .338.082.598.247.78.165.173.403.26.715.26.364 0 .668-.095.91-.286l.455 1.157zm7.634-3.055c0 .113-.008.273-.026.481h-5.447c.096.511.343.919.741 1.222.408.295.91.442 1.508.442.763 0 1.391-.251 1.885-.754l.871 1.001a2.934 2.934 0 01-1.183.845 4.308 4.308 0 01-1.612.286c-.762 0-1.434-.152-2.015-.455a3.335 3.335 0 01-1.352-1.261c-.312-.546-.468-1.161-.468-1.846 0-.676.152-1.283.455-1.82.312-.546.741-.97 1.287-1.274.546-.303 1.162-.455 1.846-.455.676 0 1.279.152 1.807.455.538.295.954.715 1.248 1.261.304.537.455 1.161.455 1.872zm-3.51-2.288c-.52 0-.962.156-1.326.468-.355.303-.572.71-.65 1.222h3.94c-.07-.503-.282-.91-.638-1.222-.355-.312-.797-.468-1.326-.468zm7.216 5.811a6.216 6.216 0 01-1.65-.221c-.538-.147-.967-.334-1.288-.559l.624-1.235c.312.208.685.377 1.118.507.442.121.876.182 1.3.182.971 0 1.456-.256 1.456-.767 0-.243-.125-.412-.377-.507-.242-.095-.637-.186-1.183-.273a9.896 9.896 0 01-1.404-.299 2.222 2.222 0 01-.936-.585c-.26-.286-.39-.68-.39-1.183 0-.659.273-1.183.82-1.573.554-.399 1.3-.598 2.235-.598.477 0 .954.056 1.43.169.477.104.867.247 1.17.429l-.624 1.235c-.589-.347-1.252-.52-1.989-.52-.476 0-.84.074-1.092.221-.242.139-.364.325-.364.559 0 .26.13.446.39.559.269.104.68.204 1.235.299.555.087 1.01.186 1.365.299.356.113.659.303.91.572.26.269.39.65.39 1.144 0 .65-.281 1.17-.845 1.56-.563.39-1.33.585-2.3.585zm8.719-.468a1.91 1.91 0 01-.702.351 3.064 3.064 0 01-.858.117c-.763 0-1.352-.2-1.768-.598-.416-.399-.624-.98-.624-1.742V7.41h-1.144v-1.3h1.144V4.524h1.625V6.11h1.859v1.3h-1.86v3.302c0 .338.083.598.248.78.164.173.403.26.715.26.364 0 .667-.095.91-.286l.455 1.157z" fill="#575757"/></svg>