<svg width="24" height="16" viewBox="0 0 24 16" fill="none" xmlns="http://www.w3.org/2000/svg"><path d="M1.222 3.9h1.69v7.67H7.67V13H1.222V3.9zm7.626 2.158h1.625V13H8.848V6.058zm.82-1.144c-.295 0-.542-.091-.742-.273a.934.934 0 01-.299-.702c0-.277.1-.507.3-.689.199-.19.446-.286.74-.286.295 0 .542.091.741.273a.84.84 0 01.3.663.99.99 0 01-.3.728c-.19.19-.437.286-.74.286zm5.083 8.177a6.217 6.217 0 01-1.651-.221c-.537-.147-.966-.334-1.287-.559l.624-1.235a4.16 4.16 0 001.118.507 4.9 4.9 0 001.3.182c.97 0 1.456-.256 1.456-.767 0-.243-.126-.412-.377-.507-.243-.095-.637-.186-1.183-.273a9.896 9.896 0 01-1.404-.299 2.224 2.224 0 01-.936-.585c-.26-.286-.39-.68-.39-1.183 0-.659.273-1.183.819-1.573.555-.399 1.3-.598 2.236-.598.477 0 .953.056 1.43.169.477.104.867.247 1.17.429l-.624 1.235c-.59-.347-1.252-.52-1.989-.52-.477 0-.84.074-1.092.221-.243.139-.364.325-.364.559 0 .26.13.446.39.559.269.104.68.204 1.235.299.555.087 1.01.186 1.365.299.355.113.659.303.91.572.26.269.39.65.39 1.144 0 .65-.282 1.17-.845 1.56-.563.39-1.33.585-2.301.585zm8.719-.468a1.91 1.91 0 01-.703.351 3.064 3.064 0 01-.857.117c-.763 0-1.352-.2-1.768-.598-.416-.399-.625-.98-.625-1.742V7.41h-1.143v-1.3h1.143V4.524h1.625V6.11h1.86v1.3h-1.86v3.302c0 .338.083.598.248.78.164.173.402.26.715.26.363 0 .667-.095.91-.286l.454 1.157z" fill="#AFAFAF"/></svg>