<svg width="94" height="20" viewBox="0 0 94 20" fill="none" xmlns="http://www.w3.org/2000/svg"><path d="M11.792 16l-.016-7.424-3.68 6.144h-.928l-3.68-6.048V16H1.504V4.8h1.712l4.448 7.424L12.032 4.8h1.712L13.76 16h-1.968zm12.801-8.544l-4 9.232c-.373.928-.826 1.579-1.36 1.952-.533.384-1.178.576-1.936.576-.426 0-.848-.07-1.264-.208a2.795 2.795 0 01-1.024-.576l.8-1.472c.192.181.416.325.672.432.267.107.534.16.8.16.352 0 .64-.09.864-.272.235-.181.448-.485.64-.912l.144-.336-3.728-8.576h2.08l2.688 6.32 2.704-6.32h1.92zM37.785 16l-2.288-3.28c-.096.01-.24.016-.432.016h-2.528V16h-2.08V4.8h4.608c.97 0 1.814.16 2.528.48.725.32 1.28.779 1.664 1.376.384.597.576 1.307.576 2.128 0 .843-.208 1.568-.624 2.176-.405.608-.992 1.061-1.76 1.36L40.025 16h-2.24zm-.048-7.216c0-.715-.235-1.264-.704-1.648-.47-.384-1.157-.576-2.064-.576h-2.432v4.464h2.432c.907 0 1.595-.192 2.064-.576.47-.395.704-.95.704-1.664zM50 11.776c0 .139-.01.336-.032.592h-6.704c.118.63.422 1.13.912 1.504.502.363 1.12.544 1.856.544.939 0 1.712-.31 2.32-.928l1.072 1.232c-.384.459-.87.805-1.456 1.04s-1.248.352-1.984.352c-.938 0-1.765-.187-2.48-.56A4.103 4.103 0 0141.84 14c-.384-.672-.576-1.43-.576-2.272 0-.832.187-1.579.56-2.24a4.07 4.07 0 011.584-1.568c.672-.373 1.43-.56 2.272-.56.832 0 1.574.187 2.224.56.662.363 1.174.88 1.536 1.552.374.661.56 1.43.56 2.304zM45.68 8.96c-.64 0-1.184.192-1.632.576-.437.373-.704.875-.8 1.504h4.848c-.085-.619-.346-1.12-.784-1.504-.437-.384-.981-.576-1.632-.576zm10.977-1.6c.832 0 1.574.181 2.224.544a3.91 3.91 0 011.552 1.536c.374.661.56 1.424.56 2.288 0 .864-.186 1.632-.56 2.304a3.91 3.91 0 01-1.552 1.536c-.65.363-1.392.544-2.224.544-1.152 0-2.064-.384-2.736-1.152v4.144h-2V7.456h1.904v1.12c.331-.405.736-.71 1.216-.912a4.192 4.192 0 011.616-.304zm-.224 7.04c.736 0 1.339-.245 1.808-.736.48-.49.72-1.136.72-1.936s-.24-1.445-.72-1.936c-.469-.49-1.072-.736-1.808-.736-.48 0-.912.112-1.296.336a2.315 2.315 0 00-.912.928c-.224.405-.336.875-.336 1.408 0 .533.112 1.003.336 1.408.224.405.528.72.912.944.384.213.816.32 1.296.32zm10.297 1.712c-.864 0-1.642-.187-2.336-.56A4.157 4.157 0 0162.762 14c-.384-.672-.576-1.43-.576-2.272 0-.843.192-1.595.576-2.256a4.157 4.157 0 011.632-1.552c.694-.373 1.472-.56 2.336-.56.875 0 1.659.187 2.352.56.694.373 1.232.89 1.616 1.552.395.661.592 1.413.592 2.256 0 .843-.197 1.6-.592 2.272a4.044 4.044 0 01-1.616 1.552c-.693.373-1.477.56-2.352.56zm0-1.712c.736 0 1.344-.245 1.824-.736.48-.49.72-1.136.72-1.936s-.24-1.445-.72-1.936c-.48-.49-1.088-.736-1.824-.736s-1.344.245-1.824.736c-.47.49-.704 1.136-.704 1.936s.235 1.445.704 1.936c.48.49 1.088.736 1.824.736zm8.377-5.696c.576-.896 1.589-1.344 3.04-1.344v1.904a2.538 2.538 0 00-.464-.048c-.779 0-1.387.23-1.824.688-.438.448-.656 1.099-.656 1.952V16h-2V7.456h1.904v1.248zm10.185 6.832a2.35 2.35 0 01-.864.432 3.77 3.77 0 01-1.056.144c-.939 0-1.664-.245-2.176-.736-.512-.49-.768-1.205-.768-2.144V9.12H79.02v-1.6h1.408V5.568h2V7.52h2.288v1.6h-2.288v4.064c0 .416.101.736.304.96.202.213.496.32.88.32.448 0 .821-.117 1.12-.352l.56 1.424zm4.285.576a7.65 7.65 0 01-2.032-.272c-.661-.181-1.19-.41-1.584-.688l.768-1.52a5.12 5.12 0 001.376.624 6.03 6.03 0 001.6.224c1.195 0 1.792-.315 1.792-.944 0-.299-.155-.507-.464-.624-.299-.117-.784-.23-1.456-.336-.704-.107-1.28-.23-1.728-.368a2.737 2.737 0 01-1.152-.72c-.32-.352-.48-.837-.48-1.456 0-.81.336-1.456 1.008-1.936.683-.49 1.6-.736 2.752-.736.587 0 1.173.07 1.76.208.587.128 1.067.304 1.44.528l-.768 1.52c-.725-.427-1.541-.64-2.448-.64-.587 0-1.035.09-1.344.272-.299.17-.448.4-.448.688 0 .32.16.55.48.688.33.128.837.25 1.52.368.683.107 1.243.23 1.68.368.437.139.81.373 1.12.704.32.33.48.8.48 1.408 0 .8-.347 1.44-1.04 1.92-.693.48-1.637.72-2.832.72z" fill="#575757"/></svg>