<svg width="16" height="16" viewBox="0 0 16 16" fill="none" xmlns="http://www.w3.org/2000/svg"><path fill-rule="evenodd" clip-rule="evenodd" d="M14.683 1.303C12.738-.638 9.978-.393 7.651 1.93L4.792 4.792 1.93 7.654c-2.324 2.325-2.57 5.083-.625 7.029.874.872 1.912 1.303 3.001 1.303 1.336 0 2.75-.65 4.031-1.929l2.859-2.858 2.863-2.863c2.321-2.326 2.567-5.086.624-7.033zM7.395 13.114c-.677.676-3.05 2.719-5.147.626-2.096-2.097-.052-4.467.625-5.143l2.391-2.391 4.52 4.52-2.39 2.388zm3.331-3.331l2.39-2.39c.675-.676 2.718-3.049.624-5.147-2.097-2.092-4.469-.05-5.146.626l-2.388 2.39 4.52 4.52z" fill="#575757"/><path d="M10.756 2.674a.667.667 0 00-.943 0l-2.05 2.05a.667.667 0 10.942.943l2.051-2.05a.667.667 0 000-.943z" fill="#575757"/></svg>