<svg width="28" height="16" viewBox="0 0 28 16" fill="none" xmlns="http://www.w3.org/2000/svg"><path d="M7.176 13l-1.859-2.665a3.456 3.456 0 01-.351.013H2.912V13h-1.69V3.9h3.744c.789 0 1.473.13 2.054.39.59.26 1.04.633 1.352 1.118.312.485.468 1.062.468 1.729 0 .685-.169 1.274-.507 1.768-.33.494-.806.862-1.43 1.105L8.996 13h-1.82zm-.039-5.863c0-.58-.19-1.027-.572-1.339-.381-.312-.94-.468-1.677-.468H2.912v3.627h1.976c.737 0 1.296-.156 1.677-.468.381-.32.572-.771.572-1.352zm10.484-1.079V13h-1.547v-.884c-.26.312-.585.555-.975.728-.39.165-.81.247-1.261.247-.927 0-1.66-.256-2.197-.767-.529-.52-.793-1.287-.793-2.301V6.058h1.625v3.744c0 .624.138 1.092.416 1.404.286.303.689.455 1.209.455.58 0 1.04-.178 1.378-.533.346-.364.52-.884.52-1.56v-3.51h1.625zm6.391-.078c.876 0 1.578.256 2.106.767.53.511.793 1.27.793 2.275V13h-1.625V9.23c0-.607-.143-1.062-.429-1.365-.286-.312-.693-.468-1.222-.468-.598 0-1.07.182-1.417.546-.346.355-.52.871-.52 1.547V13h-1.625V6.058h1.547v.897a2.54 2.54 0 011.014-.728 3.65 3.65 0 011.378-.247z" fill="#474747"/></svg>