<svg width="314" height="26" viewBox="0 0 314 26" fill="none" xmlns="http://www.w3.org/2000/svg"><path d="M3.732 10.12a6.468 6.468 0 01-1.884-.276C1.248 9.66.772 9.416.42 9.112L.96 7.9a4.37 4.37 0 001.26.672 4.757 4.757 0 001.512.252c.624 0 1.088-.1 1.392-.3.312-.2.468-.464.468-.792a.741.741 0 00-.264-.588 1.705 1.705 0 00-.648-.372 14.58 14.58 0 00-1.08-.3c-.64-.152-1.16-.304-1.56-.456a2.641 2.641 0 01-1.02-.708C.74 4.98.6 4.54.6 3.988c0-.464.124-.884.372-1.26.256-.384.636-.688 1.14-.912.512-.224 1.136-.336 1.872-.336.512 0 1.016.064 1.512.192a4.18 4.18 0 011.284.552l-.492 1.212a4.854 4.854 0 00-1.152-.492 4.31 4.31 0 00-1.164-.168c-.616 0-1.076.104-1.38.312-.296.208-.444.484-.444.828 0 .24.084.436.252.588.176.152.396.272.66.36.264.088.624.188 1.08.3a10.73 10.73 0 011.536.456c.4.152.74.388 1.02.708.288.32.432.752.432 1.296 0 .464-.128.884-.384 1.26-.248.376-.628.676-1.14.9-.512.224-1.136.336-1.872.336zm10.823-3.288c0 .104-.008.252-.024.444H9.503c.088.472.316.848.684 1.128.376.272.84.408 1.392.408.704 0 1.284-.232 1.74-.696l.804.924a2.709 2.709 0 01-1.092.78c-.44.176-.936.264-1.488.264-.704 0-1.324-.14-1.86-.42A3.078 3.078 0 018.435 8.5a3.373 3.373 0 01-.432-1.704c0-.624.14-1.184.42-1.68A3.052 3.052 0 019.61 3.94a3.449 3.449 0 011.704-.42c.624 0 1.18.14 1.668.42.496.272.88.66 1.152 1.164.28.496.42 1.072.42 1.728zm-3.24-2.112c-.48 0-.888.144-1.224.432-.328.28-.528.656-.6 1.128h3.636a1.768 1.768 0 00-.588-1.128c-.328-.288-.736-.432-1.224-.432zm6.953-1.2c.944 0 1.664.228 2.16.684.504.448.756 1.128.756 2.04V10h-1.416v-.78c-.184.28-.448.496-.792.648-.336.144-.744.216-1.224.216s-.9-.08-1.26-.24a2.05 2.05 0 01-.84-.684 1.79 1.79 0 01-.288-.996c0-.576.212-1.036.636-1.38.432-.352 1.108-.528 2.028-.528h1.656V6.16c0-.448-.136-.792-.408-1.032-.264-.24-.66-.36-1.188-.36-.36 0-.716.056-1.068.168a2.617 2.617 0 00-.876.468l-.588-1.092c.336-.256.74-.452 1.212-.588a5.393 5.393 0 011.5-.204zm-.204 5.472c.376 0 .708-.084.996-.252.296-.176.504-.424.624-.744v-.744h-1.548c-.864 0-1.296.284-1.296.852 0 .272.108.488.324.648.216.16.516.24.9.24zm6.473-4.464c.432-.672 1.192-1.008 2.28-1.008v1.428a1.904 1.904 0 00-.348-.036c-.584 0-1.04.172-1.368.516-.328.336-.492.824-.492 1.464V10h-1.5V3.592h1.428v.936zm6.434 5.556c-.664 0-1.26-.14-1.788-.42A3.097 3.097 0 0127.947 8.5a3.301 3.301 0 01-.444-1.704c0-.632.148-1.196.444-1.692A3.117 3.117 0 0129.17 3.94c.528-.28 1.128-.42 1.8-.42.632 0 1.184.128 1.656.384.48.256.84.624 1.08 1.104l-1.152.672a1.77 1.77 0 00-.696-.66 1.813 1.813 0 00-.9-.228c-.56 0-1.024.184-1.392.552-.368.36-.552.844-.552 1.452s.18 1.096.54 1.464c.368.36.836.54 1.404.54.328 0 .628-.072.9-.216.28-.152.512-.376.696-.672l1.152.672c-.248.48-.612.852-1.092 1.116-.472.256-1.02.384-1.644.384zm7.61-6.564c.808 0 1.456.236 1.944.708s.732 1.172.732 2.1V10h-1.5V6.52c0-.56-.132-.98-.396-1.26-.264-.288-.64-.432-1.128-.432-.552 0-.988.168-1.308.504-.32.328-.48.804-.48 1.428V10h-1.5V1.096h1.5v3.24c.248-.264.552-.464.912-.6a3.333 3.333 0 011.224-.216zm8.04-1.92h3.671c.896 0 1.692.176 2.388.528a3.813 3.813 0 011.62 1.476c.384.632.576 1.364.576 2.196 0 .832-.192 1.568-.576 2.208a3.916 3.916 0 01-1.62 1.476c-.696.344-1.492.516-2.388.516H46.62V1.6zm3.6 7.08c.615 0 1.155-.116 1.62-.348.471-.24.831-.576 1.08-1.008.255-.44.383-.948.383-1.524 0-.576-.128-1.08-.384-1.512a2.443 2.443 0 00-1.08-1.008c-.464-.24-1.004-.36-1.62-.36h-2.04v5.76h2.04zm9.05 1.404c-.649 0-1.233-.14-1.753-.42A3.117 3.117 0 0156.294 8.5a3.373 3.373 0 01-.432-1.704c0-.632.144-1.196.432-1.692a3.117 3.117 0 011.224-1.164c.52-.28 1.104-.42 1.752-.42.656 0 1.244.14 1.764.42.52.28.924.668 1.212 1.164.296.496.444 1.06.444 1.692 0 .632-.148 1.2-.444 1.704a3.033 3.033 0 01-1.212 1.164c-.52.28-1.108.42-1.764.42zm0-1.284c.551 0 1.007-.184 1.367-.552.36-.368.54-.852.54-1.452s-.18-1.084-.54-1.452c-.36-.368-.816-.552-1.368-.552-.552 0-1.008.184-1.368.552-.352.368-.528.852-.528 1.452s.176 1.084.528 1.452c.36.368.816.552 1.368.552zm7.794 1.284c-.664 0-1.26-.14-1.788-.42A3.097 3.097 0 0164.04 8.5a3.301 3.301 0 01-.444-1.704c0-.632.148-1.196.444-1.692a3.117 3.117 0 011.224-1.164c.528-.28 1.128-.42 1.8-.42.632 0 1.184.128 1.656.384.48.256.84.624 1.08 1.104l-1.152.672a1.77 1.77 0 00-.696-.66 1.813 1.813 0 00-.9-.228c-.56 0-1.024.184-1.392.552-.368.36-.552.844-.552 1.452s.18 1.096.54 1.464c.368.36.836.54 1.404.54.328 0 .628-.072.9-.216.28-.152.512-.376.696-.672l1.152.672c-.248.48-.612.852-1.092 1.116-.472.256-1.02.384-1.644.384zm7.966-.432a1.762 1.762 0 01-.648.324 2.828 2.828 0 01-.792.108c-.704 0-1.248-.184-1.632-.552-.384-.368-.576-.904-.576-1.608V4.84h-1.056v-1.2h1.056V2.176h1.5V3.64H74.6v1.2h-1.716v3.048c0 .312.076.552.228.72.152.16.372.24.66.24.336 0 .616-.088.84-.264l.42 1.068zm3.903.432c-.648 0-1.232-.14-1.752-.42A3.117 3.117 0 0175.958 8.5a3.373 3.373 0 01-.432-1.704c0-.632.144-1.196.432-1.692a3.117 3.117 0 011.224-1.164c.52-.28 1.104-.42 1.752-.42.656 0 1.244.14 1.764.42.52.28.924.668 1.212 1.164.296.496.444 1.06.444 1.692 0 .632-.148 1.2-.444 1.704a3.033 3.033 0 01-1.212 1.164c-.52.28-1.108.42-1.764.42zm0-1.284c.552 0 1.008-.184 1.368-.552.36-.368.54-.852.54-1.452s-.18-1.084-.54-1.452c-.36-.368-.816-.552-1.368-.552-.552 0-1.008.184-1.368.552-.352.368-.528.852-.528 1.452s.176 1.084.528 1.452c.36.368.816.552 1.368.552zm6.283-4.272c.432-.672 1.192-1.008 2.28-1.008v1.428a1.904 1.904 0 00-.348-.036c-.584 0-1.04.172-1.368.516-.328.336-.492.824-.492 1.464V10h-1.5V3.592h1.428v.936zm5.556 5.556c-.52 0-1.028-.068-1.524-.204-.496-.136-.892-.308-1.188-.516l.576-1.14a3.84 3.84 0 001.032.468c.408.112.808.168 1.2.168.896 0 1.344-.236 1.344-.708 0-.224-.116-.38-.348-.468-.224-.088-.588-.172-1.092-.252a9.135 9.135 0 01-1.296-.276 2.052 2.052 0 01-.864-.54c-.24-.264-.36-.628-.36-1.092 0-.608.252-1.092.756-1.452.512-.368 1.2-.552 2.064-.552.44 0 .88.052 1.32.156.44.096.8.228 1.08.396l-.576 1.14a3.553 3.553 0 00-1.836-.48c-.44 0-.776.068-1.008.204-.224.128-.336.3-.336.516 0 .24.12.412.36.516.248.096.628.188 1.14.276.512.08.932.172 1.26.276.328.104.608.28.84.528.24.248.36.6.36 1.056 0 .6-.26 1.08-.78 1.44-.52.36-1.228.54-2.124.54zm4.687-1.992c.28 0 .512.092.696.276.184.184.276.424.276.72 0 .128-.02.264-.06.408a4.933 4.933 0 01-.216.624l-.612 1.692h-.972l.48-1.836a.918.918 0 01-.42-.336 1.052 1.052 0 01-.144-.552c0-.296.092-.536.276-.72a.944.944 0 01.696-.276zM109.074 10l-.012-5.568-2.76 4.608h-.696l-2.76-4.536V10h-1.488V1.6h1.284l3.336 5.568 3.276-5.568h1.284l.012 8.4h-1.476zm9.625-3.168c0 .104-.008.252-.024.444h-5.028c.088.472.316.848.684 1.128.376.272.84.408 1.392.408.704 0 1.284-.232 1.74-.696l.804.924a2.709 2.709 0 01-1.092.78c-.44.176-.936.264-1.488.264-.704 0-1.324-.14-1.86-.42a3.078 3.078 0 01-1.248-1.164 3.373 3.373 0 01-.432-1.704c0-.624.14-1.184.42-1.68a3.052 3.052 0 011.188-1.176 3.449 3.449 0 011.704-.42c.624 0 1.18.14 1.668.42.496.272.88.66 1.152 1.164.28.496.42 1.072.42 1.728zm-3.24-2.112c-.48 0-.888.144-1.224.432-.328.28-.528.656-.6 1.128h3.636a1.768 1.768 0 00-.588-1.128c-.328-.288-.736-.432-1.224-.432zm10.957-3.624V10h-1.44v-.828a2.312 2.312 0 01-.924.684c-.36.152-.76.228-1.2.228a3.411 3.411 0 01-1.668-.408 2.954 2.954 0 01-1.152-1.152c-.28-.504-.42-1.08-.42-1.728 0-.648.14-1.22.42-1.716.28-.496.664-.88 1.152-1.152a3.411 3.411 0 011.668-.408c.424 0 .812.072 1.164.216.352.144.652.36.9.648V1.096h1.5zM123.032 8.8c.36 0 .684-.08.972-.24a1.82 1.82 0 00.684-.708c.168-.304.252-.656.252-1.056s-.084-.752-.252-1.056a1.736 1.736 0 00-.684-.696 1.893 1.893 0 00-.972-.252c-.36 0-.684.084-.972.252-.288.16-.516.392-.684.696a2.148 2.148 0 00-.252 1.056c0 .4.084.752.252 1.056.168.304.396.54.684.708.288.16.612.24.972.24zm5.347-5.208h1.5V10h-1.5V3.592zm.756-1.056a.977.977 0 01-.684-.252.862.862 0 01-.276-.648c0-.256.092-.468.276-.636a.951.951 0 01.684-.264c.272 0 .5.084.684.252.184.16.276.364.276.612a.925.925 0 01-.96.936zm5.652 7.548c-.664 0-1.26-.14-1.788-.42a3.097 3.097 0 01-1.236-1.164 3.301 3.301 0 01-.444-1.704c0-.632.148-1.196.444-1.692a3.117 3.117 0 011.224-1.164c.528-.28 1.128-.42 1.8-.42.632 0 1.184.128 1.656.384.48.256.84.624 1.08 1.104l-1.152.672a1.77 1.77 0 00-.696-.66 1.813 1.813 0 00-.9-.228c-.56 0-1.024.184-1.392.552-.368.36-.552.844-.552 1.452s.18 1.096.54 1.464c.368.36.836.54 1.404.54.328 0 .628-.072.9-.216.28-.152.512-.376.696-.672l1.152.672c-.248.48-.612.852-1.092 1.116-.472.256-1.02.384-1.644.384zm6.481-6.564c.944 0 1.664.228 2.16.684.504.448.756 1.128.756 2.04V10h-1.416v-.78c-.184.28-.448.496-.792.648-.336.144-.744.216-1.224.216s-.9-.08-1.26-.24a2.05 2.05 0 01-.84-.684 1.79 1.79 0 01-.288-.996c0-.576.212-1.036.636-1.38.432-.352 1.108-.528 2.028-.528h1.656V6.16c0-.448-.136-.792-.408-1.032-.264-.24-.66-.36-1.188-.36-.36 0-.716.056-1.068.168a2.617 2.617 0 00-.876.468l-.588-1.092c.336-.256.74-.452 1.212-.588a5.393 5.393 0 011.5-.204zm-.204 5.472c.376 0 .708-.084.996-.252.296-.176.504-.424.624-.744v-.744h-1.548c-.864 0-1.296.284-1.296.852 0 .272.108.488.324.648.216.16.516.24.9.24zm8.897.66a1.762 1.762 0 01-.648.324 2.828 2.828 0 01-.792.108c-.704 0-1.248-.184-1.632-.552-.384-.368-.576-.904-.576-1.608V4.84h-1.056v-1.2h1.056V2.176h1.5V3.64h1.716v1.2h-1.716v3.048c0 .312.076.552.228.72.152.16.372.24.66.24.336 0 .616-.088.84-.264l.42 1.068zm1.234-6.06h1.5V10h-1.5V3.592zm.756-1.056a.977.977 0 01-.684-.252.862.862 0 01-.276-.648c0-.256.092-.468.276-.636a.951.951 0 01.684-.264c.272 0 .5.084.684.252.184.16.276.364.276.612a.925.925 0 01-.96.936zm5.593 7.548c-.648 0-1.232-.14-1.752-.42a3.117 3.117 0 01-1.224-1.164 3.373 3.373 0 01-.432-1.704c0-.632.144-1.196.432-1.692a3.117 3.117 0 011.224-1.164c.52-.28 1.104-.42 1.752-.42.656 0 1.244.14 1.764.42.52.28.924.668 1.212 1.164.296.496.444 1.06.444 1.692 0 .632-.148 1.2-.444 1.704a3.033 3.033 0 01-1.212 1.164c-.52.28-1.108.42-1.764.42zm0-1.284c.552 0 1.008-.184 1.368-.552.36-.368.54-.852.54-1.452s-.18-1.084-.54-1.452c-.36-.368-.816-.552-1.368-.552-.552 0-1.008.184-1.368.552-.352.368-.528.852-.528 1.452s.176 1.084.528 1.452c.36.368.816.552 1.368.552zm8.49-5.28c.808 0 1.456.236 1.944.708s.732 1.172.732 2.1V10h-1.5V6.52c0-.56-.132-.98-.396-1.26-.264-.288-.64-.432-1.128-.432-.552 0-.988.168-1.308.504-.32.328-.48.804-.48 1.428V10h-1.5V3.592h1.428v.828c.248-.296.56-.52.936-.672.376-.152.8-.228 1.272-.228zm6.559 6.564c-.52 0-1.028-.068-1.524-.204-.496-.136-.892-.308-1.188-.516l.576-1.14a3.84 3.84 0 001.032.468c.408.112.808.168 1.2.168.896 0 1.344-.236 1.344-.708 0-.224-.116-.38-.348-.468-.224-.088-.588-.172-1.092-.252a9.135 9.135 0 01-1.296-.276 2.052 2.052 0 01-.864-.54c-.24-.264-.36-.628-.36-1.092 0-.608.252-1.092.756-1.452.512-.368 1.2-.552 2.064-.552.44 0 .88.052 1.32.156.44.096.8.228 1.08.396l-.576 1.14a3.553 3.553 0 00-1.836-.48c-.44 0-.776.068-1.008.204-.224.128-.336.3-.336.516 0 .24.12.412.36.516.248.096.628.188 1.14.276.512.08.932.172 1.26.276.328.104.608.28.84.528.24.248.36.6.36 1.056 0 .6-.26 1.08-.78 1.44-.52.36-1.228.54-2.124.54zm4.688-1.992c.28 0 .512.092.696.276.184.184.276.424.276.72 0 .128-.02.264-.06.408a4.933 4.933 0 01-.216.624l-.612 1.692h-.972l.48-1.836a.918.918 0 01-.42-.336 1.052 1.052 0 01-.144-.552c0-.296.092-.536.276-.72a.944.944 0 01.696-.276zm5.898-6.492h3.672c.896 0 1.692.176 2.388.528a3.813 3.813 0 011.62 1.476c.384.632.576 1.364.576 2.196 0 .832-.192 1.568-.576 2.208a3.916 3.916 0 01-1.62 1.476c-.696.344-1.492.516-2.388.516h-3.672V1.6zm3.6 7.08c.616 0 1.156-.116 1.62-.348.472-.24.832-.576 1.08-1.008.256-.44.384-.948.384-1.524 0-.576-.128-1.08-.384-1.512a2.443 2.443 0 00-1.08-1.008c-.464-.24-1.004-.36-1.62-.36h-2.04v5.76h2.04zm6.17-5.088h1.5V10h-1.5V3.592zm.756-1.056a.977.977 0 01-.684-.252.862.862 0 01-.276-.648c0-.256.092-.468.276-.636a.951.951 0 01.684-.264c.272 0 .5.084.684.252.184.16.276.364.276.612a.925.925 0 01-.96.936zm4.693 7.548c-.52 0-1.028-.068-1.524-.204-.496-.136-.892-.308-1.188-.516l.576-1.14a3.84 3.84 0 001.032.468c.408.112.808.168 1.2.168.896 0 1.344-.236 1.344-.708 0-.224-.116-.38-.348-.468-.224-.088-.588-.172-1.092-.252a9.135 9.135 0 01-1.296-.276 2.052 2.052 0 01-.864-.54c-.24-.264-.36-.628-.36-1.092 0-.608.252-1.092.756-1.452.512-.368 1.2-.552 2.064-.552.44 0 .88.052 1.32.156.44.096.8.228 1.08.396l-.576 1.14a3.553 3.553 0 00-1.836-.48c-.44 0-.776.068-1.008.204-.224.128-.336.3-.336.516 0 .24.12.412.36.516.248.096.628.188 1.14.276.512.08.932.172 1.26.276.328.104.608.28.84.528.24.248.36.6.36 1.056 0 .6-.26 1.08-.78 1.44-.52.36-1.228.54-2.124.54zm10.219-3.252c0 .104-.008.252-.024.444h-5.028c.088.472.316.848.684 1.128.376.272.84.408 1.392.408.704 0 1.284-.232 1.74-.696l.804.924a2.709 2.709 0 01-1.092.78c-.44.176-.936.264-1.488.264-.704 0-1.324-.14-1.86-.42a3.078 3.078 0 01-1.248-1.164 3.373 3.373 0 01-.432-1.704c0-.624.14-1.184.42-1.68a3.052 3.052 0 011.188-1.176 3.449 3.449 0 011.704-.42c.624 0 1.18.14 1.668.42.496.272.88.66 1.152 1.164.28.496.42 1.072.42 1.728zm-3.24-2.112c-.48 0-.888.144-1.224.432-.328.28-.528.656-.6 1.128h3.636a1.768 1.768 0 00-.588-1.128c-.328-.288-.736-.432-1.224-.432zm6.953-1.2c.944 0 1.664.228 2.16.684.504.448.756 1.128.756 2.04V10h-1.416v-.78c-.184.28-.448.496-.792.648-.336.144-.744.216-1.224.216s-.9-.08-1.26-.24a2.05 2.05 0 01-.84-.684 1.79 1.79 0 01-.288-.996c0-.576.212-1.036.636-1.38.432-.352 1.108-.528 2.028-.528h1.656V6.16c0-.448-.136-.792-.408-1.032-.264-.24-.66-.36-1.188-.36-.36 0-.716.056-1.068.168a2.617 2.617 0 00-.876.468l-.588-1.092c.336-.256.74-.452 1.212-.588a5.393 5.393 0 011.5-.204zm-.204 5.472c.376 0 .708-.084.996-.252.296-.176.504-.424.624-.744v-.744h-1.548c-.864 0-1.296.284-1.296.852 0 .272.108.488.324.648.216.16.516.24.9.24zm7.026 1.092c-.52 0-1.028-.068-1.524-.204-.496-.136-.892-.308-1.188-.516l.576-1.14a3.84 3.84 0 001.032.468c.408.112.808.168 1.2.168.896 0 1.344-.236 1.344-.708 0-.224-.116-.38-.348-.468-.224-.088-.588-.172-1.092-.252a9.135 9.135 0 01-1.296-.276 2.052 2.052 0 01-.864-.54c-.24-.264-.36-.628-.36-1.092 0-.608.252-1.092.756-1.452.512-.368 1.2-.552 2.064-.552.44 0 .88.052 1.32.156.44.096.8.228 1.08.396l-.576 1.14a3.553 3.553 0 00-1.836-.48c-.44 0-.776.068-1.008.204-.224.128-.336.3-.336.516 0 .24.12.412.36.516.248.096.628.188 1.14.276.512.08.932.172 1.26.276.328.104.608.28.84.528.24.248.36.6.36 1.056 0 .6-.26 1.08-.78 1.44-.52.36-1.228.54-2.124.54zm10.219-3.252c0 .104-.008.252-.024.444h-5.028c.088.472.316.848.684 1.128.376.272.84.408 1.392.408.704 0 1.284-.232 1.74-.696l.804.924a2.709 2.709 0 01-1.092.78c-.44.176-.936.264-1.488.264-.704 0-1.324-.14-1.86-.42a3.078 3.078 0 01-1.248-1.164 3.373 3.373 0 01-.432-1.704c0-.624.14-1.184.42-1.68a3.052 3.052 0 011.188-1.176 3.449 3.449 0 011.704-.42c.624 0 1.18.14 1.668.42.496.272.88.66 1.152 1.164.28.496.42 1.072.42 1.728zm-3.24-2.112c-.48 0-.888.144-1.224.432-.328.28-.528.656-.6 1.128h3.636a1.768 1.768 0 00-.588-1.128c-.328-.288-.736-.432-1.224-.432zm9.426-.192c.432-.672 1.192-1.008 2.28-1.008v1.428a1.904 1.904 0 00-.348-.036c-.584 0-1.04.172-1.368.516-.328.336-.492.824-.492 1.464V10h-1.5V3.592h1.428v.936zm9.517 2.304c0 .104-.008.252-.024.444h-5.028c.088.472.316.848.684 1.128.376.272.84.408 1.392.408.704 0 1.284-.232 1.74-.696l.804.924a2.709 2.709 0 01-1.092.78c-.44.176-.936.264-1.488.264-.704 0-1.324-.14-1.86-.42a3.078 3.078 0 01-1.248-1.164 3.373 3.373 0 01-.432-1.704c0-.624.14-1.184.42-1.68a3.052 3.052 0 011.188-1.176 3.449 3.449 0 011.704-.42c.624 0 1.18.14 1.668.42.496.272.88.66 1.152 1.164.28.496.42 1.072.42 1.728zm-3.24-2.112c-.48 0-.888.144-1.224.432-.328.28-.528.656-.6 1.128h3.636a1.768 1.768 0 00-.588-1.128c-.328-.288-.736-.432-1.224-.432zm4.681-3.624h1.5V10h-1.5V1.096zm5.917 2.424c.944 0 1.664.228 2.16.684.504.448.756 1.128.756 2.04V10h-1.416v-.78c-.184.28-.448.496-.792.648-.336.144-.744.216-1.224.216s-.9-.08-1.26-.24a2.05 2.05 0 01-.84-.684 1.79 1.79 0 01-.288-.996c0-.576.212-1.036.636-1.38.432-.352 1.108-.528 2.028-.528h1.656V6.16c0-.448-.136-.792-.408-1.032-.264-.24-.66-.36-1.188-.36-.36 0-.716.056-1.068.168a2.617 2.617 0 00-.876.468l-.588-1.092c.336-.256.74-.452 1.212-.588a5.393 5.393 0 011.5-.204zm-.204 5.472c.376 0 .708-.084.996-.252.296-.176.504-.424.624-.744v-.744H252.3c-.864 0-1.296.284-1.296.852 0 .272.108.488.324.648.216.16.516.24.9.24zm8.897.66a1.762 1.762 0 01-.648.324 2.828 2.828 0 01-.792.108c-.704 0-1.248-.184-1.632-.552-.384-.368-.576-.904-.576-1.608V4.84h-1.056v-1.2h1.056V2.176h1.5V3.64h1.716v1.2h-1.716v3.048c0 .312.076.552.228.72.152.16.372.24.66.24.336 0 .616-.088.84-.264l.42 1.068zm7.047-2.82c0 .104-.008.252-.024.444h-5.028c.088.472.316.848.684 1.128.376.272.84.408 1.392.408.704 0 1.284-.232 1.74-.696l.804.924a2.709 2.709 0 01-1.092.78c-.44.176-.936.264-1.488.264-.704 0-1.324-.14-1.86-.42a3.078 3.078 0 01-1.248-1.164 3.373 3.373 0 01-.432-1.704c0-.624.14-1.184.42-1.68a3.052 3.052 0 011.188-1.176 3.449 3.449 0 011.704-.42c.624 0 1.18.14 1.668.42.496.272.88.66 1.152 1.164.28.496.42 1.072.42 1.728zm-3.24-2.112c-.48 0-.888.144-1.224.432-.328.28-.528.656-.6 1.128h3.636a1.768 1.768 0 00-.588-1.128c-.328-.288-.736-.432-1.224-.432zm10.957-3.624V10h-1.44v-.828a2.312 2.312 0 01-.924.684c-.36.152-.76.228-1.2.228a3.411 3.411 0 01-1.668-.408 2.954 2.954 0 01-1.152-1.152c-.28-.504-.42-1.08-.42-1.728 0-.648.14-1.22.42-1.716.28-.496.664-.88 1.152-1.152a3.411 3.411 0 011.668-.408c.424 0 .812.072 1.164.216.352.144.652.36.9.648V1.096h1.5zM272.505 8.8c.36 0 .684-.08.972-.24a1.82 1.82 0 00.684-.708c.168-.304.252-.656.252-1.056s-.084-.752-.252-1.056a1.736 1.736 0 00-.684-.696 1.893 1.893 0 00-.972-.252c-.36 0-.684.084-.972.252-.288.16-.516.392-.684.696a2.148 2.148 0 00-.252 1.056c0 .4.084.752.252 1.056.168.304.396.54.684.708.288.16.612.24.972.24zM.984 18.592h1.5V25h-1.5v-6.408zm.756-1.056a.977.977 0 01-.684-.252.862.862 0 01-.276-.648c0-.256.092-.468.276-.636a.951.951 0 01.684-.264c.272 0 .5.084.684.252.184.16.276.364.276.612a.925.925 0 01-.96.936zm6.349.984c.808 0 1.456.236 1.944.708s.732 1.172.732 2.1V25h-1.5v-3.48c0-.56-.132-.98-.396-1.26-.264-.288-.64-.432-1.128-.432-.552 0-.988.168-1.308.504-.32.328-.48.804-.48 1.428V25h-1.5v-6.408H5.88v.828c.248-.296.56-.52.936-.672.376-.152.8-.228 1.272-.228zm7.183-1.296c-.632 0-.948.344-.948 1.032v.384h1.764v1.2h-1.716V25h-1.5v-5.16h-1.056v-1.2h1.056v-.408c0-.688.2-1.228.6-1.62.4-.4.964-.6 1.692-.6.576 0 1.028.116 1.356.348l-.42 1.128a1.433 1.433 0 00-.828-.264zm4.612 7.86c-.649 0-1.233-.14-1.753-.42a3.117 3.117 0 01-1.224-1.164 3.373 3.373 0 01-.431-1.704c0-.632.143-1.196.431-1.692a3.117 3.117 0 011.224-1.164c.52-.28 1.104-.42 1.753-.42.655 0 1.244.14 1.764.42.52.28.924.668 1.212 1.164.296.496.444 1.06.444 1.692 0 .632-.148 1.2-.444 1.704a3.033 3.033 0 01-1.212 1.164c-.52.28-1.108.42-1.764.42zm0-1.284c.552 0 1.008-.184 1.367-.552.36-.368.54-.852.54-1.452s-.18-1.084-.54-1.452c-.36-.368-.816-.552-1.367-.552-.553 0-1.009.184-1.369.552-.352.368-.527.852-.527 1.452s.175 1.084.527 1.452c.36.368.816.552 1.369.552zm6.282-4.272c.432-.672 1.192-1.008 2.28-1.008v1.428a1.904 1.904 0 00-.348-.036c-.584 0-1.04.172-1.368.516-.328.336-.492.824-.492 1.464V25h-1.5v-6.408h1.428v.936zm11.64-1.008c.808 0 1.448.236 1.92.708.472.464.708 1.164.708 2.1V25h-1.5v-3.48c0-.56-.124-.98-.372-1.26-.248-.288-.604-.432-1.068-.432-.504 0-.908.168-1.212.504-.304.328-.456.8-.456 1.416V25h-1.5v-3.48c0-.56-.124-.98-.372-1.26-.248-.288-.604-.432-1.068-.432-.512 0-.92.164-1.224.492-.296.328-.444.804-.444 1.428V25h-1.5v-6.408h1.428v.816c.24-.288.54-.508.9-.66.36-.152.76-.228 1.2-.228.48 0 .904.092 1.272.276.376.176.672.44.888.792a2.619 2.619 0 011.02-.78 3.254 3.254 0 011.38-.288zm6.993 0c.944 0 1.664.228 2.16.684.504.448.756 1.128.756 2.04V25H46.3v-.78c-.184.28-.448.496-.792.648-.336.144-.744.216-1.224.216s-.9-.08-1.26-.24a2.05 2.05 0 01-.84-.684 1.79 1.79 0 01-.288-.996c0-.576.212-1.036.636-1.38.432-.352 1.108-.528 2.028-.528h1.656v-.096c0-.448-.136-.792-.408-1.032-.264-.24-.66-.36-1.188-.36-.36 0-.716.056-1.068.168a2.617 2.617 0 00-.876.468l-.588-1.092c.336-.256.74-.452 1.212-.588a5.393 5.393 0 011.5-.204zm-.204 5.472c.376 0 .708-.084.996-.252.296-.176.504-.424.624-.744v-.744h-1.548c-.864 0-1.296.284-1.296.852 0 .272.108.488.324.648.216.16.516.24.9.24zm8.897.66a1.762 1.762 0 01-.648.324 2.828 2.828 0 01-.792.108c-.704 0-1.248-.184-1.632-.552-.384-.368-.576-.904-.576-1.608V19.84h-1.056v-1.2h1.056v-1.464h1.5v1.464h1.716v1.2h-1.716v3.048c0 .312.076.552.228.72.152.16.372.24.66.24.336 0 .616-.088.84-.264l.42 1.068zm1.234-6.06h1.5V25h-1.5v-6.408zm.756-1.056a.977.977 0 01-.684-.252.862.862 0 01-.276-.648c0-.256.092-.468.276-.636a.951.951 0 01.684-.264c.272 0 .5.084.684.252.184.16.276.364.276.612a.925.925 0 01-.96.936zm5.593 7.548c-.648 0-1.232-.14-1.752-.42a3.117 3.117 0 01-1.224-1.164 3.373 3.373 0 01-.432-1.704c0-.632.144-1.196.432-1.692a3.117 3.117 0 011.224-1.164c.52-.28 1.104-.42 1.752-.42.656 0 1.244.14 1.764.42.52.28.924.668 1.212 1.164.296.496.444 1.06.444 1.692 0 .632-.148 1.2-.444 1.704a3.033 3.033 0 01-1.212 1.164c-.52.28-1.108.42-1.764.42zm0-1.284c.552 0 1.008-.184 1.368-.552.36-.368.54-.852.54-1.452s-.18-1.084-.54-1.452c-.36-.368-.816-.552-1.368-.552-.552 0-1.008.184-1.368.552-.352.368-.528.852-.528 1.452s.176 1.084.528 1.452c.36.368.816.552 1.368.552zm8.49-5.28c.808 0 1.456.236 1.944.708s.732 1.172.732 2.1V25h-1.5v-3.48c0-.56-.132-.98-.396-1.26-.264-.288-.64-.432-1.128-.432-.552 0-.988.168-1.308.504-.32.328-.48.804-.48 1.428V25h-1.5v-6.408h1.428v.828c.248-.296.56-.52.936-.672.376-.152.8-.228 1.272-.228z" fill="#9B9B9B"/></svg>