<svg width="131" height="20" viewBox="0 0 131 20" fill="none" xmlns="http://www.w3.org/2000/svg"><path d="M4.043 15.13c-.702 0-1.382-.1-2.041-.299-.65-.2-1.166-.464-1.547-.793l.585-1.313c.373.295.828.537 1.365.728a5.153 5.153 0 001.638.273c.676 0 1.179-.108 1.508-.325.338-.217.507-.503.507-.858a.803.803 0 00-.286-.637 1.847 1.847 0 00-.702-.403 15.795 15.795 0 00-1.17-.325 14.02 14.02 0 01-1.69-.494 2.861 2.861 0 01-1.105-.767C.802 9.562.65 9.085.65 8.487c0-.503.134-.958.403-1.365.277-.416.689-.745 1.235-.988.555-.243 1.23-.364 2.028-.364.555 0 1.1.07 1.638.208a4.528 4.528 0 011.391.598l-.533 1.313a5.258 5.258 0 00-1.248-.533 4.668 4.668 0 00-1.261-.182c-.667 0-1.166.113-1.495.338-.32.225-.481.524-.481.897 0 .26.091.472.273.637.19.165.429.295.715.39.286.095.676.204 1.17.325.676.156 1.23.32 1.664.494.433.165.802.42 1.105.767.312.347.468.815.468 1.404 0 .503-.139.958-.416 1.365-.269.407-.68.732-1.235.975s-1.23.364-2.028.364zm8.644-.039c-.702 0-1.335-.152-1.898-.455a3.377 3.377 0 01-1.326-1.261c-.312-.546-.468-1.161-.468-1.846s.156-1.296.468-1.833c.32-.537.762-.958 1.326-1.261.563-.303 1.196-.455 1.898-.455.71 0 1.347.152 1.91.455a3.286 3.286 0 011.314 1.261c.32.537.48 1.148.48 1.833s-.16 1.3-.48 1.846c-.312.537-.75.958-1.313 1.261-.564.303-1.2.455-1.911.455zm0-1.391c.598 0 1.092-.2 1.482-.598.39-.399.585-.923.585-1.573 0-.65-.195-1.174-.585-1.573-.39-.399-.884-.598-1.482-.598s-1.092.2-1.482.598c-.382.399-.572.923-.572 1.573 0 .65.19 1.174.572 1.573.39.399.884.598 1.482.598zm14.346-5.72c.875 0 1.568.256 2.08.767.511.503.767 1.261.767 2.275V15h-1.625v-3.77c0-.607-.135-1.062-.403-1.365-.269-.312-.655-.468-1.157-.468-.546 0-.984.182-1.313.546-.33.355-.494.867-.494 1.534V15h-1.625v-3.77c0-.607-.135-1.062-.403-1.365-.269-.312-.655-.468-1.157-.468-.555 0-.997.178-1.326.533-.321.355-.481.871-.481 1.547V15H18.27V8.058h1.547v.884c.26-.312.585-.55.975-.715a3.31 3.31 0 011.3-.247c.52 0 .979.1 1.378.299.407.19.728.477.962.858a2.837 2.837 0 011.105-.845c.45-.208.949-.312 1.495-.312zm9.096 0c.676 0 1.279.147 1.807.442.538.295.958.71 1.261 1.248.304.537.455 1.157.455 1.859s-.151 1.326-.455 1.872a3.176 3.176 0 01-1.26 1.248c-.53.295-1.132.442-1.808.442-.936 0-1.677-.312-2.223-.936v3.367h-1.625V8.058h1.547v.91c.269-.33.598-.576.988-.741a3.407 3.407 0 011.313-.247zm-.182 5.72c.598 0 1.088-.2 1.47-.598.39-.399.584-.923.584-1.573 0-.65-.195-1.174-.585-1.573-.381-.399-.87-.598-1.469-.598-.39 0-.74.091-1.053.273a1.881 1.881 0 00-.74.754c-.183.33-.274.71-.274 1.144 0 .433.091.815.273 1.144.182.33.43.585.741.767.312.173.663.26 1.053.26zm7.118-4.628c.468-.728 1.292-1.092 2.47-1.092v1.547a2.062 2.062 0 00-.377-.039c-.632 0-1.126.186-1.482.559-.355.364-.533.893-.533 1.586V15h-1.625V8.058h1.547v1.014zm6.788-1.092c1.022 0 1.802.247 2.34.741.546.485.819 1.222.819 2.21V15h-1.534v-.845c-.2.303-.486.537-.858.702-.364.156-.806.234-1.326.234s-.975-.087-1.365-.26a2.22 2.22 0 01-.91-.741 1.94 1.94 0 01-.312-1.079c0-.624.23-1.122.689-1.495.468-.381 1.2-.572 2.197-.572h1.794v-.104c0-.485-.148-.858-.442-1.118-.286-.26-.715-.39-1.287-.39-.39 0-.776.06-1.157.182-.373.121-.69.29-.95.507l-.636-1.183c.364-.277.801-.49 1.313-.637a5.842 5.842 0 011.625-.221zm-.221 5.928c.407 0 .767-.091 1.079-.273.32-.19.546-.46.676-.806v-.806H49.71c-.936 0-1.404.308-1.404.923 0 .295.117.529.35.702.235.173.56.26.976.26zm11.211-.208V15H54.85v-1.027l3.81-4.615h-3.732v-1.3h5.811v1.027L56.917 13.7h3.926zm8.393-7.8V15h-1.69V7.317h-1.924V5.9h3.614zm5.926 9.23c-.728 0-1.378-.182-1.95-.546-.572-.373-1.023-.91-1.352-1.612-.33-.71-.494-1.551-.494-2.522 0-.97.165-1.807.494-2.509.33-.71.78-1.248 1.352-1.612.572-.373 1.222-.559 1.95-.559s1.378.186 1.95.559c.58.364 1.036.901 1.365 1.612.33.702.494 1.538.494 2.509 0 .97-.165 1.811-.494 2.522-.33.702-.784 1.24-1.365 1.612-.572.364-1.222.546-1.95.546zm0-1.469c.65 0 1.161-.269 1.534-.806.382-.537.572-1.339.572-2.405 0-1.066-.19-1.868-.572-2.405-.373-.537-.884-.806-1.534-.806-.641 0-1.153.269-1.534.806-.373.537-.559 1.339-.559 2.405 0 1.066.186 1.868.56 2.405.38.537.892.806 1.533.806zm9.072 1.469c-.728 0-1.378-.182-1.95-.546-.572-.373-1.023-.91-1.352-1.612-.33-.71-.494-1.551-.494-2.522 0-.97.165-1.807.494-2.509.33-.71.78-1.248 1.352-1.612.572-.373 1.222-.559 1.95-.559s1.378.186 1.95.559c.58.364 1.036.901 1.365 1.612.33.702.494 1.538.494 2.509 0 .97-.165 1.811-.494 2.522-.33.702-.784 1.24-1.365 1.612-.572.364-1.222.546-1.95.546zm0-1.469c.65 0 1.162-.269 1.534-.806.382-.537.572-1.339.572-2.405 0-1.066-.19-1.868-.572-2.405-.373-.537-.884-.806-1.534-.806-.641 0-1.152.269-1.534.806-.373.537-.559 1.339-.559 2.405 0 1.066.186 1.868.56 2.405.38.537.892.806 1.533.806zM96.574 5.9V15h-1.69V7.317H92.96V5.9h3.614zm5.926 9.23c-.728 0-1.378-.182-1.95-.546-.572-.373-1.022-.91-1.352-1.612-.33-.71-.494-1.551-.494-2.522 0-.97.165-1.807.494-2.509.33-.71.78-1.248 1.352-1.612.572-.373 1.222-.559 1.95-.559s1.378.186 1.95.559c.581.364 1.036.901 1.365 1.612.33.702.494 1.538.494 2.509 0 .97-.164 1.811-.494 2.522-.329.702-.784 1.24-1.365 1.612-.572.364-1.222.546-1.95.546zm0-1.469c.65 0 1.162-.269 1.534-.806.382-.537.572-1.339.572-2.405 0-1.066-.19-1.868-.572-2.405-.372-.537-.884-.806-1.534-.806-.641 0-1.152.269-1.534.806-.372.537-.559 1.339-.559 2.405 0 1.066.187 1.868.559 2.405.382.537.893.806 1.534.806zm14.532-5.681c.876 0 1.569.256 2.08.767.512.503.767 1.261.767 2.275V15h-1.625v-3.77c0-.607-.134-1.062-.403-1.365-.268-.312-.654-.468-1.157-.468-.546 0-.983.182-1.313.546-.329.355-.494.867-.494 1.534V15h-1.625v-3.77c0-.607-.134-1.062-.403-1.365-.268-.312-.654-.468-1.157-.468-.554 0-.996.178-1.326.533-.32.355-.481.871-.481 1.547V15h-1.625V8.058h1.547v.884c.26-.312.585-.55.975-.715.39-.165.824-.247 1.3-.247.52 0 .98.1 1.378.299.408.19.728.477.962.858a2.842 2.842 0 011.105-.845 3.526 3.526 0 011.495-.312zm12.202.078v5.889c0 2.444-1.248 3.666-3.744 3.666-.667 0-1.3-.087-1.898-.26-.598-.165-1.092-.407-1.482-.728l.728-1.222c.304.251.685.45 1.144.598.468.156.941.234 1.417.234.763 0 1.322-.173 1.677-.52.356-.347.533-.875.533-1.586v-.364a2.667 2.667 0 01-1.014.689 3.57 3.57 0 01-1.313.234 3.857 3.857 0 01-1.794-.416 3.284 3.284 0 01-1.261-1.196c-.303-.511-.455-1.096-.455-1.755 0-.659.152-1.24.455-1.742a3.19 3.19 0 011.261-1.183 3.857 3.857 0 011.794-.416c.503 0 .958.082 1.365.247a2.52 2.52 0 011.04.754v-.923h1.547zm-3.705 5.252c.616 0 1.118-.182 1.508-.546.399-.373.598-.854.598-1.443 0-.58-.199-1.053-.598-1.417-.39-.364-.892-.546-1.508-.546-.624 0-1.135.182-1.534.546-.39.364-.585.836-.585 1.417 0 .59.195 1.07.585 1.443.399.364.91.546 1.534.546z" fill="#474747"/></svg>