<svg width="76" height="16" viewBox="0 0 76 16" fill="none" xmlns="http://www.w3.org/2000/svg"><path d="M4.043 13.13c-.702 0-1.382-.1-2.041-.299-.65-.2-1.166-.464-1.547-.793l.585-1.313c.373.295.828.537 1.365.728a5.153 5.153 0 001.638.273c.676 0 1.179-.108 1.508-.325.338-.217.507-.503.507-.858a.803.803 0 00-.286-.637 1.847 1.847 0 00-.702-.403 15.795 15.795 0 00-1.17-.325 14.02 14.02 0 01-1.69-.494 2.861 2.861 0 01-1.105-.767C.802 7.562.65 7.085.65 6.487c0-.503.134-.958.403-1.365.277-.416.689-.745 1.235-.988.555-.243 1.23-.364 2.028-.364.555 0 1.1.07 1.638.208a4.528 4.528 0 011.391.598l-.533 1.313a5.258 5.258 0 00-1.248-.533 4.668 4.668 0 00-1.261-.182c-.667 0-1.166.113-1.495.338-.32.225-.481.524-.481.897 0 .26.091.472.273.637.19.165.429.295.715.39.286.095.676.204 1.17.325.676.156 1.23.32 1.664.494.433.165.802.42 1.105.767.312.347.468.815.468 1.404 0 .503-.139.958-.416 1.365-.269.407-.68.732-1.235.975s-1.23.364-2.028.364zm16.226-7.072L17.708 13h-1.56l-1.794-4.784L12.534 13h-1.56L8.426 6.058H9.96l1.833 5.122 1.91-5.122h1.366l1.872 5.148 1.885-5.148h1.443zm1.442 0h1.625V13h-1.625V6.058zm.82-1.144c-.296 0-.543-.091-.742-.273a.934.934 0 01-.299-.702c0-.277.1-.507.3-.689.198-.19.445-.286.74-.286s.542.091.741.273a.84.84 0 01.3.663.99.99 0 01-.3.728c-.19.19-.438.286-.74.286zM34.555 5.98c.875 0 1.569.256 2.08.767.511.503.767 1.261.767 2.275V13h-1.625V9.23c0-.607-.134-1.062-.403-1.365-.269-.312-.654-.468-1.157-.468-.546 0-.984.182-1.313.546-.33.355-.494.867-.494 1.534V13h-1.625V9.23c0-.607-.134-1.062-.403-1.365-.269-.312-.654-.468-1.157-.468-.555 0-.997.178-1.326.533-.32.355-.481.871-.481 1.547V13h-1.625V6.058h1.547v.884c.26-.312.585-.55.975-.715a3.31 3.31 0 011.3-.247c.52 0 .98.1 1.378.299.407.19.728.477.962.858a2.837 2.837 0 011.105-.845c.45-.208.949-.312 1.495-.312zm14.01 0c.876 0 1.57.256 2.08.767.512.503.767 1.261.767 2.275V13H49.79V9.23c0-.607-.135-1.062-.404-1.365-.268-.312-.654-.468-1.157-.468-.546 0-.983.182-1.313.546-.329.355-.493.867-.493 1.534V13h-1.625V9.23c0-.607-.135-1.062-.403-1.365-.27-.312-.655-.468-1.157-.468-.555 0-.997.178-1.327.533-.32.355-.48.871-.48 1.547V13h-1.626V6.058h1.547v.884c.26-.312.586-.55.976-.715a3.31 3.31 0 011.3-.247c.52 0 .979.1 1.377.299.408.19.729.477.963.858a2.837 2.837 0 011.105-.845c.45-.208.948-.312 1.494-.312zm5.249.078h1.625V13h-1.625V6.058zm.819-1.144c-.295 0-.542-.091-.741-.273a.934.934 0 01-.299-.702c0-.277.1-.507.299-.689.2-.19.446-.286.741-.286s.542.091.741.273a.84.84 0 01.299.663.99.99 0 01-.299.728c-.19.19-.438.286-.741.286zm7.203 1.066c.875 0 1.577.256 2.106.767.529.511.793 1.27.793 2.275V13H63.11V9.23c0-.607-.143-1.062-.43-1.365-.285-.312-.692-.468-1.221-.468-.598 0-1.07.182-1.417.546-.347.355-.52.871-.52 1.547V13h-1.625V6.058h1.547v.897a2.54 2.54 0 011.014-.728 3.65 3.65 0 011.378-.247zm12.239.078v5.889c0 2.444-1.248 3.666-3.744 3.666-.668 0-1.3-.087-1.898-.26-.598-.165-1.092-.407-1.482-.728l.728-1.222c.303.251.684.45 1.144.598.468.156.94.234 1.417.234.762 0 1.321-.173 1.677-.52.355-.347.533-.875.533-1.586v-.364a2.671 2.671 0 01-1.014.689 3.573 3.573 0 01-1.313.234 3.854 3.854 0 01-1.794-.416 3.28 3.28 0 01-1.261-1.196c-.304-.511-.455-1.096-.455-1.755 0-.659.151-1.24.455-1.742a3.185 3.185 0 011.26-1.183 3.853 3.853 0 011.795-.416c.502 0 .957.082 1.365.247.416.165.762.416 1.04.754v-.923h1.547zM70.37 11.31c.615 0 1.118-.182 1.508-.546.398-.373.598-.854.598-1.443 0-.58-.2-1.053-.598-1.417-.39-.364-.893-.546-1.508-.546-.624 0-1.136.182-1.534.546-.39.364-.585.836-.585 1.417 0 .59.195 1.07.585 1.443.398.364.91.546 1.534.546z" fill="#474747"/></svg>