<svg width="136" height="20" viewBox="0 0 136 20" fill="none" xmlns="http://www.w3.org/2000/svg"><path d="M4.043 15.13c-.702 0-1.382-.1-2.041-.299-.65-.2-1.166-.464-1.547-.793l.585-1.313c.373.295.828.537 1.365.728a5.153 5.153 0 001.638.273c.676 0 1.179-.108 1.508-.325.338-.217.507-.503.507-.858a.803.803 0 00-.286-.637 1.847 1.847 0 00-.702-.403 15.795 15.795 0 00-1.17-.325 14.02 14.02 0 01-1.69-.494 2.861 2.861 0 01-1.105-.767C.802 9.562.65 9.085.65 8.487c0-.503.134-.958.403-1.365.277-.416.689-.745 1.235-.988.555-.243 1.23-.364 2.028-.364.555 0 1.1.07 1.638.208a4.528 4.528 0 011.391.598l-.533 1.313a5.258 5.258 0 00-1.248-.533 4.668 4.668 0 00-1.261-.182c-.667 0-1.166.113-1.495.338-.32.225-.481.524-.481.897 0 .26.091.472.273.637.19.165.429.295.715.39.286.095.676.204 1.17.325.676.156 1.23.32 1.664.494.433.165.802.42 1.105.767.312.347.468.815.468 1.404 0 .503-.139.958-.416 1.365-.269.407-.68.732-1.235.975s-1.23.364-2.028.364zM15.94 8.058l-3.25 7.501c-.303.754-.672 1.283-1.105 1.586-.434.312-.958.468-1.573.468-.347 0-.69-.056-1.027-.169a2.27 2.27 0 01-.832-.468l.65-1.196c.156.147.338.264.546.351.216.087.433.13.65.13.286 0 .52-.074.702-.221.19-.147.364-.394.52-.741l.117-.273-3.03-6.968h1.69l2.185 5.135 2.197-5.135h1.56zm10.103-.078c.875 0 1.568.256 2.08.767.51.503.767 1.261.767 2.275V15h-1.625v-3.77c0-.607-.135-1.062-.404-1.365-.268-.312-.654-.468-1.157-.468-.546 0-.983.182-1.313.546-.329.355-.493.867-.493 1.534V15h-1.625v-3.77c0-.607-.135-1.062-.404-1.365-.268-.312-.654-.468-1.157-.468-.554 0-.996.178-1.325.533-.321.355-.482.871-.482 1.547V15H17.28V8.058h1.547v.884c.26-.312.585-.55.975-.715a3.31 3.31 0 011.3-.247c.52 0 .98.1 1.378.299.408.19.729.477.962.858a2.837 2.837 0 011.105-.845c.451-.208.95-.312 1.495-.312zm5.248-2.626h1.625V15h-1.625V5.354zm4.083 2.704h1.625V15h-1.625V8.058zm.819-1.144c-.295 0-.542-.091-.741-.273a.934.934 0 01-.3-.702c0-.277.1-.507.3-.689.2-.19.446-.286.74-.286.295 0 .542.091.742.273a.84.84 0 01.299.663.99.99 0 01-.3.728c-.19.19-.437.286-.74.286zm7.203 1.066c.875 0 1.577.256 2.106.767.528.511.793 1.27.793 2.275V15H44.67v-3.77c0-.607-.143-1.062-.43-1.365-.285-.312-.693-.468-1.221-.468-.598 0-1.07.182-1.417.546-.347.355-.52.871-.52 1.547V15h-1.625V8.058h1.547v.897a2.54 2.54 0 011.014-.728 3.65 3.65 0 011.378-.247zM52.58 5.9c.789 0 1.473.13 2.054.39.59.26 1.04.633 1.352 1.118.312.485.468 1.062.468 1.729 0 .659-.156 1.235-.468 1.729-.312.485-.763.858-1.352 1.118-.58.26-1.265.39-2.054.39h-2.054V15h-1.69V5.9h3.744zm-.078 5.044c.737 0 1.296-.156 1.677-.468.381-.312.572-.758.572-1.339 0-.58-.19-1.027-.572-1.339-.381-.312-.94-.468-1.677-.468h-1.976v3.614h1.976zm12.31.624c0 .113-.01.273-.027.481H59.34c.096.511.343.919.741 1.222.408.295.91.442 1.508.442.763 0 1.391-.251 1.885-.754l.871 1.001a2.934 2.934 0 01-1.183.845 4.308 4.308 0 01-1.612.286c-.762 0-1.434-.152-2.015-.455a3.335 3.335 0 01-1.352-1.261c-.312-.546-.468-1.161-.468-1.846 0-.676.152-1.283.455-1.82.312-.546.741-.97 1.287-1.274.546-.303 1.162-.455 1.846-.455.676 0 1.279.152 1.807.455a3.07 3.07 0 011.248 1.261c.304.537.455 1.161.455 1.872zm-3.51-2.288c-.52 0-.963.156-1.327.468-.355.303-.572.71-.65 1.222h3.94c-.07-.503-.282-.91-.638-1.222-.355-.312-.797-.468-1.326-.468zm9.334-1.3c.876 0 1.578.256 2.106.767.529.511.793 1.27.793 2.275V15h-1.625v-3.77c0-.607-.143-1.062-.429-1.365-.286-.312-.693-.468-1.222-.468-.598 0-1.07.182-1.417.546-.346.355-.52.871-.52 1.547V15h-1.625V8.058h1.547v.897a2.54 2.54 0 011.014-.728 3.65 3.65 0 011.378-.247zM82.492 5.9V15h-1.69V7.317h-1.924V5.9h3.614zm8.722 7.67V15h-6.708v-1.131l3.614-3.432c.407-.39.68-.728.819-1.014.147-.295.22-.585.22-.871 0-.425-.142-.75-.428-.975-.286-.225-.707-.338-1.261-.338-.928 0-1.638.316-2.132.949l-1.183-.91c.355-.477.832-.845 1.43-1.105.606-.269 1.282-.403 2.028-.403.988 0 1.776.234 2.366.702.589.468.884 1.105.884 1.911 0 .494-.104.958-.312 1.391-.208.433-.607.927-1.196 1.482l-2.431 2.314h4.29zm5.058 1.56c-.728 0-1.378-.182-1.95-.546-.572-.373-1.023-.91-1.352-1.612-.33-.71-.494-1.551-.494-2.522 0-.97.165-1.807.494-2.509.33-.71.78-1.248 1.352-1.612.572-.373 1.222-.559 1.95-.559s1.378.186 1.95.559c.58.364 1.036.901 1.365 1.612.33.702.494 1.538.494 2.509 0 .97-.165 1.811-.494 2.522-.33.702-.784 1.24-1.365 1.612-.572.364-1.222.546-1.95.546zm0-1.469c.65 0 1.161-.269 1.534-.806.381-.537.572-1.339.572-2.405 0-1.066-.19-1.868-.572-2.405-.373-.537-.884-.806-1.534-.806-.641 0-1.153.269-1.534.806-.373.537-.56 1.339-.56 2.405 0 1.066.187 1.868.56 2.405.381.537.893.806 1.534.806zm15.785-.091V15h-6.708v-1.131l3.614-3.432c.407-.39.68-.728.819-1.014.147-.295.221-.585.221-.871 0-.425-.143-.75-.429-.975-.286-.225-.707-.338-1.261-.338-.928 0-1.638.316-2.132.949l-1.183-.91c.355-.477.832-.845 1.43-1.105.606-.269 1.282-.403 2.028-.403.988 0 1.776.234 2.366.702.589.468.884 1.105.884 1.911 0 .494-.104.958-.312 1.391-.208.433-.607.927-1.196 1.482l-2.431 2.314h4.29zm10.556-5.59c.875 0 1.569.256 2.08.767.511.503.767 1.261.767 2.275V15h-1.625v-3.77c0-.607-.134-1.062-.403-1.365-.269-.312-.654-.468-1.157-.468-.546 0-.984.182-1.313.546-.329.355-.494.867-.494 1.534V15h-1.625v-3.77c0-.607-.134-1.062-.403-1.365-.269-.312-.654-.468-1.157-.468-.555 0-.997.178-1.326.533-.321.355-.481.871-.481 1.547V15h-1.625V8.058h1.547v.884c.26-.312.585-.55.975-.715.39-.165.823-.247 1.3-.247.52 0 .979.1 1.378.299a2.2 2.2 0 01.962.858 2.834 2.834 0 011.105-.845 3.526 3.526 0 011.495-.312zm12.202.078v5.889c0 2.444-1.248 3.666-3.744 3.666-.667 0-1.3-.087-1.898-.26-.598-.165-1.092-.407-1.482-.728l.728-1.222c.304.251.685.45 1.144.598.468.156.941.234 1.417.234.763 0 1.322-.173 1.677-.52.356-.347.533-.875.533-1.586v-.364a2.667 2.667 0 01-1.014.689 3.57 3.57 0 01-1.313.234 3.857 3.857 0 01-1.794-.416 3.284 3.284 0 01-1.261-1.196c-.303-.511-.455-1.096-.455-1.755 0-.659.152-1.24.455-1.742a3.19 3.19 0 011.261-1.183 3.857 3.857 0 011.794-.416c.503 0 .958.082 1.365.247a2.52 2.52 0 011.04.754v-.923h1.547zm-3.705 5.252c.616 0 1.118-.182 1.508-.546.399-.373.598-.854.598-1.443 0-.58-.199-1.053-.598-1.417-.39-.364-.892-.546-1.508-.546-.624 0-1.135.182-1.534.546-.39.364-.585.836-.585 1.417 0 .59.195 1.07.585 1.443.399.364.91.546 1.534.546z" fill="#474747"/></svg>